Dakdam-Bold.ufo
<glyph name="uni178B" format="2">
  <advance width="1538"/>
  <unicode hex="178B"/>
  <anchor x="1350" y="0" name="L"/>
  <anchor x="1350" y="1725" name="U"/>
  <outline>
    <contour>
      <point x="1050" y="919" type="curve"/>
      <point x="1050" y="225" type="line" smooth="yes"/>
      <point x="1050" y="169"/>
      <point x="919" y="131"/>
      <point x="825" y="131" type="curve" smooth="yes"/>
      <point x="731" y="131"/>
      <point x="600" y="169"/>
      <point x="600" y="225" type="curve" smooth="yes"/>
      <point x="600" y="1112" type="line"/>
      <point x="570" y="1188"/>
      <point x="462" y="1220"/>
      <point x="347" y="1220" type="curve"/>
      <point x="181" y="1189"/>
      <point x="73" y="1059"/>
      <point x="73" y="930" type="curve" smooth="yes"/>
      <point x="73" y="806"/>
      <point x="170" y="688"/>
      <point x="300" y="665" type="curve"/>
      <point x="300" y="206" type="line" smooth="yes"/>
      <point x="300" y="94"/>
      <point x="600" y="0"/>
      <point x="825" y="0" type="curve" smooth="yes"/>
      <point x="1050" y="0"/>
      <point x="1350" y="94"/>
      <point x="1350" y="206" type="curve" smooth="yes"/>
      <point x="1350" y="910" type="line" smooth="yes"/>
      <point x="1350" y="975"/>
      <point x="1129" y="1084"/>
      <point x="1009" y="1124" type="curve" smooth="yes"/>
      <point x="1007" y="1125"/>
      <point x="1006" y="1126"/>
      <point x="1006" y="1128" type="curve"/>
      <point x="1009" y="1143"/>
      <point x="1016" y="1165"/>
      <point x="1034" y="1177" type="curve" smooth="yes"/>
      <point x="1042" y="1183"/>
      <point x="1052" y="1186"/>
      <point x="1062" y="1186" type="curve" smooth="yes"/>
      <point x="1121" y="1186"/>
      <point x="1195" y="1093"/>
      <point x="1290" y="1093" type="curve" smooth="yes"/>
      <point x="1407" y="1093"/>
      <point x="1519" y="1215"/>
      <point x="1519" y="1380" type="curve" smooth="yes"/>
      <point x="1519" y="1732"/>
      <point x="1306" y="1777"/>
      <point x="1209" y="1777" type="curve" smooth="yes"/>
      <point x="1134" y="1777"/>
      <point x="1078" y="1749"/>
      <point x="1078" y="1691" type="curve" smooth="yes"/>
      <point x="1078" y="1631"/>
      <point x="1125" y="1589"/>
      <point x="1215" y="1560" type="curve" smooth="yes"/>
      <point x="1314" y="1529"/>
      <point x="1398" y="1494"/>
      <point x="1398" y="1330" type="curve"/>
      <point x="1398" y="1313"/>
      <point x="1392" y="1303"/>
      <point x="1383" y="1303" type="curve"/>
      <point x="1328" y="1303"/>
      <point x="1150" y="1440"/>
      <point x="1078" y="1440" type="curve" smooth="yes"/>
      <point x="994" y="1440"/>
      <point x="891" y="1165"/>
      <point x="866" y="1061" type="curve"/>
      <point x="866" y="1055"/>
      <point x="868" y="1050"/>
      <point x="873" y="1049" type="curve" smooth="yes"/>
      <point x="978" y="1037"/>
      <point x="1050" y="963"/>
    </contour>
    <contour>
      <point x="195" y="930" type="curve" smooth="yes"/>
      <point x="195" y="1001"/>
      <point x="249" y="1041"/>
      <point x="300" y="1063" type="curve"/>
      <point x="300" y="762" type="line"/>
      <point x="234" y="781"/>
      <point x="195" y="857"/>
    </contour>
  </outline>
</glyph>
<glyph name="uni1797" format="2">
  <advance width="1538"/>
  <unicode hex="1797"/>
  <anchor x="1350" y="0" name="L"/>
  <anchor x="1350" y="1440" name="U"/>
  <outline>
    <contour>
      <point x="792" y="1064" type="curve" smooth="yes"/>
      <point x="829" y="1064"/>
      <point x="860" y="1118"/>
      <point x="879" y="1142" type="curve" smooth="yes"/>
      <point x="903" y="1171"/>
      <point x="932" y="1206"/>
      <point x="963" y="1206" type="curve" smooth="yes"/>
      <point x="1032" y="1206"/>
      <point x="1205" y="1064"/>
      <point x="1290" y="1064" type="curve" smooth="yes"/>
      <point x="1371" y="1064"/>
      <point x="1440" y="1199"/>
      <point x="1471" y="1285" type="curve"/>
      <point x="1448" y="1275"/>
      <point x="1424" y="1273"/>
      <point x="1401" y="1273" type="curve" smooth="yes"/>
      <point x="1336" y="1273"/>
      <point x="1091" y="1440"/>
      <point x="1019" y="1440" type="curve" smooth="yes"/>
      <point x="995" y="1440"/>
      <point x="958" y="1419"/>
      <point x="924" y="1387" type="curve" smooth="yes"/>
      <point x="897" y="1361"/>
      <point x="867" y="1331"/>
      <point x="839" y="1298" type="curve"/>
      <point x="760" y="1323"/>
      <point x="565" y="1440"/>
      <point x="501" y="1440" type="curve" smooth="yes"/>
      <point x="337" y="1440"/>
      <point x="215" y="1235"/>
      <point x="142" y="1064" type="curve" smooth="yes"/>
      <point x="139" y="1057"/>
      <point x="138" y="1035"/>
      <point x="138" y="1029" type="curve" smooth="yes"/>
      <point x="138" y="958"/>
      <point x="216" y="902"/>
      <point x="289" y="890" type="curve"/>
      <point x="470" y="994" type="line"/>
      <point x="387" y="1010"/>
      <point x="323" y="1027"/>
      <point x="323" y="1084" type="curve" smooth="yes"/>
      <point x="323" y="1105"/>
      <point x="332" y="1129"/>
      <point x="351" y="1153" type="curve" smooth="yes"/>
      <point x="376" y="1185"/>
      <point x="400" y="1206"/>
      <point x="435" y="1206" type="curve" smooth="yes"/>
      <point x="504" y="1206"/>
      <point x="707" y="1064"/>
    </contour>
    <contour>
      <point x="600" y="410" type="line"/>
      <point x="600" y="800" type="line" smooth="yes"/>
      <point x="600" y="856"/>
      <point x="732" y="884"/>
      <point x="825" y="884" type="curve" smooth="yes"/>
      <point x="919" y="884"/>
      <point x="1050" y="856"/>
      <point x="1050" y="800" type="curve" smooth="yes"/>
      <point x="1050" y="0" type="line"/>
      <point x="1350" y="0" type="line"/>
      <point x="1350" y="819" type="line" smooth="yes"/>
      <point x="1350" y="931"/>
      <point x="1050" y="1025"/>
      <point x="825" y="1025" type="curve" smooth="yes"/>
      <point x="600" y="1025"/>
      <point x="300" y="941"/>
      <point x="300" y="819" type="curve"/>
      <point x="300" y="410" type="line"/>
    </contour>
    <contour>
      <point x="300" y="742" type="line"/>
      <point x="300" y="555" type="line"/>
      <point x="170" y="532"/>
      <point x="73" y="414"/>
      <point x="73" y="290" type="curve"/>
      <point x="73" y="161"/>
      <point x="181" y="31"/>
      <point x="347" y="0" type="curve"/>
      <point x="462" y="0"/>
      <point x="570" y="32"/>
      <point x="600" y="108" type="curve"/>
      <point x="600" y="736" type="line"/>
    </contour>
    <contour>
      <point x="195" y="290" type="curve" smooth="yes"/>
      <point x="195" y="363"/>
      <point x="234" y="439"/>
      <point x="300" y="458" type="curve"/>
      <point x="300" y="157" type="line"/>
      <point x="249" y="179"/>
      <point x="195" y="219"/>
    </contour>
  </outline>
</glyph>
<glyph name="uni179D" format="2">
  <advance width="1500"/>
  <unicode hex="179D"/>
  <anchor x="1312" y="0" name="L"/>
  <anchor x="1312" y="1440" name="U"/>
  <outline>
    <contour>
      <point x="1012" y="586" type="line"/>
      <point x="983" y="590"/>
      <point x="967" y="604"/>
      <point x="967" y="626" type="curve" smooth="yes"/>
      <point x="967" y="645"/>
      <point x="993" y="671"/>
      <point x="1011" y="682" type="curve"/>
      <point x="993" y="694"/>
      <point x="964" y="701"/>
      <point x="926" y="701" type="curve" smooth="yes"/>
      <point x="851" y="701"/>
      <point x="776" y="649"/>
      <point x="776" y="577" type="curve" smooth="yes"/>
      <point x="776" y="472"/>
      <point x="859" y="401"/>
      <point x="1012" y="401" type="curve"/>
      <point x="1312" y="477" type="line"/>
      <point x="1419" y="527"/>
      <point x="1500" y="678"/>
      <point x="1500" y="709" type="curve" smooth="yes"/>
      <point x="1500" y="712"/>
      <point x="1496" y="716"/>
      <point x="1492" y="716" type="curve" smooth="yes"/>
      <point x="1475" y="716"/>
      <point x="1373" y="667"/>
      <point x="1312" y="639" type="curve"/>
    </contour>
    <contour>
      <point x="262" y="647" type="line"/>
      <point x="262" y="0" type="line"/>
      <point x="562" y="0" type="line"/>
      <point x="619" y="169"/>
      <point x="656" y="232"/>
      <point x="716" y="235" type="curve" smooth="yes"/>
      <point x="806" y="240"/>
      <point x="866" y="292"/>
      <point x="866" y="337" type="curve" smooth="yes"/>
      <point x="866" y="379"/>
      <point x="836" y="435"/>
      <point x="716" y="435" type="curve" smooth="yes"/>
      <point x="660" y="435"/>
      <point x="604" y="412"/>
      <point x="562" y="382" type="curve"/>
      <point x="562" y="657" type="line"/>
    </contour>
    <contour>
      <point x="754" y="1064" type="curve" smooth="yes"/>
      <point x="791" y="1064"/>
      <point x="822" y="1118"/>
      <point x="841" y="1142" type="curve" smooth="yes"/>
      <point x="865" y="1171"/>
      <point x="894" y="1206"/>
      <point x="925" y="1206" type="curve" smooth="yes"/>
      <point x="994" y="1206"/>
      <point x="1167" y="1063"/>
      <point x="1252" y="1063" type="curve" smooth="yes"/>
      <point x="1333" y="1063"/>
      <point x="1402" y="1189"/>
      <point x="1433" y="1275" type="curve"/>
      <point x="1410" y="1265"/>
      <point x="1386" y="1263"/>
      <point x="1363" y="1263" type="curve" smooth="yes"/>
      <point x="1298" y="1263"/>
      <point x="1053" y="1440"/>
      <point x="981" y="1440" type="curve" smooth="yes"/>
      <point x="957" y="1440"/>
      <point x="920" y="1419"/>
      <point x="886" y="1387" type="curve" smooth="yes"/>
      <point x="859" y="1361"/>
      <point x="829" y="1331"/>
      <point x="801" y="1298" type="curve"/>
      <point x="722" y="1323"/>
      <point x="527" y="1440"/>
      <point x="463" y="1440" type="curve" smooth="yes"/>
      <point x="299" y="1440"/>
      <point x="177" y="1235"/>
      <point x="104" y="1064" type="curve" smooth="yes"/>
      <point x="101" y="1057"/>
      <point x="100" y="1035"/>
      <point x="100" y="1029" type="curve" smooth="yes"/>
      <point x="100" y="958"/>
      <point x="178" y="902"/>
      <point x="251" y="890" type="curve"/>
      <point x="432" y="994" type="line"/>
      <point x="349" y="1010"/>
      <point x="285" y="1027"/>
      <point x="285" y="1084" type="curve" smooth="yes"/>
      <point x="285" y="1105"/>
      <point x="294" y="1129"/>
      <point x="313" y="1153" type="curve" smooth="yes"/>
      <point x="338" y="1185"/>
      <point x="362" y="1206"/>
      <point x="397" y="1206" type="curve" smooth="yes"/>
      <point x="466" y="1206"/>
      <point x="669" y="1064"/>
    </contour>
    <contour>
      <point x="562" y="580" type="line"/>
      <point x="562" y="800" type="line" smooth="yes"/>
      <point x="562" y="856"/>
      <point x="694" y="884"/>
      <point x="787" y="884" type="curve" smooth="yes"/>
      <point x="881" y="884"/>
      <point x="1012" y="856"/>
      <point x="1012" y="800" type="curve" smooth="yes"/>
      <point x="1012" y="0" type="line"/>
      <point x="1312" y="0" type="line"/>
      <point x="1312" y="819" type="line" smooth="yes"/>
      <point x="1312" y="931"/>
      <point x="1012" y="1025"/>
      <point x="787" y="1025" type="curve" smooth="yes"/>
      <point x="562" y="1025"/>
      <point x="262" y="941"/>
      <point x="262" y="819" type="curve"/>
      <point x="262" y="580" type="line"/>
    </contour>
  </outline>
</glyph>
<glyph name="uni17A1" format="2">
  <advance width="1950"/>
  <unicode hex="17A1"/>
  <anchor x="1756" y="-713" name="L"/>
  <anchor x="1756" y="1440" name="U"/>
  <outline>
    <contour>
      <point x="1462" y="919" type="curve"/>
      <point x="1462" y="-510" type="line"/>
      <point x="1451" y="-510"/>
      <point x="1399" y="-464"/>
      <point x="1357" y="-424" type="curve" smooth="yes"/>
      <point x="1309" y="-379"/>
      <point x="1267" y="-349"/>
      <point x="1237" y="-349" type="curve" smooth="yes"/>
      <point x="1207" y="-349"/>
      <point x="1165" y="-379"/>
      <point x="1117" y="-424" type="curve" smooth="yes"/>
      <point x="1075" y="-464"/>
      <point x="1023" y="-510"/>
      <point x="1012" y="-510" type="curve"/>
      <point x="1012" y="-255" type="line"/>
      <point x="982" y="-173"/>
      <point x="892" y="-150"/>
      <point x="772" y="-150" type="curve"/>
      <point x="660" y="-173"/>
      <point x="600" y="-225"/>
      <point x="600" y="-281" type="curve" smooth="yes"/>
      <point x="600" y="-334"/>
      <point x="656" y="-379"/>
      <point x="712" y="-390" type="curve"/>
      <point x="712" y="-630" type="line" smooth="yes"/>
      <point x="712" y="-668"/>
      <point x="783" y="-713"/>
      <point x="855" y="-713" type="curve" smooth="yes"/>
      <point x="937" y="-713" type="line" smooth="yes"/>
      <point x="1016" y="-713"/>
      <point x="1097" y="-666"/>
      <point x="1140" y="-626" type="curve" smooth="yes"/>
      <point x="1180" y="-589"/>
      <point x="1222" y="-555"/>
      <point x="1237" y="-555" type="curve" smooth="yes"/>
      <point x="1252" y="-555"/>
      <point x="1295" y="-589"/>
      <point x="1335" y="-626" type="curve" smooth="yes"/>
      <point x="1377" y="-664"/>
      <point x="1458" y="-713"/>
      <point x="1537" y="-713" type="curve" smooth="yes"/>
      <point x="1620" y="-713" type="line" smooth="yes"/>
      <point x="1691" y="-713"/>
      <point x="1762" y="-668"/>
      <point x="1762" y="-630" type="curve" smooth="yes"/>
      <point x="1762" y="930" type="line" smooth="yes"/>
      <point x="1762" y="995"/>
      <point x="1541" y="1094"/>
      <point x="1421" y="1134" type="curve" smooth="yes"/>
      <point x="1419" y="1135"/>
      <point x="1418" y="1136"/>
      <point x="1418" y="1138" type="curve"/>
      <point x="1421" y="1153"/>
      <point x="1428" y="1165"/>
      <point x="1446" y="1177" type="curve" smooth="yes"/>
      <point x="1454" y="1183"/>
      <point x="1464" y="1186"/>
      <point x="1474" y="1186" type="curve" smooth="yes"/>
      <point x="1563" y="1186"/>
      <point x="1627" y="1105"/>
      <point x="1732" y="1105" type="curve" smooth="yes"/>
      <point x="1808" y="1105"/>
      <point x="1860" y="1260"/>
      <point x="1883" y="1346" type="curve"/>
      <point x="1860" y="1336"/>
      <point x="1836" y="1334"/>
      <point x="1813" y="1334" type="curve" smooth="yes"/>
      <point x="1758" y="1334"/>
      <point x="1562" y="1440"/>
      <point x="1490" y="1440" type="curve" smooth="yes"/>
      <point x="1406" y="1440"/>
      <point x="1303" y="1165"/>
      <point x="1278" y="1061" type="curve"/>
      <point x="1278" y="1055"/>
      <point x="1280" y="1050"/>
      <point x="1285" y="1049" type="curve" smooth="yes"/>
      <point x="1390" y="1037"/>
      <point x="1462" y="963"/>
    </contour>
    <contour>
      <point x="727" y="213" type="line" smooth="yes"/>
      <point x="727" y="157"/>
      <point x="694" y="131"/>
      <point x="650" y="131" type="curve" smooth="yes"/>
      <point x="607" y="131"/>
      <point x="573" y="157"/>
      <point x="573" y="213" type="curve" smooth="yes"/>
      <point x="573" y="439" type="line"/>
      <point x="291" y="439" type="line"/>
      <point x="291" y="199" type="line" smooth="yes"/>
      <point x="291" y="95"/>
      <point x="422" y="0"/>
      <point x="650" y="0" type="curve" smooth="yes"/>
      <point x="882" y="0"/>
      <point x="1009" y="95"/>
      <point x="1009" y="199" type="curve" smooth="yes"/>
      <point x="1009" y="457" type="line"/>
      <point x="1158" y="468"/>
      <point x="1252" y="560"/>
      <point x="1252" y="671" type="curve" smooth="yes"/>
      <point x="1252" y="784"/>
      <point x="1139" y="870"/>
      <point x="990" y="870" type="curve" smooth="yes"/>
      <point x="799" y="870"/>
      <point x="730" y="746"/>
      <point x="727" y="634" type="curve"/>
      <point x="591" y="666"/>
      <point x="444" y="810"/>
      <point x="444" y="956" type="curve" smooth="yes"/>
      <point x="444" y="1129"/>
      <point x="541" y="1271"/>
      <point x="755" y="1271" type="curve" smooth="yes"/>
      <point x="875" y="1271"/>
      <point x="930" y="1233"/>
      <point x="930" y="1204" type="curve"/>
      <point x="911" y="1207"/>
      <point x="891" y="1211"/>
      <point x="864" y="1211" type="curve" smooth="yes"/>
      <point x="763" y="1211"/>
      <point x="687" y="1170"/>
      <point x="687" y="1095" type="curve" smooth="yes"/>
      <point x="687" y="1009"/>
      <point x="801" y="956"/>
      <point x="909" y="956" type="curve" smooth="yes"/>
      <point x="961" y="956"/>
      <point x="1032" y="966"/>
      <point x="1088" y="998" type="curve" smooth="yes"/>
      <point x="1161" y="1040"/>
      <point x="1212" y="1104"/>
      <point x="1212" y="1196" type="curve" smooth="yes"/>
      <point x="1212" y="1312"/>
      <point x="1085" y="1440"/>
      <point x="755" y="1440" type="curve" smooth="yes"/>
      <point x="376" y="1440"/>
      <point x="162" y="1260"/>
      <point x="162" y="956" type="curve" smooth="yes"/>
      <point x="162" y="664"/>
      <point x="475" y="477"/>
      <point x="727" y="457" type="curve"/>
    </contour>
    <contour>
      <point x="1009" y="606" type="line"/>
      <point x="1009" y="656" type="line" smooth="yes"/>
      <point x="1009" y="685"/>
      <point x="1024" y="720"/>
      <point x="1054" y="720" type="curve" smooth="yes"/>
      <point x="1082" y="720"/>
      <point x="1102" y="699"/>
      <point x="1102" y="671" type="curve" smooth="yes"/>
      <point x="1102" y="633"/>
      <point x="1066" y="606"/>
      <point x="1026" y="606" type="curve" smooth="yes"/>
    </contour>
  </outline>
</glyph>
<glyph name="uni17A5" format="2">
  <advance width="1500"/>
  <unicode hex="17A5"/>
  <anchor x="787" y="0" name="def"/>
  <outline>
    <component base="_curve" yScale="-1" xOffset="162" yOffset="1114"/>
    <component base="_stemMd" xOffset="912"/>
    <component base="_stemloop" xOffset="200" yOffset="20"/>
    <contour>
      <point x="271" y="1008" type="curve"/>
      <point x="338" y="1064"/>
      <point x="424" y="1099"/>
      <point x="531" y="1115" type="curve"/>
      <point x="413" y="1115"/>
      <point x="343" y="1163"/>
      <point x="343" y="1201" type="curve" smooth="yes"/>
      <point x="343" y="1263"/>
      <point x="411" y="1310"/>
      <point x="436" y="1310" type="curve" smooth="yes"/>
      <point x="504" y="1310"/>
      <point x="928" y="1134"/>
      <point x="1079" y="1134" type="curve" smooth="yes"/>
      <point x="1275" y="1134"/>
      <point x="1368" y="1271"/>
      <point x="1368" y="1416" type="curve" smooth="yes"/>
      <point x="1368" y="1580"/>
      <point x="1250" y="1754"/>
      <point x="1029" y="1754" type="curve" smooth="yes"/>
      <point x="931" y="1754"/>
      <point x="877" y="1698"/>
      <point x="877" y="1641" type="curve" smooth="yes"/>
      <point x="877" y="1463"/>
      <point x="1175" y="1548"/>
      <point x="1175" y="1426" type="curve" smooth="yes"/>
      <point x="1175" y="1387"/>
      <point x="1147" y="1360"/>
      <point x="1097" y="1360" type="curve" smooth="yes"/>
      <point x="990" y="1360"/>
      <point x="620" y="1543"/>
      <point x="466" y="1543" type="curve" smooth="yes"/>
      <point x="353" y="1543"/>
      <point x="125" y="1255"/>
      <point x="125" y="1149" type="curve" smooth="yes"/>
      <point x="125" y="1082"/>
      <point x="187" y="1032"/>
    </contour>
  </outline>
</glyph>
<glyph name="uni17AA" format="2">
  <advance width="1425"/>
  <unicode hex="17AA"/>
  <anchor x="1437" y="-190" name="NG"/>
  <anchor x="730" y="-100" name="def"/>
  <outline>
    <component base="uni17A7"/>
    <contour>
      <point x="291" y="1323" type="curve"/>
      <point x="358" y="1379"/>
      <point x="434" y="1431"/>
      <point x="521" y="1443" type="curve"/>
      <point x="423" y="1457"/>
      <point x="343" y="1508"/>
      <point x="343" y="1536" type="curve" smooth="yes"/>
      <point x="343" y="1598"/>
      <point x="411" y="1645"/>
      <point x="436" y="1645" type="curve" smooth="yes"/>
      <point x="504" y="1645"/>
      <point x="891" y="1469"/>
      <point x="1042" y="1469" type="curve" smooth="yes"/>
      <point x="1238" y="1469"/>
      <point x="1331" y="1606"/>
      <point x="1331" y="1751" type="curve" smooth="yes"/>
      <point x="1331" y="1915"/>
      <point x="1213" y="2089"/>
      <point x="992" y="2089" type="curve" smooth="yes"/>
      <point x="894" y="2089"/>
      <point x="840" y="2033"/>
      <point x="840" y="1976" type="curve" smooth="yes"/>
      <point x="840" y="1798"/>
      <point x="1138" y="1883"/>
      <point x="1138" y="1761" type="curve" smooth="yes"/>
      <point x="1138" y="1722"/>
      <point x="1110" y="1695"/>
      <point x="1060" y="1695" type="curve" smooth="yes"/>
      <point x="953" y="1695"/>
      <point x="620" y="1878"/>
      <point x="466" y="1878" type="curve" smooth="yes"/>
      <point x="353" y="1878"/>
      <point x="125" y="1590"/>
      <point x="125" y="1484" type="curve" smooth="yes"/>
      <point x="125" y="1417"/>
      <point x="207" y="1347"/>
    </contour>
  </outline>
</glyph>
<glyph name="uni17AB" format="2">
  <advance width="1500"/>
  <unicode hex="17AB"/>
  <anchor x="1312" y="-600" name="L"/>
  <anchor x="1312" y="1440" name="U"/>
  <outline>
    <contour>
      <point x="1312" y="206" type="curve"/>
      <point x="1312" y="930" type="line" smooth="yes"/>
      <point x="1312" y="995"/>
      <point x="1091" y="1094"/>
      <point x="971" y="1134" type="curve" smooth="yes"/>
      <point x="969" y="1135"/>
      <point x="968" y="1136"/>
      <point x="968" y="1138" type="curve"/>
      <point x="971" y="1153"/>
      <point x="978" y="1165"/>
      <point x="996" y="1177" type="curve" smooth="yes"/>
      <point x="1004" y="1183"/>
      <point x="1014" y="1186"/>
      <point x="1024" y="1186" type="curve" smooth="yes"/>
      <point x="1113" y="1186"/>
      <point x="1177" y="1105"/>
      <point x="1282" y="1105" type="curve" smooth="yes"/>
      <point x="1358" y="1105"/>
      <point x="1410" y="1260"/>
      <point x="1433" y="1346" type="curve"/>
      <point x="1410" y="1336"/>
      <point x="1386" y="1334"/>
      <point x="1363" y="1334" type="curve" smooth="yes"/>
      <point x="1308" y="1334"/>
      <point x="1112" y="1440"/>
      <point x="1040" y="1440" type="curve" smooth="yes"/>
      <point x="956" y="1440"/>
      <point x="853" y="1165"/>
      <point x="828" y="1061" type="curve"/>
      <point x="828" y="1055"/>
      <point x="830" y="1050"/>
      <point x="835" y="1049" type="curve" smooth="yes"/>
      <point x="940" y="1037"/>
      <point x="1012" y="963"/>
      <point x="1012" y="919" type="curve" smooth="yes"/>
      <point x="1012" y="225" type="line" smooth="yes"/>
      <point x="1012" y="169"/>
      <point x="881" y="131"/>
      <point x="787" y="131" type="curve" smooth="yes"/>
      <point x="694" y="131"/>
      <point x="562" y="169"/>
      <point x="562" y="225" type="curve" smooth="yes"/>
      <point x="562" y="930" type="line" smooth="yes"/>
      <point x="562" y="995"/>
      <point x="341" y="1094"/>
      <point x="221" y="1134" type="curve" smooth="yes"/>
      <point x="219" y="1135"/>
      <point x="218" y="1136"/>
      <point x="218" y="1138" type="curve"/>
      <point x="221" y="1153"/>
      <point x="228" y="1165"/>
      <point x="246" y="1177" type="curve" smooth="yes"/>
      <point x="254" y="1183"/>
      <point x="264" y="1186"/>
      <point x="274" y="1186" type="curve" smooth="yes"/>
      <point x="363" y="1186"/>
      <point x="427" y="1105"/>
      <point x="532" y="1105" type="curve" smooth="yes"/>
      <point x="608" y="1105"/>
      <point x="660" y="1260"/>
      <point x="683" y="1346" type="curve"/>
      <point x="660" y="1336"/>
      <point x="636" y="1334"/>
      <point x="613" y="1334" type="curve" smooth="yes"/>
      <point x="558" y="1334"/>
      <point x="362" y="1440"/>
      <point x="290" y="1440" type="curve" smooth="yes"/>
      <point x="206" y="1440"/>
      <point x="103" y="1165"/>
      <point x="78" y="1061" type="curve"/>
      <point x="78" y="1055"/>
      <point x="80" y="1050"/>
      <point x="85" y="1049" type="curve" smooth="yes"/>
      <point x="190" y="1037"/>
      <point x="262" y="963"/>
      <point x="262" y="919" type="curve" smooth="yes"/>
      <point x="262" y="206" type="line" smooth="yes"/>
      <point x="262" y="94"/>
      <point x="562" y="0"/>
      <point x="787" y="0" type="curve" smooth="yes"/>
      <point x="1012" y="0"/>
      <point x="1312" y="94"/>
    </contour>
    <contour>
      <point x="951" y="-244" type="curve" smooth="yes"/>
      <point x="951" y="-311"/>
      <point x="1004" y="-345"/>
      <point x="1079" y="-356" type="curve"/>
      <point x="1079" y="-394"/>
      <point x="1041" y="-413"/>
      <point x="1000" y="-413" type="curve" smooth="yes"/>
      <point x="882" y="-413"/>
      <point x="620" y="-150"/>
      <point x="460" y="-150" type="curve" smooth="yes"/>
      <point x="192" y="-150"/>
      <point x="105" y="-278"/>
      <point x="79" y="-409" type="curve"/>
      <point x="148" y="-346"/>
      <point x="213" y="-319"/>
      <point x="285" y="-319" type="curve" smooth="yes"/>
      <point x="445" y="-319"/>
      <point x="711" y="-600"/>
      <point x="905" y="-600" type="curve" smooth="yes"/>
      <point x="1070" y="-600"/>
      <point x="1340" y="-566"/>
      <point x="1340" y="-326" type="curve" smooth="yes"/>
      <point x="1340" y="-203"/>
      <point x="1260" y="-131"/>
      <point x="1114" y="-131" type="curve" smooth="yes"/>
      <point x="1016" y="-131"/>
      <point x="951" y="-169"/>
    </contour>
  </outline>
</glyph>
<glyph name="uni17AF" format="2">
  <advance width="1538"/>
  <unicode hex="17AF"/>
  <anchor x="1350" y="0" name="L"/>
  <anchor x="1350" y="1665" name="U"/>
  <outline>
    <contour>
      <point x="300" y="383" type="line"/>
      <point x="300" y="82" type="line" smooth="yes"/>
      <point x="300" y="41"/>
      <point x="360" y="0"/>
      <point x="420" y="0" type="curve" smooth="yes"/>
      <point x="544" y="0" type="line" smooth="yes"/>
      <point x="592" y="0"/>
      <point x="667" y="46"/>
      <point x="709" y="82" type="curve" smooth="yes"/>
      <point x="748" y="116"/>
      <point x="805" y="159"/>
      <point x="825" y="159" type="curve" smooth="yes"/>
      <point x="845" y="159"/>
      <point x="902" y="116"/>
      <point x="941" y="82" type="curve" smooth="yes"/>
      <point x="983" y="46"/>
      <point x="1057" y="0"/>
      <point x="1106" y="0" type="curve" smooth="yes"/>
      <point x="1230" y="0" type="line" smooth="yes"/>
      <point x="1290" y="0"/>
      <point x="1350" y="41"/>
      <point x="1350" y="82" type="curve" smooth="yes"/>
      <point x="1350" y="1196" type="line" smooth="yes"/>
      <point x="1350" y="1384"/>
      <point x="1031" y="1440"/>
      <point x="885" y="1440" type="curve" smooth="yes"/>
      <point x="750" y="1440"/>
      <point x="664" y="1410"/>
      <point x="581" y="1361" type="curve"/>
      <point x="581" y="1447"/>
      <point x="697" y="1526"/>
      <point x="697" y="1597" type="curve" smooth="yes"/>
      <point x="697" y="1672"/>
      <point x="592" y="1740"/>
      <point x="487" y="1740" type="curve" smooth="yes"/>
      <point x="416" y="1740"/>
      <point x="356" y="1721"/>
      <point x="334" y="1702" type="curve"/>
      <point x="394" y="1702"/>
      <point x="416" y="1627"/>
      <point x="416" y="1601" type="curve" smooth="yes"/>
      <point x="416" y="1549"/>
      <point x="300" y="1455"/>
      <point x="300" y="1361" type="curve" smooth="yes"/>
      <point x="300" y="1226"/>
      <point x="386" y="1170"/>
      <point x="484" y="1170" type="curve" smooth="yes"/>
      <point x="619" y="1170"/>
      <point x="652" y="1309"/>
      <point x="877" y="1309" type="curve" smooth="yes"/>
      <point x="952" y="1309"/>
      <point x="1050" y="1260"/>
      <point x="1050" y="1170" type="curve" smooth="yes"/>
      <point x="1050" y="274" type="line" smooth="yes"/>
      <point x="1050" y="232"/>
      <point x="1045" y="199"/>
      <point x="1035" y="199" type="curve" smooth="yes"/>
      <point x="1028" y="199"/>
      <point x="997" y="221"/>
      <point x="952" y="259" type="curve" smooth="yes"/>
      <point x="909" y="295"/>
      <point x="863" y="319"/>
      <point x="825" y="319" type="curve" smooth="yes"/>
      <point x="787" y="319"/>
      <point x="738" y="294"/>
      <point x="697" y="259" type="curve" smooth="yes"/>
      <point x="652" y="221"/>
      <point x="622" y="199"/>
      <point x="615" y="199" type="curve" smooth="yes"/>
      <point x="605" y="199"/>
      <point x="600" y="232"/>
      <point x="600" y="274" type="curve" smooth="yes"/>
      <point x="600" y="383" type="line"/>
    </contour>
    <contour>
      <point x="600" y="284" type="line"/>
      <point x="600" y="912" type="line"/>
      <point x="570" y="988"/>
      <point x="462" y="1020"/>
      <point x="347" y="1020" type="curve"/>
      <point x="181" y="989"/>
      <point x="73" y="859"/>
      <point x="73" y="730" type="curve" smooth="yes"/>
      <point x="73" y="606"/>
      <point x="170" y="488"/>
      <point x="300" y="465" type="curve"/>
      <point x="300" y="278" type="line"/>
    </contour>
    <contour>
      <point x="195" y="730" type="curve" smooth="yes"/>
      <point x="195" y="801"/>
      <point x="249" y="841"/>
      <point x="300" y="863" type="curve"/>
      <point x="300" y="562" type="line"/>
      <point x="234" y="581"/>
      <point x="195" y="657"/>
    </contour>
  </outline>
</glyph>
<glyph name="uni17B1" format="2">
  <advance width="1425"/>
  <unicode hex="17B1"/>
  <anchor x="1437" y="-190" name="NG"/>
  <anchor x="730" y="-100" name="def"/>
  <outline>
    <component base="uni17A7"/>
    <contour>
      <point x="493" y="1860" type="curve" smooth="yes"/>
      <point x="400" y="1860"/>
      <point x="138" y="1574"/>
      <point x="138" y="1483" type="curve" smooth="yes"/>
      <point x="138" y="1408"/>
      <point x="218" y="1344"/>
      <point x="291" y="1325" type="curve"/>
      <point x="380" y="1393"/>
      <point x="458" y="1434"/>
      <point x="527" y="1442" type="curve"/>
      <point x="426" y="1476"/>
      <point x="357" y="1512"/>
      <point x="357" y="1548" type="curve" smooth="yes"/>
      <point x="357" y="1571"/>
      <point x="414" y="1626"/>
      <point x="457" y="1626" type="curve" smooth="yes"/>
      <point x="593" y="1626"/>
      <point x="829" y="1454"/>
      <point x="1084" y="1454" type="curve" smooth="yes"/>
      <point x="1195" y="1454"/>
      <point x="1256" y="1589"/>
      <point x="1265" y="1675" type="curve"/>
      <point x="1246" y="1665"/>
      <point x="1232" y="1663"/>
      <point x="1195" y="1663" type="curve" smooth="yes"/>
      <point x="966" y="1663"/>
      <point x="665" y="1860"/>
    </contour>
  </outline>
</glyph>
<glyph name="uni17B3" format="2">
  <advance width="1425"/>
  <unicode hex="17B3"/>
  <anchor x="1437" y="-190" name="NG"/>
  <anchor x="730" y="-100" name="def"/>
  <outline>
    <component base="uni17A7"/>
    <contour>
      <point x="1066" y="1453" type="curve" smooth="yes"/>
      <point x="1148" y="1453"/>
      <point x="1262" y="1567"/>
      <point x="1262" y="1622" type="curve" smooth="yes"/>
      <point x="1262" y="1798"/>
      <point x="1291" y="1858"/>
      <point x="1400" y="1933" type="curve"/>
      <point x="1385" y="1935"/>
      <point x="1369" y="1936"/>
      <point x="1354" y="1936" type="curve" smooth="yes"/>
      <point x="1203" y="1936"/>
      <point x="1071" y="1869"/>
      <point x="1071" y="1741" type="curve" smooth="yes"/>
      <point x="1071" y="1697"/>
      <point x="1048" y="1688"/>
      <point x="1033" y="1688" type="curve" smooth="yes"/>
      <point x="949" y="1688"/>
      <point x="629" y="1860"/>
      <point x="493" y="1860" type="curve" smooth="yes"/>
      <point x="400" y="1860"/>
      <point x="138" y="1574"/>
      <point x="138" y="1483" type="curve" smooth="yes"/>
      <point x="138" y="1408"/>
      <point x="218" y="1344"/>
      <point x="291" y="1325" type="curve"/>
      <point x="380" y="1393"/>
      <point x="458" y="1434"/>
      <point x="527" y="1442" type="curve"/>
      <point x="426" y="1476"/>
      <point x="357" y="1512"/>
      <point x="357" y="1548" type="curve" smooth="yes"/>
      <point x="357" y="1571"/>
      <point x="414" y="1626"/>
      <point x="457" y="1626" type="curve" smooth="yes"/>
      <point x="588" y="1626"/>
      <point x="868" y="1453"/>
    </contour>
  </outline>
</glyph>
<glyph name="uni17B8" format="2">
  <unicode hex="17B8"/>
  <anchor x="0" y="400" name="A0"/>
  <anchor x="-700" y="0" name="_H"/>
  <outline>
    <component base="uni17B7"/>
    <contour>
      <point x="-339" y="1740" type="curve"/>
      <point x="-201" y="1628" type="line"/>
      <point x="-111" y="1767"/>
      <point x="-82" y="1863"/>
      <point x="-82" y="1960" type="curve" smooth="yes"/>
      <point x="-82" y="2111"/>
      <point x="-191" y="2235"/>
      <point x="-326" y="2235" type="curve" smooth="yes"/>
      <point x="-413" y="2235"/>
      <point x="-451" y="2186"/>
      <point x="-451" y="2128" type="curve" smooth="yes"/>
      <point x="-451" y="2023"/>
      <point x="-289" y="1998"/>
      <point x="-289" y="1885" type="curve" smooth="yes"/>
      <point x="-289" y="1845"/>
      <point x="-303" y="1815"/>
    </contour>
  </outline>
</glyph>
<glyph name="uni17CA" format="2">
  <unicode hex="17CA"/>
  <anchor x="0" y="80" name="A0"/>
  <anchor x="-700" y="0" name="_H"/>
  <anchor x="20" y="1000" name="_UR"/>
  <anchor x="0" y="0" name="_def"/>
  <outline>
    <contour>
      <point x="-747" y="1610" type="curve" smooth="yes"/>
      <point x="-674" y="1610"/>
      <point x="-605" y="1714"/>
      <point x="-544" y="1714" type="curve" smooth="yes"/>
      <point x="-515" y="1714"/>
      <point x="-360" y="1610"/>
      <point x="-245" y="1610" type="curve" smooth="yes"/>
      <point x="-154" y="1610"/>
      <point x="-79" y="1692"/>
      <point x="-76" y="1815" type="curve"/>
      <point x="-104" y="1806"/>
      <point x="-117" y="1805"/>
      <point x="-130" y="1805" type="curve" smooth="yes"/>
      <point x="-259" y="1805"/>
      <point x="-438" y="1931"/>
      <point x="-490" y="1931" type="curve" smooth="yes"/>
      <point x="-565" y="1931"/>
      <point x="-666" y="1805"/>
      <point x="-690" y="1805" type="curve" smooth="yes"/>
      <point x="-748" y="1805"/>
      <point x="-914" y="1931"/>
      <point x="-968" y="1931" type="curve" smooth="yes"/>
      <point x="-1061" y="1931"/>
      <point x="-1303" y="1709"/>
      <point x="-1303" y="1633" type="curve" smooth="yes"/>
      <point x="-1303" y="1591"/>
      <point x="-1253" y="1537"/>
      <point x="-1160" y="1513" type="curve"/>
      <point x="-1116" y="1538"/>
      <point x="-1004" y="1595"/>
      <point x="-964" y="1610" type="curve"/>
      <point x="-1055" y="1639"/>
      <point x="-1106" y="1646"/>
      <point x="-1106" y="1676" type="curve" smooth="yes"/>
      <point x="-1106" y="1692"/>
      <point x="-1055" y="1714"/>
      <point x="-1022" y="1714" type="curve" smooth="yes"/>
      <point x="-985" y="1714"/>
      <point x="-832" y="1610"/>
    </contour>
  </outline>
</glyph>
<glyph name="uni17D1" format="2">
  <unicode hex="17D1"/>
  <anchor x="-188" y="1702" name="U"/>
  <anchor x="-188" y="1440" name="_U"/>
  <outline>
    <contour>
      <point x="-1238" y="1590" type="line"/>
      <point x="-188" y="1590" type="line"/>
      <point x="-188" y="1777" type="line"/>
      <point x="-1238" y="1777" type="line"/>
    </contour>
  </outline>
</glyph>
<glyph name="uni17DD" format="2">
  <unicode hex="17DD"/>
  <guideline x="0" y="1068" angle="333.895"/>
  <anchor x="-188" y="1987" name="U"/>
  <anchor x="-188" y="1440" name="_U"/>
  <anchor x="-713" y="1440" name="_UM"/>
  <outline>
    <contour>
      <point x="-713" y="2040" type="curve" smooth="yes"/>
      <point x="-993" y="2040"/>
      <point x="-1219" y="1843"/>
      <point x="-1286" y="1701" type="curve" smooth="yes"/>
      <point x="-1336" y="1598"/>
      <point x="-1183" y="1521"/>
      <point x="-1127" y="1623" type="curve" smooth="yes"/>
      <point x="-1064" y="1737"/>
      <point x="-873" y="1830"/>
      <point x="-713" y="1830" type="curve" smooth="yes"/>
      <point x="-553" y="1830"/>
      <point x="-361" y="1737"/>
      <point x="-299" y="1623" type="curve" smooth="yes"/>
      <point x="-243" y="1521"/>
      <point x="-90" y="1598"/>
      <point x="-140" y="1701" type="curve" smooth="yes"/>
      <point x="-206" y="1842"/>
      <point x="-433" y="2040"/>
    </contour>
  </outline>
</glyph>
<glyph name="uni17E5" format="2">
  <advance width="1350"/>
  <unicode hex="17E5"/>
  <outline>
    <contour>
      <point x="140" y="536" type="curve" smooth="yes"/>
      <point x="140" y="139"/>
      <point x="305" y="0"/>
      <point x="455" y="0" type="curve"/>
      <point x="497" y="0"/>
      <point x="575" y="6"/>
      <point x="617" y="15" type="curve" smooth="yes"/>
      <point x="654" y="23"/>
      <point x="695" y="30"/>
      <point x="718" y="30" type="curve"/>
      <point x="759" y="30"/>
      <point x="808" y="23"/>
      <point x="860" y="15" type="curve" smooth="yes"/>
      <point x="909" y="8"/>
      <point x="958" y="0"/>
      <point x="1010" y="0" type="curve"/>
      <point x="1115" y="0"/>
      <point x="1142" y="41"/>
      <point x="1142" y="60" type="curve"/>
      <point x="1142" y="112"/>
      <point x="1082" y="176"/>
      <point x="1009" y="243" type="curve"/>
      <point x="962" y="285"/>
      <point x="913" y="330"/>
      <point x="902" y="401" type="curve"/>
      <point x="935" y="382"/>
      <point x="980" y="371"/>
      <point x="1033" y="371" type="curve"/>
      <point x="1130" y="371"/>
      <point x="1209" y="412"/>
      <point x="1209" y="521" type="curve"/>
      <point x="1209" y="626"/>
      <point x="1108" y="727"/>
      <point x="954" y="727" type="curve"/>
      <point x="744" y="727"/>
      <point x="628" y="600"/>
      <point x="628" y="442" type="curve"/>
      <point x="628" y="356"/>
      <point x="688" y="266"/>
      <point x="782" y="176" type="curve"/>
      <point x="752" y="176"/>
      <point x="722" y="180"/>
      <point x="703" y="180" type="curve"/>
      <point x="654" y="180"/>
      <point x="572" y="161"/>
      <point x="538" y="161" type="curve"/>
      <point x="470" y="161"/>
      <point x="440" y="337"/>
      <point x="440" y="499" type="curve" smooth="yes"/>
      <point x="440" y="746"/>
      <point x="572" y="911"/>
      <point x="650" y="1001" type="curve"/>
      <point x="992" y="1001"/>
      <point x="1160" y="1035"/>
      <point x="1160" y="1241" type="curve"/>
      <point x="1160" y="1271"/>
      <point x="1145" y="1327"/>
      <point x="1130" y="1380" type="curve"/>
      <point x="1115" y="1432"/>
      <point x="1100" y="1485"/>
      <point x="1100" y="1511" type="curve"/>
      <point x="1100" y="1594"/>
      <point x="1138" y="1676"/>
      <point x="1217" y="1676" type="curve"/>
      <point x="1168" y="1732"/>
      <point x="1134" y="1770"/>
      <point x="1018" y="1770" type="curve"/>
      <point x="890" y="1770"/>
      <point x="815" y="1594"/>
      <point x="815" y="1492" type="curve"/>
      <point x="815" y="1455"/>
      <point x="825" y="1410"/>
      <point x="838" y="1365" type="curve" smooth="yes"/>
      <point x="851" y="1320"/>
      <point x="860" y="1279"/>
      <point x="860" y="1245" type="curve"/>
      <point x="860" y="1189"/>
      <point x="804" y="1166"/>
      <point x="740" y="1159" type="curve"/>
      <point x="755" y="1185"/>
      <point x="759" y="1207"/>
      <point x="759" y="1234" type="curve"/>
      <point x="759" y="1395"/>
      <point x="620" y="1477"/>
      <point x="478" y="1477" type="curve"/>
      <point x="335" y="1477"/>
      <point x="196" y="1395"/>
      <point x="196" y="1234" type="curve"/>
      <point x="196" y="1129"/>
      <point x="253" y="1072"/>
      <point x="347" y="1020" type="curve"/>
      <point x="305" y="971"/>
      <point x="140" y="750"/>
    </contour>
    <contour>
      <point x="420" y="1238" type="curve" smooth="yes"/>
      <point x="420" y="1278"/>
      <point x="443" y="1308"/>
      <point x="478" y="1308" type="curve"/>
      <point x="513" y="1308"/>
      <point x="536" y="1278"/>
      <point x="536" y="1238" type="curve"/>
      <point x="536" y="1203"/>
      <point x="505" y="1169"/>
      <point x="478" y="1162" type="curve"/>
      <point x="452" y="1169"/>
      <point x="420" y="1203"/>
    </contour>
  </outline>
</glyph>
<glyph name="uni19E1" format="2">
  <advance width="1390"/>
  <unicode hex="19E1"/>
  <guideline y="637"/>
  <guideline x="750"/>
  <outline>
    <contour>
      <point x="552" y="1278" type="curve" smooth="yes"/>
      <point x="732" y="1278"/>
      <point x="870" y="1417"/>
      <point x="870" y="1529" type="curve"/>
      <point x="870" y="1664"/>
      <point x="777" y="1721"/>
      <point x="676" y="1721" type="curve" smooth="yes"/>
      <point x="556" y="1721"/>
      <point x="520" y="1642"/>
      <point x="520" y="1589" type="curve" smooth="yes"/>
      <point x="520" y="1522"/>
      <point x="549" y="1496"/>
      <point x="605" y="1477" type="curve"/>
      <point x="605" y="1446"/>
      <point x="579" y="1428"/>
      <point x="556" y="1428" type="curve"/>
      <point x="489" y="1428"/>
      <point x="432" y="1522"/>
      <point x="432" y="1642" type="curve" smooth="yes"/>
      <point x="432" y="1845"/>
      <point x="544" y="1927"/>
      <point x="676" y="1927" type="curve" smooth="yes"/>
      <point x="830" y="1927"/>
      <point x="957" y="1813"/>
      <point x="957" y="1417" type="curve" smooth="yes"/>
      <point x="957" y="1028"/>
      <point x="679" y="731"/>
      <point x="387" y="731" type="curve" smooth="yes"/>
      <point x="364" y="731" type="line" smooth="yes"/>
      <point x="336" y="731"/>
      <point x="285" y="734"/>
      <point x="249" y="746" type="curve"/>
      <point x="300" y="682"/>
      <point x="437" y="637"/>
      <point x="541" y="637" type="curve"/>
      <point x="845" y="637"/>
      <point x="1257" y="933"/>
      <point x="1257" y="1398" type="curve" smooth="yes"/>
      <point x="1257" y="1886"/>
      <point x="1009" y="2077"/>
      <point x="676" y="2077" type="curve" smooth="yes"/>
      <point x="339" y="2077"/>
      <point x="132" y="1882"/>
      <point x="132" y="1661" type="curve" smooth="yes"/>
      <point x="132" y="1432"/>
      <point x="291" y="1278"/>
    </contour>
    <contour>
      <point x="736" y="-1200" type="line"/>
      <point x="1111" y="-1200" type="line" name="hr01"/>
      <point x="1111" y="240" type="line"/>
      <point x="736" y="240" type="line"/>
      <point x="736" y="155"/>
      <point x="650" y="-71"/>
      <point x="549" y="-71" type="curve"/>
      <point x="497" y="-71"/>
      <point x="477" y="-26"/>
      <point x="477" y="0" type="curve"/>
      <point x="552" y="21"/>
      <point x="620" y="71"/>
      <point x="620" y="150" type="curve"/>
      <point x="620" y="225"/>
      <point x="553" y="296"/>
      <point x="417" y="296" type="curve" smooth="yes"/>
      <point x="286" y="296"/>
      <point x="155" y="214"/>
      <point x="155" y="37" type="curve" smooth="yes"/>
      <point x="155" y="-95"/>
      <point x="289" y="-229"/>
      <point x="489" y="-229" type="curve" smooth="yes"/>
      <point x="576" y="-229"/>
      <point x="668" y="-191"/>
      <point x="736" y="-131" type="curve"/>
    </contour>
  </outline>
</glyph>
<glyph name="uni19E2" format="2">
  <advance width="1840"/>
  <unicode hex="19E2"/>
  <outline>
    <contour>
      <point x="607" y="1213" type="line"/>
      <point x="636" y="1126"/>
      <point x="762" y="1104"/>
      <point x="847" y="1104" type="curve"/>
      <point x="1046" y="1141"/>
      <point x="1132" y="1306"/>
      <point x="1132" y="1396" type="curve"/>
      <point x="1132" y="1506"/>
      <point x="1015" y="1558"/>
      <point x="907" y="1574" type="curve"/>
      <point x="907" y="1762" type="line"/>
      <point x="907" y="1797"/>
      <point x="915" y="1867"/>
      <point x="934" y="1867" type="curve" smooth="yes"/>
      <point x="967" y="1867"/>
      <point x="1121" y="1709"/>
      <point x="1132" y="1709" type="curve" smooth="yes"/>
      <point x="1144" y="1709"/>
      <point x="1297" y="1871"/>
      <point x="1331" y="1871" type="curve" smooth="yes"/>
      <point x="1350" y="1871"/>
      <point x="1357" y="1796"/>
      <point x="1357" y="1762" type="curve" smooth="yes"/>
      <point x="1357" y="851" type="line" smooth="yes"/>
      <point x="1357" y="802"/>
      <point x="1035" y="768"/>
      <point x="926" y="768" type="curve" smooth="yes"/>
      <point x="814" y="768"/>
      <point x="495" y="802"/>
      <point x="495" y="851" type="curve" smooth="yes"/>
      <point x="495" y="2043" type="line" smooth="yes"/>
      <point x="495" y="2291"/>
      <point x="356" y="2407"/>
      <point x="135" y="2407" type="curve" smooth="yes"/>
      <point x="26" y="2407"/>
      <point x="-52" y="2321"/>
      <point x="-68" y="2257" type="curve"/>
      <point x="-29" y="2280"/>
      <point x="11" y="2302"/>
      <point x="64" y="2302" type="curve"/>
      <point x="154" y="2302"/>
      <point x="195" y="2187"/>
      <point x="195" y="2024" type="curve" smooth="yes"/>
      <point x="195" y="813" type="line" smooth="yes"/>
      <point x="195" y="708"/>
      <point x="659" y="637"/>
      <point x="926" y="637" type="curve" smooth="yes"/>
      <point x="1196" y="637"/>
      <point x="1657" y="708"/>
      <point x="1657" y="813" type="curve" smooth="yes"/>
      <point x="1657" y="1807" type="line" smooth="yes"/>
      <point x="1657" y="1904"/>
      <point x="1500" y="2077"/>
      <point x="1376" y="2077" type="curve" smooth="yes"/>
      <point x="1324" y="2077"/>
      <point x="1275" y="2043"/>
      <point x="1222" y="2002" type="curve"/>
      <point x="1189" y="1975"/>
      <point x="1155" y="1946"/>
      <point x="1132" y="1923" type="curve"/>
      <point x="1109" y="1946"/>
      <point x="1077" y="1975"/>
      <point x="1042" y="2002" type="curve"/>
      <point x="990" y="2043"/>
      <point x="937" y="2077"/>
      <point x="889" y="2077" type="curve" smooth="yes"/>
      <point x="765" y="2077"/>
      <point x="607" y="1904"/>
      <point x="607" y="1807" type="curve" smooth="yes"/>
    </contour>
    <contour>
      <point x="946" y="-1200" type="line"/>
      <point x="1321" y="-1200" type="line"/>
      <point x="1321" y="240" type="line"/>
      <point x="946" y="240" type="line"/>
      <point x="946" y="155"/>
      <point x="860" y="-71"/>
      <point x="759" y="-71" type="curve"/>
      <point x="707" y="-71"/>
      <point x="687" y="-26"/>
      <point x="687" y="0" type="curve"/>
      <point x="762" y="21"/>
      <point x="830" y="71"/>
      <point x="830" y="150" type="curve"/>
      <point x="830" y="225"/>
      <point x="763" y="296"/>
      <point x="627" y="296" type="curve" smooth="yes"/>
      <point x="496" y="296"/>
      <point x="365" y="214"/>
      <point x="365" y="37" type="curve" smooth="yes"/>
      <point x="365" y="-95"/>
      <point x="499" y="-229"/>
      <point x="699" y="-229" type="curve" smooth="yes"/>
      <point x="786" y="-229"/>
      <point x="878" y="-191"/>
      <point x="946" y="-131" type="curve"/>
    </contour>
    <contour>
      <point x="1027" y="1396" type="curve" smooth="yes"/>
      <point x="1027" y="1345"/>
      <point x="959" y="1270"/>
      <point x="907" y="1254" type="curve"/>
      <point x="907" y="1488" type="line"/>
      <point x="955" y="1485"/>
      <point x="1027" y="1452"/>
    </contour>
  </outline>
  <guideline angle="90" x="937" y="0"/>
</glyph>
<glyph name="uni19E3" format="2">
  <advance width="1840"/>
  <unicode hex="19E3"/>
  <outline>
    <contour>
      <point x="170" y="743" type="line"/>
      <point x="199" y="656"/>
      <point x="325" y="634"/>
      <point x="410" y="634" type="curve"/>
      <point x="609" y="671"/>
      <point x="695" y="836"/>
      <point x="695" y="926" type="curve"/>
      <point x="695" y="1036"/>
      <point x="578" y="1088"/>
      <point x="470" y="1104" type="curve"/>
      <point x="470" y="1871" type="line"/>
      <point x="470" y="1916"/>
      <point x="560" y="1946"/>
      <point x="620" y="1946" type="curve" smooth="yes"/>
      <point x="680" y="1946"/>
      <point x="770" y="1916"/>
      <point x="770" y="1871" type="curve" smooth="yes"/>
      <point x="770" y="637" type="line"/>
      <point x="1070" y="637" type="line"/>
      <point x="1070" y="1871" type="line"/>
      <point x="1070" y="1916"/>
      <point x="1160" y="1946"/>
      <point x="1220" y="1946" type="curve" smooth="yes"/>
      <point x="1280" y="1946"/>
      <point x="1370" y="1916"/>
      <point x="1370" y="1871" type="curve" smooth="yes"/>
      <point x="1370" y="637" type="line"/>
      <point x="1670" y="637" type="line"/>
      <point x="1670" y="1889" type="line"/>
      <point x="1670" y="1983"/>
      <point x="1425" y="2077"/>
      <point x="1220" y="2077" type="curve" smooth="yes"/>
      <point x="1107" y="2077"/>
      <point x="1000" y="2059"/>
      <point x="920" y="2024" type="curve"/>
      <point x="840" y="2059"/>
      <point x="733" y="2077"/>
      <point x="620" y="2077" type="curve"/>
      <point x="415" y="2077"/>
      <point x="170" y="1983"/>
      <point x="170" y="1889" type="curve" smooth="yes"/>
    </contour>
    <contour>
      <point x="926" y="-1200" type="line" name="hr01"/>
      <point x="1301" y="-1200" type="line"/>
      <point x="1301" y="240" type="line"/>
      <point x="926" y="240" type="line"/>
      <point x="926" y="155"/>
      <point x="840" y="-71"/>
      <point x="739" y="-71" type="curve"/>
      <point x="687" y="-71"/>
      <point x="667" y="-26"/>
      <point x="667" y="0" type="curve"/>
      <point x="742" y="21"/>
      <point x="810" y="71"/>
      <point x="810" y="150" type="curve"/>
      <point x="810" y="225"/>
      <point x="743" y="296"/>
      <point x="607" y="296" type="curve" smooth="yes"/>
      <point x="476" y="296"/>
      <point x="345" y="214"/>
      <point x="345" y="37" type="curve" smooth="yes"/>
      <point x="345" y="-95"/>
      <point x="479" y="-229"/>
      <point x="679" y="-229" type="curve" smooth="yes"/>
      <point x="766" y="-229"/>
      <point x="858" y="-191"/>
      <point x="926" y="-131" type="curve"/>
    </contour>
    <contour>
      <point x="590" y="926" type="curve" smooth="yes"/>
      <point x="590" y="875"/>
      <point x="522" y="800"/>
      <point x="470" y="784" type="curve"/>
      <point x="470" y="1018" type="line"/>
      <point x="518" y="1015"/>
      <point x="590" y="982"/>
    </contour>
  </outline>
  <guideline angle="90" x="900" y="0"/>
</glyph>
<glyph name="uni19E4" format="2">
  <advance width="1390"/>
  <unicode hex="19E4"/>
  <guideline x="750" y="0" angle="90"/>
  <outline>
    <contour>
      <point x="1063" y="1008" type="curve" smooth="yes"/>
      <point x="1159" y="1008"/>
      <point x="1239" y="1049"/>
      <point x="1239" y="1158" type="curve"/>
      <point x="1239" y="1263"/>
      <point x="1139" y="1364"/>
      <point x="984" y="1364" type="curve" smooth="yes"/>
      <point x="774" y="1364"/>
      <point x="658" y="1236"/>
      <point x="658" y="1079" type="curve" smooth="yes"/>
      <point x="658" y="992"/>
      <point x="717" y="904"/>
      <point x="812" y="813" type="curve"/>
      <point x="783" y="813"/>
      <point x="732" y="817"/>
      <point x="714" y="817" type="curve"/>
      <point x="673" y="817"/>
      <point x="610" y="798"/>
      <point x="568" y="798" type="curve" smooth="yes"/>
      <point x="499" y="798"/>
      <point x="470" y="933"/>
      <point x="470" y="1057" type="curve" smooth="yes"/>
      <point x="470" y="1272"/>
      <point x="714" y="1528"/>
      <point x="854" y="1648" type="curve" smooth="yes"/>
      <point x="977" y="1755"/>
      <point x="1138" y="1919"/>
      <point x="1138" y="2088" type="curve" smooth="yes"/>
      <point x="1138" y="2192"/>
      <point x="1078" y="2317"/>
      <point x="947" y="2368" type="curve" smooth="yes"/>
      <point x="912" y="2381"/>
      <point x="868" y="2396"/>
      <point x="812" y="2396" type="curve" smooth="yes"/>
      <point x="777" y="2396"/>
      <point x="756" y="2392"/>
      <point x="733" y="2384" type="curve"/>
      <point x="815" y="2347"/>
      <point x="842" y="2222"/>
      <point x="842" y="2148" type="curve"/>
      <point x="842" y="2015"/>
      <point x="658" y="1857"/>
      <point x="537" y="1748" type="curve" smooth="yes"/>
      <point x="369" y="1596"/>
      <point x="170" y="1346"/>
      <point x="170" y="1128" type="curve" smooth="yes"/>
      <point x="170" y="772"/>
      <point x="335" y="637"/>
      <point x="485" y="637" type="curve" smooth="yes"/>
      <point x="527" y="637"/>
      <point x="604" y="644"/>
      <point x="647" y="652" type="curve"/>
      <point x="684" y="660"/>
      <point x="725" y="667"/>
      <point x="748" y="667" type="curve"/>
      <point x="789" y="667"/>
      <point x="838" y="660"/>
      <point x="890" y="651" type="curve" smooth="yes"/>
      <point x="939" y="643"/>
      <point x="988" y="637"/>
      <point x="1040" y="637" type="curve" smooth="yes"/>
      <point x="1144" y="637"/>
      <point x="1172" y="677"/>
      <point x="1172" y="697" type="curve" smooth="yes"/>
      <point x="1172" y="749"/>
      <point x="1112" y="813"/>
      <point x="1039" y="880" type="curve" smooth="yes"/>
      <point x="992" y="922"/>
      <point x="943" y="967"/>
      <point x="932" y="1038" type="curve"/>
      <point x="965" y="1019"/>
      <point x="1010" y="1008"/>
    </contour>
    <contour>
      <point x="786" y="-1200" type="line"/>
      <point x="1161" y="-1200" type="line" name="hr01"/>
      <point x="1161" y="240" type="line"/>
      <point x="786" y="240" type="line"/>
      <point x="786" y="155"/>
      <point x="700" y="-71"/>
      <point x="599" y="-71" type="curve"/>
      <point x="547" y="-71"/>
      <point x="527" y="-26"/>
      <point x="527" y="0" type="curve"/>
      <point x="602" y="21"/>
      <point x="670" y="71"/>
      <point x="670" y="150" type="curve"/>
      <point x="670" y="225"/>
      <point x="603" y="296"/>
      <point x="467" y="296" type="curve" smooth="yes"/>
      <point x="336" y="296"/>
      <point x="205" y="214"/>
      <point x="205" y="37" type="curve" smooth="yes"/>
      <point x="205" y="-95"/>
      <point x="339" y="-229"/>
      <point x="539" y="-229" type="curve" smooth="yes"/>
      <point x="626" y="-229"/>
      <point x="718" y="-191"/>
      <point x="786" y="-131" type="curve"/>
    </contour>
  </outline>
</glyph>
<glyph name="uni19E8" format="2">
  <advance width="1390"/>
  <unicode hex="19E8"/>
  <guideline x="750"/>
  <outline>
    <contour>
      <point x="160" y="1169" type="curve" smooth="yes"/>
      <point x="160" y="773"/>
      <point x="329" y="637"/>
      <point x="479" y="637" type="curve"/>
      <point x="583" y="637"/>
      <point x="685" y="681"/>
      <point x="723" y="719" type="curve"/>
      <point x="760" y="682"/>
      <point x="862" y="637"/>
      <point x="967" y="637" type="curve"/>
      <point x="1147" y="637"/>
      <point x="1248" y="843"/>
      <point x="1248" y="1042" type="curve" smooth="yes"/>
      <point x="1248" y="1218"/>
      <point x="1138" y="1372"/>
      <point x="925" y="1372" type="curve" smooth="yes"/>
      <point x="772" y="1372"/>
      <point x="659" y="1277"/>
      <point x="659" y="1173" type="curve" smooth="yes"/>
      <point x="659" y="1113"/>
      <point x="698" y="1008"/>
      <point x="847" y="1008" type="curve" smooth="yes"/>
      <point x="894" y="1008"/>
      <point x="934" y="1017"/>
      <point x="967" y="1034" type="curve"/>
      <point x="967" y="959"/>
      <point x="937" y="813"/>
      <point x="873" y="813" type="curve"/>
      <point x="820" y="813"/>
      <point x="779" y="832"/>
      <point x="723" y="899" type="curve"/>
      <point x="667" y="832"/>
      <point x="625" y="809"/>
      <point x="573" y="809" type="curve"/>
      <point x="494" y="809"/>
      <point x="460" y="993"/>
      <point x="460" y="1151" type="curve" smooth="yes"/>
      <point x="460" y="1514"/>
      <point x="539" y="1608"/>
      <point x="595" y="1608" type="curve" smooth="yes"/>
      <point x="733" y="1608"/>
      <point x="788" y="1541" name="hr01"/>
      <point x="918" y="1541" type="curve" smooth="yes"/>
      <point x="1102" y="1541"/>
      <point x="1218" y="1691"/>
      <point x="1218" y="1874" type="curve" smooth="yes"/>
      <point x="1218" y="1961"/>
      <point x="1158" y="2048"/>
      <point x="1158" y="2144" type="curve" smooth="yes"/>
      <point x="1158" y="2227"/>
      <point x="1195" y="2309"/>
      <point x="1274" y="2309" type="curve"/>
      <point x="1228" y="2366"/>
      <point x="1187" y="2403"/>
      <point x="1075" y="2403" type="curve"/>
      <point x="948" y="2403"/>
      <point x="865" y="2261" name="hr02"/>
      <point x="865" y="2126" type="curve" smooth="yes"/>
      <point x="865" y="2062"/>
      <point x="918" y="1984" name="hr03"/>
      <point x="918" y="1901" type="curve" smooth="yes"/>
      <point x="918" y="1821"/>
      <point x="910" y="1758"/>
      <point x="850" y="1758" type="curve" smooth="yes"/>
      <point x="738" y="1758"/>
      <point x="704" y="1814" name="hr04"/>
      <point x="550" y="1814" type="curve" smooth="yes"/>
      <point x="419" y="1814"/>
      <point x="160" y="1672"/>
    </contour>
    <contour>
      <point x="786" y="-1200" type="line"/>
      <point x="1161" y="-1200" type="line"/>
      <point x="1161" y="240" type="line"/>
      <point x="786" y="240" type="line"/>
      <point x="786" y="155"/>
      <point x="700" y="-71"/>
      <point x="599" y="-71" type="curve"/>
      <point x="547" y="-71"/>
      <point x="527" y="-26"/>
      <point x="527" y="0" type="curve"/>
      <point x="602" y="21"/>
      <point x="670" y="71"/>
      <point x="670" y="150" type="curve"/>
      <point x="670" y="225"/>
      <point x="603" y="296"/>
      <point x="467" y="296" type="curve" smooth="yes"/>
      <point x="336" y="296"/>
      <point x="205" y="214"/>
      <point x="205" y="37" type="curve" smooth="yes"/>
      <point x="205" y="-95"/>
      <point x="339" y="-229"/>
      <point x="539" y="-229" type="curve" smooth="yes"/>
      <point x="626" y="-229"/>
      <point x="718" y="-191"/>
      <point x="786" y="-131" type="curve"/>
    </contour>
  </outline>
</glyph>
<glyph name="uni19E9" format="2">
  <advance width="1390"/>
  <unicode hex="19E9"/>
  <guideline x="750"/>
  <outline>
    <contour>
      <point x="171" y="1117" type="curve" smooth="yes"/>
      <point x="171" y="865"/>
      <point x="404" y="637"/>
      <point x="745" y="637" type="curve"/>
      <point x="1025" y="637"/>
      <point x="1240" y="768"/>
      <point x="1240" y="993" type="curve" smooth="yes"/>
      <point x="1240" y="1157"/>
      <point x="1116" y="1259"/>
      <point x="917" y="1259" type="curve" smooth="yes"/>
      <point x="764" y="1259"/>
      <point x="655" y="1169"/>
      <point x="655" y="1053" type="curve" smooth="yes"/>
      <point x="655" y="952"/>
      <point x="722" y="884"/>
      <point x="839" y="884" type="curve" smooth="yes"/>
      <point x="876" y="884"/>
      <point x="909" y="888"/>
      <point x="940" y="903" type="curve"/>
      <point x="913" y="839"/>
      <point x="842" y="802"/>
      <point x="745" y="802" type="curve"/>
      <point x="569" y="802"/>
      <point x="471" y="944"/>
      <point x="471" y="1117" type="curve" smooth="yes"/>
      <point x="471" y="1286"/>
      <point x="580" y="1421"/>
      <point x="711" y="1421" type="curve" smooth="yes"/>
      <point x="778" y="1421"/>
      <point x="840" y="1383"/>
      <point x="872" y="1357" type="curve"/>
      <point x="903" y="1334"/>
      <point x="936" y="1319"/>
      <point x="996" y="1319" type="curve"/>
      <point x="1064" y="1319"/>
      <point x="1124" y="1353"/>
      <point x="1124" y="1394" type="curve" smooth="yes"/>
      <point x="1124" y="1463"/>
      <point x="970" y="1563"/>
      <point x="800" y="1600" type="curve" smooth="yes"/>
      <point x="737" y="1613"/>
      <point x="622" y="1702" name="hr01"/>
      <point x="622" y="1784" type="curve" smooth="yes"/>
      <point x="622" y="1829"/>
      <point x="655" y="1886"/>
      <point x="719" y="1886" type="curve" smooth="yes"/>
      <point x="809" y="1886"/>
      <point x="884" y="1739"/>
      <point x="1004" y="1739" type="curve" smooth="yes"/>
      <point x="1105" y="1739"/>
      <point x="1210" y="1784"/>
      <point x="1210" y="1886" type="curve" smooth="yes"/>
      <point x="1210" y="1926"/>
      <point x="1147" y="2089"/>
      <point x="1147" y="2144" type="curve" smooth="yes"/>
      <point x="1147" y="2227"/>
      <point x="1187" y="2309"/>
      <point x="1266" y="2309" type="curve"/>
      <point x="1228" y="2366"/>
      <point x="1180" y="2403"/>
      <point x="1067" y="2403" type="curve"/>
      <point x="940" y="2403"/>
      <point x="857" y="2261"/>
      <point x="857" y="2126" type="curve" smooth="yes"/>
      <point x="857" y="2099"/>
      <point x="869" y="2036"/>
      <point x="895" y="2002" type="curve"/>
      <point x="834" y="2050"/>
      <point x="737" y="2077"/>
      <point x="685" y="2077" type="curve"/>
      <point x="482" y="2077"/>
      <point x="332" y="1957"/>
      <point x="332" y="1818" type="curve" smooth="yes"/>
      <point x="332" y="1706"/>
      <point x="411" y="1616"/>
      <point x="512" y="1563" type="curve"/>
      <point x="516" y="1563" type="line"/>
      <point x="321" y="1488"/>
      <point x="171" y="1304" name="hr02"/>
    </contour>
    <contour>
      <point x="786" y="-1200" type="line"/>
      <point x="1161" y="-1200" type="line"/>
      <point x="1161" y="240" type="line"/>
      <point x="786" y="240" type="line"/>
      <point x="786" y="155"/>
      <point x="700" y="-71"/>
      <point x="599" y="-71" type="curve"/>
      <point x="547" y="-71"/>
      <point x="527" y="-26"/>
      <point x="527" y="0" type="curve"/>
      <point x="602" y="21"/>
      <point x="670" y="71"/>
      <point x="670" y="150" type="curve"/>
      <point x="670" y="225"/>
      <point x="603" y="296"/>
      <point x="467" y="296" type="curve" smooth="yes"/>
      <point x="336" y="296"/>
      <point x="205" y="214"/>
      <point x="205" y="37" type="curve" smooth="yes"/>
      <point x="205" y="-95"/>
      <point x="339" y="-229"/>
      <point x="539" y="-229" type="curve" smooth="yes"/>
      <point x="626" y="-229"/>
      <point x="718" y="-191"/>
      <point x="786" y="-131" type="curve"/>
    </contour>
  </outline>
</glyph>
<glyph name="uni19EB" format="2">
  <advance width="2660"/>
  <unicode hex="19EB"/>
  <guideline x="1312"/>
  <outline>
    <contour>
      <point x="552" y="1278" type="curve" smooth="yes"/>
      <point x="732" y="1278"/>
      <point x="870" y="1417"/>
      <point x="870" y="1529" type="curve"/>
      <point x="870" y="1664"/>
      <point x="777" y="1721"/>
      <point x="676" y="1721" type="curve" smooth="yes"/>
      <point x="556" y="1721"/>
      <point x="520" y="1642"/>
      <point x="520" y="1589" type="curve" smooth="yes"/>
      <point x="520" y="1522"/>
      <point x="549" y="1496"/>
      <point x="605" y="1477" type="curve"/>
      <point x="605" y="1446"/>
      <point x="579" y="1428"/>
      <point x="556" y="1428" type="curve"/>
      <point x="489" y="1428"/>
      <point x="432" y="1522"/>
      <point x="432" y="1642" type="curve" smooth="yes"/>
      <point x="432" y="1845"/>
      <point x="544" y="1927"/>
      <point x="676" y="1927" type="curve" smooth="yes"/>
      <point x="830" y="1927"/>
      <point x="957" y="1813"/>
      <point x="957" y="1417" type="curve" smooth="yes"/>
      <point x="957" y="1028"/>
      <point x="679" y="731"/>
      <point x="387" y="731" type="curve" smooth="yes"/>
      <point x="364" y="731" type="line" smooth="yes"/>
      <point x="336" y="731"/>
      <point x="285" y="734"/>
      <point x="249" y="746" type="curve"/>
      <point x="300" y="682"/>
      <point x="437" y="637"/>
      <point x="541" y="637" type="curve"/>
      <point x="845" y="637"/>
      <point x="1257" y="933"/>
      <point x="1257" y="1398" type="curve" smooth="yes"/>
      <point x="1257" y="1886"/>
      <point x="1009" y="2077"/>
      <point x="676" y="2077" type="curve" smooth="yes"/>
      <point x="339" y="2077"/>
      <point x="132" y="1882"/>
      <point x="132" y="1661" type="curve" smooth="yes"/>
      <point x="132" y="1432"/>
      <point x="291" y="1278"/>
    </contour>
    <contour>
      <point x="1822" y="1278" type="curve" smooth="yes"/>
      <point x="2002" y="1278"/>
      <point x="2140" y="1417"/>
      <point x="2140" y="1529" type="curve"/>
      <point x="2140" y="1664"/>
      <point x="2047" y="1721"/>
      <point x="1946" y="1721" type="curve" smooth="yes"/>
      <point x="1826" y="1721"/>
      <point x="1790" y="1642"/>
      <point x="1790" y="1589" type="curve" smooth="yes"/>
      <point x="1790" y="1522"/>
      <point x="1819" y="1496"/>
      <point x="1875" y="1477" type="curve"/>
      <point x="1875" y="1446"/>
      <point x="1849" y="1428"/>
      <point x="1826" y="1428" type="curve"/>
      <point x="1759" y="1428"/>
      <point x="1702" y="1522"/>
      <point x="1702" y="1642" type="curve" smooth="yes"/>
      <point x="1702" y="1845"/>
      <point x="1814" y="1927"/>
      <point x="1946" y="1927" type="curve" smooth="yes"/>
      <point x="2100" y="1927"/>
      <point x="2227" y="1813"/>
      <point x="2227" y="1417" type="curve" smooth="yes"/>
      <point x="2227" y="1028"/>
      <point x="1949" y="731"/>
      <point x="1657" y="731" type="curve" smooth="yes"/>
      <point x="1634" y="731" type="line" smooth="yes"/>
      <point x="1606" y="731"/>
      <point x="1555" y="734"/>
      <point x="1519" y="746" type="curve"/>
      <point x="1570" y="682"/>
      <point x="1707" y="637"/>
      <point x="1811" y="637" type="curve"/>
      <point x="2115" y="637"/>
      <point x="2527" y="933"/>
      <point x="2527" y="1398" type="curve" smooth="yes"/>
      <point x="2527" y="1886"/>
      <point x="2279" y="2077"/>
      <point x="1946" y="2077" type="curve" smooth="yes"/>
      <point x="1609" y="2077"/>
      <point x="1402" y="1882"/>
      <point x="1402" y="1661" type="curve" smooth="yes"/>
      <point x="1402" y="1432"/>
      <point x="1561" y="1278"/>
    </contour>
    <contour>
      <point x="1356" y="-1200" type="line"/>
      <point x="1731" y="-1200" type="line"/>
      <point x="1731" y="240" type="line" name="hr01"/>
      <point x="1356" y="240" type="line"/>
      <point x="1356" y="155"/>
      <point x="1270" y="-71"/>
      <point x="1169" y="-71" type="curve"/>
      <point x="1117" y="-71"/>
      <point x="1097" y="-26"/>
      <point x="1097" y="0" type="curve"/>
      <point x="1172" y="21"/>
      <point x="1240" y="71"/>
      <point x="1240" y="150" type="curve"/>
      <point x="1240" y="225"/>
      <point x="1173" y="296"/>
      <point x="1037" y="296" type="curve" smooth="yes"/>
      <point x="906" y="296"/>
      <point x="775" y="214"/>
      <point x="775" y="37" type="curve" smooth="yes"/>
      <point x="775" y="-95"/>
      <point x="909" y="-229"/>
      <point x="1109" y="-229" type="curve" smooth="yes"/>
      <point x="1196" y="-229"/>
      <point x="1288" y="-191"/>
      <point x="1356" y="-131" type="curve"/>
    </contour>
  </outline>
</glyph>
<glyph name="uni19EF" format="2">
  <advance width="2660"/>
  <unicode hex="19EF"/>
  <outline>
    <contour>
      <point x="1460" y="1173" type="curve" smooth="yes"/>
      <point x="1460" y="776"/>
      <point x="1625" y="637"/>
      <point x="1775" y="637" type="curve"/>
      <point x="1817" y="637"/>
      <point x="1894" y="644"/>
      <point x="1937" y="652" type="curve"/>
      <point x="1974" y="660"/>
      <point x="2015" y="667"/>
      <point x="2038" y="667" type="curve"/>
      <point x="2079" y="667"/>
      <point x="2128" y="660"/>
      <point x="2180" y="652" type="curve" smooth="yes"/>
      <point x="2229" y="645"/>
      <point x="2278" y="637"/>
      <point x="2330" y="637" type="curve" smooth="yes"/>
      <point x="2434" y="637"/>
      <point x="2462" y="677"/>
      <point x="2462" y="697" type="curve" smooth="yes"/>
      <point x="2462" y="749"/>
      <point x="2402" y="813"/>
      <point x="2329" y="880" type="curve" smooth="yes"/>
      <point x="2282" y="922"/>
      <point x="2233" y="967"/>
      <point x="2222" y="1038" type="curve"/>
      <point x="2255" y="1019"/>
      <point x="2300" y="1008"/>
      <point x="2353" y="1008" type="curve"/>
      <point x="2449" y="1008"/>
      <point x="2529" y="1049"/>
      <point x="2529" y="1158" type="curve" smooth="yes"/>
      <point x="2529" y="1263"/>
      <point x="2429" y="1364"/>
      <point x="2274" y="1364" type="curve" smooth="yes"/>
      <point x="2064" y="1364"/>
      <point x="1948" y="1236"/>
      <point x="1948" y="1079" type="curve" smooth="yes"/>
      <point x="1948" y="992"/>
      <point x="2007" y="904"/>
      <point x="2102" y="813" type="curve"/>
      <point x="2071" y="813"/>
      <point x="2042" y="817"/>
      <point x="2023" y="817" type="curve"/>
      <point x="1974" y="817"/>
      <point x="1892" y="798"/>
      <point x="1858" y="798" type="curve" smooth="yes"/>
      <point x="1789" y="798"/>
      <point x="1760" y="973"/>
      <point x="1760" y="1136" type="curve" smooth="yes"/>
      <point x="1760" y="1383"/>
      <point x="1893" y="1547"/>
      <point x="1970" y="1638" type="curve"/>
      <point x="2312" y="1638"/>
      <point x="2480" y="1672"/>
      <point x="2480" y="1878" type="curve"/>
      <point x="2480" y="1909"/>
      <point x="2465" y="1964"/>
      <point x="2450" y="2017" type="curve" smooth="yes"/>
      <point x="2435" y="2069"/>
      <point x="2420" y="2121"/>
      <point x="2420" y="2148" type="curve" smooth="yes"/>
      <point x="2420" y="2231"/>
      <point x="2457" y="2313"/>
      <point x="2537" y="2313" type="curve"/>
      <point x="2489" y="2369"/>
      <point x="2453" y="2407"/>
      <point x="2338" y="2407" type="curve"/>
      <point x="2210" y="2407"/>
      <point x="2135" y="2231"/>
      <point x="2135" y="2129" type="curve" smooth="yes"/>
      <point x="2135" y="2092"/>
      <point x="2145" y="2047"/>
      <point x="2158" y="2002" type="curve" smooth="yes"/>
      <point x="2171" y="1957"/>
      <point x="2180" y="1917"/>
      <point x="2180" y="1882" type="curve" smooth="yes"/>
      <point x="2180" y="1825"/>
      <point x="2123" y="1804"/>
      <point x="2060" y="1796" type="curve"/>
      <point x="2075" y="1823"/>
      <point x="2079" y="1844"/>
      <point x="2079" y="1871" type="curve"/>
      <point x="2079" y="2031"/>
      <point x="1939" y="2114"/>
      <point x="1798" y="2114" type="curve" smooth="yes"/>
      <point x="1655" y="2114"/>
      <point x="1516" y="2031" name="hr01"/>
      <point x="1516" y="1871" type="curve" smooth="yes"/>
      <point x="1516" y="1768"/>
      <point x="1573" y="1708"/>
      <point x="1667" y="1657" type="curve"/>
      <point x="1626" y="1608"/>
      <point x="1460" y="1386" name="hr02"/>
    </contour>
    <contour>
      <point x="552" y="1278" type="curve" smooth="yes"/>
      <point x="732" y="1278"/>
      <point x="870" y="1417"/>
      <point x="870" y="1529" type="curve"/>
      <point x="870" y="1664"/>
      <point x="777" y="1721"/>
      <point x="676" y="1721" type="curve" smooth="yes"/>
      <point x="556" y="1721"/>
      <point x="520" y="1642"/>
      <point x="520" y="1589" type="curve" smooth="yes"/>
      <point x="520" y="1522"/>
      <point x="549" y="1496"/>
      <point x="605" y="1477" type="curve"/>
      <point x="605" y="1446"/>
      <point x="579" y="1428"/>
      <point x="556" y="1428" type="curve"/>
      <point x="489" y="1428"/>
      <point x="432" y="1522"/>
      <point x="432" y="1642" type="curve" smooth="yes"/>
      <point x="432" y="1845"/>
      <point x="544" y="1927"/>
      <point x="676" y="1927" type="curve" smooth="yes"/>
      <point x="830" y="1927"/>
      <point x="957" y="1813"/>
      <point x="957" y="1417" type="curve" smooth="yes"/>
      <point x="957" y="1028"/>
      <point x="679" y="731"/>
      <point x="387" y="731" type="curve" smooth="yes"/>
      <point x="364" y="731" type="line" smooth="yes"/>
      <point x="336" y="731"/>
      <point x="285" y="734"/>
      <point x="249" y="746" type="curve"/>
      <point x="300" y="682"/>
      <point x="437" y="637"/>
      <point x="541" y="637" type="curve"/>
      <point x="845" y="637"/>
      <point x="1257" y="933"/>
      <point x="1257" y="1398" type="curve" smooth="yes"/>
      <point x="1257" y="1886"/>
      <point x="1009" y="2077"/>
      <point x="676" y="2077" type="curve" smooth="yes"/>
      <point x="339" y="2077"/>
      <point x="132" y="1882"/>
      <point x="132" y="1661" type="curve" smooth="yes"/>
      <point x="132" y="1432"/>
      <point x="291" y="1278"/>
    </contour>
    <contour>
      <point x="1356" y="-1200" type="line"/>
      <point x="1731" y="-1200" type="line"/>
      <point x="1731" y="240" type="line" name="hr03"/>
      <point x="1356" y="240" type="line"/>
      <point x="1356" y="155"/>
      <point x="1270" y="-71"/>
      <point x="1169" y="-71" type="curve"/>
      <point x="1117" y="-71"/>
      <point x="1097" y="-26"/>
      <point x="1097" y="0" type="curve"/>
      <point x="1172" y="21"/>
      <point x="1240" y="71"/>
      <point x="1240" y="150" type="curve"/>
      <point x="1240" y="225"/>
      <point x="1173" y="296"/>
      <point x="1037" y="296" type="curve" smooth="yes"/>
      <point x="906" y="296"/>
      <point x="775" y="214"/>
      <point x="775" y="37" type="curve" smooth="yes"/>
      <point x="775" y="-95"/>
      <point x="909" y="-229"/>
      <point x="1109" y="-229" type="curve" smooth="yes"/>
      <point x="1196" y="-229"/>
      <point x="1288" y="-191"/>
      <point x="1356" y="-131" type="curve"/>
    </contour>
    <contour>
      <point x="1740" y="1875" type="curve" smooth="yes"/>
      <point x="1740" y="1915"/>
      <point x="1763" y="1945"/>
      <point x="1798" y="1945" type="curve"/>
      <point x="1833" y="1945"/>
      <point x="1856" y="1915"/>
      <point x="1856" y="1875" type="curve" smooth="yes"/>
      <point x="1856" y="1839"/>
      <point x="1825" y="1807"/>
      <point x="1798" y="1799" type="curve"/>
      <point x="1772" y="1807"/>
      <point x="1740" y="1840"/>
    </contour>
  </outline>
</glyph>
<glyph name="uni19F0" format="2">
  <advance width="1390"/>
  <unicode hex="19F0"/>
  <outline>
    <contour>
      <point x="162" y="1169" type="curve" smooth="yes"/>
      <point x="162" y="773"/>
      <point x="331" y="637"/>
      <point x="481" y="637" type="curve"/>
      <point x="585" y="637"/>
      <point x="687" y="681"/>
      <point x="725" y="719" type="curve"/>
      <point x="762" y="682"/>
      <point x="864" y="637"/>
      <point x="969" y="637" type="curve"/>
      <point x="1149" y="637"/>
      <point x="1250" y="843"/>
      <point x="1250" y="1042" type="curve" smooth="yes"/>
      <point x="1250" y="1218"/>
      <point x="1140" y="1372"/>
      <point x="927" y="1372" type="curve" smooth="yes"/>
      <point x="774" y="1372"/>
      <point x="661" y="1277"/>
      <point x="661" y="1173" type="curve" smooth="yes"/>
      <point x="661" y="1113"/>
      <point x="700" y="1008"/>
      <point x="849" y="1008" type="curve" smooth="yes"/>
      <point x="896" y="1008"/>
      <point x="936" y="1017"/>
      <point x="969" y="1034" type="curve"/>
      <point x="969" y="959"/>
      <point x="939" y="813"/>
      <point x="875" y="813" type="curve"/>
      <point x="822" y="813"/>
      <point x="781" y="832"/>
      <point x="725" y="899" type="curve"/>
      <point x="669" y="832"/>
      <point x="627" y="809"/>
      <point x="575" y="809" type="curve"/>
      <point x="496" y="809"/>
      <point x="462" y="993"/>
      <point x="462" y="1151" type="curve" smooth="yes"/>
      <point x="462" y="1514"/>
      <point x="541" y="1608"/>
      <point x="597" y="1608" type="curve" smooth="yes"/>
      <point x="735" y="1608"/>
      <point x="790" y="1541" name="hr01"/>
      <point x="920" y="1541" type="curve" smooth="yes"/>
      <point x="1104" y="1541"/>
      <point x="1220" y="1691"/>
      <point x="1220" y="1874" type="curve" smooth="yes"/>
      <point x="1220" y="1961"/>
      <point x="1160" y="2048" name="hr02"/>
      <point x="1160" y="2144" type="curve" smooth="yes"/>
      <point x="1160" y="2227"/>
      <point x="1197" y="2309"/>
      <point x="1276" y="2309" type="curve"/>
      <point x="1230" y="2366"/>
      <point x="1189" y="2403"/>
      <point x="1077" y="2403" type="curve"/>
      <point x="950" y="2403"/>
      <point x="867" y="2261"/>
      <point x="867" y="2126" type="curve" smooth="yes"/>
      <point x="867" y="2062"/>
      <point x="920" y="1984" name="hr03"/>
      <point x="920" y="1901" type="curve" smooth="yes"/>
      <point x="920" y="1821"/>
      <point x="912" y="1758"/>
      <point x="852" y="1758" type="curve" smooth="yes"/>
      <point x="740" y="1758"/>
      <point x="706" y="1814" name="hr04"/>
      <point x="552" y="1814" type="curve" smooth="yes"/>
      <point x="421" y="1814"/>
      <point x="162" y="1672"/>
    </contour>
    <contour>
      <point x="162" y="-668" type="curve" smooth="yes"/>
      <point x="162" y="-1064"/>
      <point x="331" y="-1200"/>
      <point x="481" y="-1200" type="curve"/>
      <point x="585" y="-1200"/>
      <point x="687" y="-1156"/>
      <point x="725" y="-1118" type="curve"/>
      <point x="762" y="-1155"/>
      <point x="864" y="-1200"/>
      <point x="969" y="-1200" type="curve"/>
      <point x="1149" y="-1200"/>
      <point x="1250" y="-994"/>
      <point x="1250" y="-795" type="curve" smooth="yes"/>
      <point x="1250" y="-619"/>
      <point x="1140" y="-465"/>
      <point x="927" y="-465" type="curve" smooth="yes"/>
      <point x="774" y="-465"/>
      <point x="661" y="-560"/>
      <point x="661" y="-664" type="curve" smooth="yes"/>
      <point x="661" y="-724"/>
      <point x="700" y="-829"/>
      <point x="849" y="-829" type="curve" smooth="yes"/>
      <point x="896" y="-829"/>
      <point x="936" y="-820"/>
      <point x="969" y="-803" type="curve"/>
      <point x="969" y="-878"/>
      <point x="939" y="-1024"/>
      <point x="875" y="-1024" type="curve"/>
      <point x="822" y="-1024"/>
      <point x="781" y="-1005"/>
      <point x="725" y="-938" type="curve"/>
      <point x="669" y="-1005"/>
      <point x="627" y="-1028"/>
      <point x="575" y="-1028" type="curve" name="hr05"/>
      <point x="496" y="-1028"/>
      <point x="462" y="-844"/>
      <point x="462" y="-686" type="curve" smooth="yes"/>
      <point x="462" y="-323"/>
      <point x="541" y="-229"/>
      <point x="597" y="-229" type="curve" smooth="yes"/>
      <point x="735" y="-229"/>
      <point x="790" y="-296"/>
      <point x="920" y="-296" type="curve" smooth="yes" name="hr06"/>
      <point x="1104" y="-296"/>
      <point x="1220" y="-146"/>
      <point x="1220" y="37" type="curve" smooth="yes"/>
      <point x="1220" y="124"/>
      <point x="1160" y="211"/>
      <point x="1160" y="307" type="curve" smooth="yes" name="hr07"/>
      <point x="1160" y="390"/>
      <point x="1197" y="472"/>
      <point x="1276" y="472" type="curve"/>
      <point x="1230" y="529"/>
      <point x="1189" y="566"/>
      <point x="1077" y="566" type="curve"/>
      <point x="950" y="566"/>
      <point x="867" y="424"/>
      <point x="867" y="289" type="curve" smooth="yes"/>
      <point x="867" y="225"/>
      <point x="920" y="147"/>
      <point x="920" y="64" type="curve" smooth="yes" name="hr08"/>
      <point x="920" y="-16"/>
      <point x="912" y="-79"/>
      <point x="852" y="-79" type="curve" smooth="yes"/>
      <point x="740" y="-79"/>
      <point x="706" y="-23"/>
      <point x="552" y="-23" type="curve" smooth="yes" name="hr09"/>
      <point x="421" y="-23"/>
      <point x="162" y="-165"/>
    </contour>
  </outline>
</glyph>
<glyph name="uni19F2" format="2">
  <advance width="1840"/>
  <unicode hex="19F2"/>
  <guideline x="937" y="0" angle="90"/>
  <outline>
    <contour>
      <point x="607" y="-624" type="line"/>
      <point x="636" y="-711"/>
      <point x="762" y="-733"/>
      <point x="847" y="-733" type="curve"/>
      <point x="1046" y="-696"/>
      <point x="1132" y="-531"/>
      <point x="1132" y="-441" type="curve"/>
      <point x="1132" y="-331"/>
      <point x="1015" y="-279"/>
      <point x="907" y="-263" type="curve"/>
      <point x="907" y="-75" type="line"/>
      <point x="907" y="-40"/>
      <point x="915" y="30"/>
      <point x="934" y="30" type="curve" smooth="yes"/>
      <point x="967" y="30"/>
      <point x="1121" y="-128"/>
      <point x="1132" y="-128" type="curve" smooth="yes"/>
      <point x="1144" y="-128"/>
      <point x="1297" y="34"/>
      <point x="1331" y="34" type="curve" smooth="yes"/>
      <point x="1350" y="34"/>
      <point x="1357" y="-41"/>
      <point x="1357" y="-75" type="curve" smooth="yes"/>
      <point x="1357" y="-986" type="line" smooth="yes"/>
      <point x="1357" y="-1035"/>
      <point x="1035" y="-1069"/>
      <point x="926" y="-1069" type="curve" smooth="yes"/>
      <point x="814" y="-1069"/>
      <point x="495" y="-1035"/>
      <point x="495" y="-986" type="curve" smooth="yes"/>
      <point x="495" y="206" type="line" smooth="yes"/>
      <point x="495" y="454"/>
      <point x="356" y="570"/>
      <point x="135" y="570" type="curve" smooth="yes"/>
      <point x="26" y="570"/>
      <point x="-52" y="484"/>
      <point x="-68" y="420" type="curve"/>
      <point x="-29" y="443"/>
      <point x="11" y="465"/>
      <point x="64" y="465" type="curve"/>
      <point x="154" y="465"/>
      <point x="195" y="350"/>
      <point x="195" y="187" type="curve" smooth="yes"/>
      <point x="195" y="-1024" type="line" smooth="yes"/>
      <point x="195" y="-1129"/>
      <point x="659" y="-1200"/>
      <point x="926" y="-1200" type="curve" smooth="yes"/>
      <point x="1196" y="-1200"/>
      <point x="1657" y="-1129"/>
      <point x="1657" y="-1024" type="curve" smooth="yes"/>
      <point x="1657" y="-30" type="line" smooth="yes"/>
      <point x="1657" y="67"/>
      <point x="1500" y="240"/>
      <point x="1376" y="240" type="curve" smooth="yes"/>
      <point x="1324" y="240"/>
      <point x="1275" y="206"/>
      <point x="1222" y="165" type="curve"/>
      <point x="1189" y="138"/>
      <point x="1155" y="109"/>
      <point x="1132" y="86" type="curve"/>
      <point x="1109" y="109"/>
      <point x="1077" y="138"/>
      <point x="1042" y="165" type="curve"/>
      <point x="990" y="206"/>
      <point x="937" y="240"/>
      <point x="889" y="240" type="curve" smooth="yes"/>
      <point x="765" y="240"/>
      <point x="607" y="67"/>
      <point x="607" y="-30" type="curve" smooth="yes"/>
    </contour>
    <contour>
      <point x="946" y="637" type="line"/>
      <point x="1321" y="637" type="line"/>
      <point x="1321" y="2077" type="line"/>
      <point x="946" y="2077" type="line"/>
      <point x="946" y="1992"/>
      <point x="860" y="1766"/>
      <point x="759" y="1766" type="curve"/>
      <point x="707" y="1766"/>
      <point x="687" y="1811"/>
      <point x="687" y="1837" type="curve"/>
      <point x="762" y="1858"/>
      <point x="830" y="1908"/>
      <point x="830" y="1987" type="curve"/>
      <point x="830" y="2062"/>
      <point x="763" y="2133"/>
      <point x="627" y="2133" type="curve" smooth="yes"/>
      <point x="496" y="2133"/>
      <point x="365" y="2051"/>
      <point x="365" y="1874" type="curve" smooth="yes"/>
      <point x="365" y="1742"/>
      <point x="499" y="1608"/>
      <point x="699" y="1608" type="curve" smooth="yes"/>
      <point x="786" y="1608"/>
      <point x="878" y="1646"/>
      <point x="946" y="1706" type="curve"/>
    </contour>
    <contour>
      <point x="1027" y="-441" type="curve" smooth="yes"/>
      <point x="1027" y="-492"/>
      <point x="959" y="-567"/>
      <point x="907" y="-583" type="curve"/>
      <point x="907" y="-349" type="line"/>
      <point x="955" y="-352"/>
      <point x="1027" y="-385"/>
    </contour>
  </outline>
</glyph>
<glyph name="uni19F3" format="2">
  <advance width="1840"/>
  <unicode hex="19F3"/>
  <guideline x="900" y="0" angle="90"/>
  <outline>
    <contour>
      <point x="170" y="-1094" type="line"/>
      <point x="199" y="-1181"/>
      <point x="325" y="-1203"/>
      <point x="410" y="-1203" type="curve"/>
      <point x="609" y="-1166"/>
      <point x="695" y="-1001"/>
      <point x="695" y="-911" type="curve"/>
      <point x="695" y="-801"/>
      <point x="578" y="-749"/>
      <point x="470" y="-733" type="curve"/>
      <point x="470" y="34" type="line"/>
      <point x="470" y="79"/>
      <point x="560" y="109"/>
      <point x="620" y="109" type="curve" smooth="yes"/>
      <point x="680" y="109"/>
      <point x="770" y="79"/>
      <point x="770" y="34" type="curve" smooth="yes"/>
      <point x="770" y="-1200" type="line"/>
      <point x="1070" y="-1200" type="line"/>
      <point x="1070" y="34" type="line"/>
      <point x="1070" y="79"/>
      <point x="1160" y="109"/>
      <point x="1220" y="109" type="curve" smooth="yes"/>
      <point x="1280" y="109"/>
      <point x="1370" y="79"/>
      <point x="1370" y="34" type="curve" smooth="yes"/>
      <point x="1370" y="-1200" type="line"/>
      <point x="1670" y="-1200" type="line"/>
      <point x="1670" y="52" type="line"/>
      <point x="1670" y="146"/>
      <point x="1425" y="240"/>
      <point x="1220" y="240" type="curve" smooth="yes"/>
      <point x="1107" y="240"/>
      <point x="1000" y="222"/>
      <point x="920" y="187" type="curve"/>
      <point x="840" y="222"/>
      <point x="733" y="240"/>
      <point x="620" y="240" type="curve"/>
      <point x="415" y="240"/>
      <point x="170" y="146"/>
      <point x="170" y="52" type="curve" smooth="yes"/>
    </contour>
    <contour>
      <point x="926" y="637" type="line" name="hr01"/>
      <point x="1301" y="637" type="line"/>
      <point x="1301" y="2077" type="line"/>
      <point x="926" y="2077" type="line"/>
      <point x="926" y="1992"/>
      <point x="840" y="1766"/>
      <point x="739" y="1766" type="curve"/>
      <point x="687" y="1766"/>
      <point x="667" y="1811"/>
      <point x="667" y="1837" type="curve"/>
      <point x="742" y="1858"/>
      <point x="810" y="1908"/>
      <point x="810" y="1987" type="curve"/>
      <point x="810" y="2062"/>
      <point x="743" y="2133"/>
      <point x="607" y="2133" type="curve" smooth="yes"/>
      <point x="476" y="2133"/>
      <point x="345" y="2051"/>
      <point x="345" y="1874" type="curve" smooth="yes"/>
      <point x="345" y="1742"/>
      <point x="479" y="1608"/>
      <point x="679" y="1608" type="curve" smooth="yes"/>
      <point x="766" y="1608"/>
      <point x="858" y="1646"/>
      <point x="926" y="1706" type="curve"/>
    </contour>
    <contour>
      <point x="590" y="-911" type="curve" smooth="yes"/>
      <point x="590" y="-962"/>
      <point x="522" y="-1037"/>
      <point x="470" y="-1053" type="curve"/>
      <point x="470" y="-819" type="line"/>
      <point x="518" y="-822"/>
      <point x="590" y="-855"/>
    </contour>
  </outline>
</glyph>
<glyph name="uni19F4" format="2">
  <advance width="1390"/>
  <unicode hex="19F4"/>
  <guideline x="750"/>
  <outline>
    <contour>
      <point x="1063" y="-829" type="curve" smooth="yes"/>
      <point x="1159" y="-829"/>
      <point x="1239" y="-788"/>
      <point x="1239" y="-679" type="curve"/>
      <point x="1239" y="-574"/>
      <point x="1139" y="-473"/>
      <point x="984" y="-473" type="curve" smooth="yes"/>
      <point x="774" y="-473"/>
      <point x="658" y="-601"/>
      <point x="658" y="-758" type="curve" smooth="yes"/>
      <point x="658" y="-845"/>
      <point x="717" y="-933"/>
      <point x="812" y="-1024" type="curve"/>
      <point x="783" y="-1024"/>
      <point x="732" y="-1020"/>
      <point x="714" y="-1020" type="curve"/>
      <point x="673" y="-1020"/>
      <point x="610" y="-1039"/>
      <point x="568" y="-1039" type="curve" smooth="yes"/>
      <point x="499" y="-1039"/>
      <point x="470" y="-904"/>
      <point x="470" y="-780" type="curve" smooth="yes"/>
      <point x="470" y="-565"/>
      <point x="714" y="-309"/>
      <point x="854" y="-189" type="curve" smooth="yes"/>
      <point x="977" y="-82"/>
      <point x="1138" y="82"/>
      <point x="1138" y="251" type="curve" smooth="yes"/>
      <point x="1138" y="355"/>
      <point x="1078" y="480"/>
      <point x="947" y="531" type="curve" smooth="yes"/>
      <point x="912" y="544"/>
      <point x="868" y="559"/>
      <point x="812" y="559" type="curve" smooth="yes"/>
      <point x="777" y="559"/>
      <point x="756" y="555"/>
      <point x="733" y="547" type="curve"/>
      <point x="815" y="510"/>
      <point x="842" y="385"/>
      <point x="842" y="311" type="curve"/>
      <point x="842" y="178"/>
      <point x="658" y="20"/>
      <point x="537" y="-89" type="curve" smooth="yes"/>
      <point x="369" y="-241"/>
      <point x="170" y="-491" name="hr01"/>
      <point x="170" y="-709" type="curve" smooth="yes"/>
      <point x="170" y="-1065"/>
      <point x="335" y="-1200"/>
      <point x="485" y="-1200" type="curve" smooth="yes"/>
      <point x="527" y="-1200"/>
      <point x="604" y="-1193"/>
      <point x="647" y="-1185" type="curve"/>
      <point x="684" y="-1177"/>
      <point x="725" y="-1170" name="hr02"/>
      <point x="748" y="-1170" type="curve"/>
      <point x="789" y="-1170"/>
      <point x="838" y="-1177"/>
      <point x="890" y="-1186" type="curve" smooth="yes"/>
      <point x="939" y="-1194"/>
      <point x="988" y="-1200" name="hr03"/>
      <point x="1040" y="-1200" type="curve" smooth="yes"/>
      <point x="1144" y="-1200"/>
      <point x="1172" y="-1160"/>
      <point x="1172" y="-1140" type="curve" smooth="yes"/>
      <point x="1172" y="-1088"/>
      <point x="1112" y="-1024"/>
      <point x="1039" y="-957" type="curve" smooth="yes"/>
      <point x="992" y="-915"/>
      <point x="943" y="-870"/>
      <point x="932" y="-799" type="curve"/>
      <point x="965" y="-818"/>
      <point x="1010" y="-829"/>
    </contour>
    <contour>
      <point x="736" y="637" type="line"/>
      <point x="1111" y="637" type="line"/>
      <point x="1111" y="2077" type="line"/>
      <point x="736" y="2077" type="line"/>
      <point x="736" y="1992"/>
      <point x="650" y="1766"/>
      <point x="549" y="1766" type="curve"/>
      <point x="497" y="1766"/>
      <point x="477" y="1811"/>
      <point x="477" y="1837" type="curve"/>
      <point x="552" y="1858"/>
      <point x="620" y="1908"/>
      <point x="620" y="1987" type="curve"/>
      <point x="620" y="2062"/>
      <point x="553" y="2133"/>
      <point x="417" y="2133" type="curve" smooth="yes"/>
      <point x="286" y="2133"/>
      <point x="155" y="2051"/>
      <point x="155" y="1874" type="curve" smooth="yes"/>
      <point x="155" y="1742"/>
      <point x="289" y="1608"/>
      <point x="489" y="1608" type="curve" smooth="yes"/>
      <point x="576" y="1608"/>
      <point x="668" y="1646"/>
      <point x="736" y="1706" type="curve"/>
    </contour>
  </outline>
</glyph>
<glyph name="uni19F7" format="2">
  <advance width="1840"/>
  <unicode hex="19F7"/>
  <guideline x="900"/>
  <outline>
    <contour>
      <point x="490" y="-53" type="line"/>
      <point x="490" y="-15"/>
      <point x="490" y="49"/>
      <point x="509" y="49" type="curve" smooth="yes"/>
      <point x="531" y="49"/>
      <point x="677" y="-109"/>
      <point x="715" y="-109" type="curve" smooth="yes"/>
      <point x="752" y="-109"/>
      <point x="899" y="49"/>
      <point x="921" y="49" type="curve" smooth="yes"/>
      <point x="940" y="49"/>
      <point x="940" y="-18"/>
      <point x="940" y="-53" type="curve" smooth="yes"/>
      <point x="940" y="-1001" type="line" smooth="yes"/>
      <point x="940" y="-1105"/>
      <point x="1105" y="-1200"/>
      <point x="1296" y="-1200" type="curve" smooth="yes"/>
      <point x="1487" y="-1200"/>
      <point x="1652" y="-1105"/>
      <point x="1652" y="-1001" type="curve" smooth="yes"/>
      <point x="1652" y="206" type="line" smooth="yes"/>
      <point x="1652" y="454"/>
      <point x="1514" y="570"/>
      <point x="1292" y="570" type="curve" smooth="yes"/>
      <point x="1183" y="570"/>
      <point x="1106" y="484"/>
      <point x="1090" y="420" type="curve"/>
      <point x="1127" y="443"/>
      <point x="1169" y="465"/>
      <point x="1221" y="465" type="curve"/>
      <point x="1311" y="465"/>
      <point x="1352" y="350"/>
      <point x="1352" y="187" type="curve" smooth="yes"/>
      <point x="1352" y="-983" type="line" smooth="yes"/>
      <point x="1352" y="-1031"/>
      <point x="1308" y="-1065"/>
      <point x="1296" y="-1065" type="curve" smooth="yes"/>
      <point x="1280" y="-1065"/>
      <point x="1240" y="-1031"/>
      <point x="1240" y="-983" type="curve" smooth="yes"/>
      <point x="1240" y="-15" type="line" smooth="yes"/>
      <point x="1240" y="45"/>
      <point x="1112" y="240"/>
      <point x="944" y="240" type="curve" smooth="yes"/>
      <point x="869" y="240"/>
      <point x="745" y="90"/>
      <point x="715" y="90" type="curve" smooth="yes"/>
      <point x="685" y="90"/>
      <point x="561" y="240"/>
      <point x="486" y="240" type="curve" smooth="yes"/>
      <point x="317" y="240"/>
      <point x="190" y="45"/>
      <point x="190" y="-15" type="curve" smooth="yes"/>
      <point x="190" y="-1094" type="line"/>
      <point x="219" y="-1181"/>
      <point x="345" y="-1203"/>
      <point x="430" y="-1203" type="curve"/>
      <point x="629" y="-1166"/>
      <point x="715" y="-1001"/>
      <point x="715" y="-911" type="curve"/>
      <point x="715" y="-801"/>
      <point x="598" y="-749"/>
      <point x="490" y="-733" type="curve"/>
    </contour>
    <contour>
      <point x="896" y="637" type="line" name="hr01"/>
      <point x="1271" y="637" type="line"/>
      <point x="1271" y="2077" type="line"/>
      <point x="896" y="2077" type="line"/>
      <point x="896" y="1992"/>
      <point x="810" y="1766"/>
      <point x="709" y="1766" type="curve"/>
      <point x="657" y="1766"/>
      <point x="637" y="1811"/>
      <point x="637" y="1837" type="curve"/>
      <point x="712" y="1858"/>
      <point x="780" y="1908"/>
      <point x="780" y="1987" type="curve"/>
      <point x="780" y="2062"/>
      <point x="713" y="2133"/>
      <point x="577" y="2133" type="curve" smooth="yes"/>
      <point x="446" y="2133"/>
      <point x="315" y="2051"/>
      <point x="315" y="1874" type="curve" smooth="yes"/>
      <point x="315" y="1742"/>
      <point x="449" y="1608"/>
      <point x="649" y="1608" type="curve" smooth="yes"/>
      <point x="736" y="1608"/>
      <point x="828" y="1646"/>
      <point x="896" y="1706" type="curve"/>
    </contour>
    <contour>
      <point x="610" y="-911" type="curve" smooth="yes"/>
      <point x="610" y="-962"/>
      <point x="542" y="-1037"/>
      <point x="490" y="-1053" type="curve"/>
      <point x="490" y="-819" type="line"/>
      <point x="538" y="-822"/>
      <point x="610" y="-855"/>
    </contour>
  </outline>
</glyph>
<glyph name="uni19FA" format="2">
  <advance width="2660"/>
  <unicode hex="19FA"/>
  <outline>
    <contour>
      <point x="1462" y="-480" type="curve" smooth="yes"/>
      <point x="1462" y="-893"/>
      <point x="1642" y="-1200"/>
      <point x="1987" y="-1200" type="curve"/>
      <point x="2332" y="-1200"/>
      <point x="2512" y="-889"/>
      <point x="2512" y="-476" type="curve" smooth="yes"/>
      <point x="2512" y="-64"/>
      <point x="2332" y="240"/>
      <point x="1987" y="240" type="curve" smooth="yes"/>
      <point x="1642" y="240"/>
      <point x="1462" y="-68"/>
    </contour>
    <contour>
      <point x="552" y="-559" type="curve" smooth="yes"/>
      <point x="732" y="-559"/>
      <point x="870" y="-420"/>
      <point x="870" y="-308" type="curve"/>
      <point x="870" y="-173"/>
      <point x="777" y="-116"/>
      <point x="676" y="-116" type="curve" smooth="yes"/>
      <point x="556" y="-116"/>
      <point x="520" y="-195"/>
      <point x="520" y="-248" type="curve" smooth="yes"/>
      <point x="520" y="-315"/>
      <point x="549" y="-341"/>
      <point x="605" y="-360" type="curve"/>
      <point x="605" y="-391"/>
      <point x="579" y="-409"/>
      <point x="556" y="-409" type="curve"/>
      <point x="489" y="-409"/>
      <point x="432" y="-315"/>
      <point x="432" y="-195" type="curve" smooth="yes"/>
      <point x="432" y="8"/>
      <point x="544" y="90"/>
      <point x="676" y="90" type="curve" smooth="yes"/>
      <point x="830" y="90"/>
      <point x="957" y="-24"/>
      <point x="957" y="-420" type="curve" smooth="yes"/>
      <point x="957" y="-809"/>
      <point x="679" y="-1106"/>
      <point x="387" y="-1106" type="curve" smooth="yes"/>
      <point x="364" y="-1106" type="line" smooth="yes"/>
      <point x="336" y="-1106"/>
      <point x="285" y="-1103"/>
      <point x="249" y="-1091" type="curve"/>
      <point x="300" y="-1155"/>
      <point x="437" y="-1200"/>
      <point x="541" y="-1200" type="curve"/>
      <point x="845" y="-1200"/>
      <point x="1257" y="-904"/>
      <point x="1257" y="-439" type="curve" smooth="yes"/>
      <point x="1257" y="49"/>
      <point x="1009" y="240"/>
      <point x="676" y="240" type="curve" smooth="yes"/>
      <point x="339" y="240"/>
      <point x="132" y="45"/>
      <point x="132" y="-176" type="curve" smooth="yes"/>
      <point x="132" y="-405"/>
      <point x="291" y="-559"/>
    </contour>
    <contour>
      <point x="1286" y="637" type="line"/>
      <point x="1661" y="637" type="line"/>
      <point x="1661" y="2077" type="line" name="hr01"/>
      <point x="1286" y="2077" type="line"/>
      <point x="1286" y="1992"/>
      <point x="1200" y="1766"/>
      <point x="1099" y="1766" type="curve"/>
      <point x="1047" y="1766"/>
      <point x="1027" y="1811"/>
      <point x="1027" y="1837" type="curve"/>
      <point x="1102" y="1858"/>
      <point x="1170" y="1908"/>
      <point x="1170" y="1987" type="curve"/>
      <point x="1170" y="2062"/>
      <point x="1103" y="2133"/>
      <point x="967" y="2133" type="curve" smooth="yes"/>
      <point x="836" y="2133"/>
      <point x="705" y="2051"/>
      <point x="705" y="1874" type="curve" smooth="yes"/>
      <point x="705" y="1742"/>
      <point x="839" y="1608"/>
      <point x="1039" y="1608" type="curve" smooth="yes"/>
      <point x="1126" y="1608"/>
      <point x="1218" y="1646"/>
      <point x="1286" y="1706" type="curve"/>
    </contour>
    <contour>
      <point x="1762" y="-480" type="curve" smooth="yes"/>
      <point x="1762" y="-206"/>
      <point x="1830" y="90" name="hr02"/>
      <point x="1987" y="90" type="curve"/>
      <point x="2146" y="90"/>
      <point x="2212" y="-203"/>
      <point x="2212" y="-476" type="curve" smooth="yes"/>
      <point x="2212" y="-750"/>
      <point x="2146" y="-1050"/>
      <point x="1987" y="-1050" type="curve" smooth="yes"/>
      <point x="1830" y="-1050"/>
      <point x="1762" y="-754"/>
    </contour>
  </outline>
</glyph>
<glyph name="uni19FB" format="2">
  <advance width="2660"/>
  <unicode hex="19FB"/>
  <outline>
    <contour>
      <point x="552" y="-559" type="curve" smooth="yes"/>
      <point x="732" y="-559"/>
      <point x="870" y="-420"/>
      <point x="870" y="-308" type="curve"/>
      <point x="870" y="-173"/>
      <point x="777" y="-116"/>
      <point x="676" y="-116" type="curve" smooth="yes"/>
      <point x="556" y="-116"/>
      <point x="520" y="-195"/>
      <point x="520" y="-248" type="curve" smooth="yes"/>
      <point x="520" y="-315"/>
      <point x="549" y="-341"/>
      <point x="605" y="-360" type="curve"/>
      <point x="605" y="-391"/>
      <point x="579" y="-409"/>
      <point x="556" y="-409" type="curve"/>
      <point x="489" y="-409"/>
      <point x="432" y="-315"/>
      <point x="432" y="-195" type="curve" smooth="yes"/>
      <point x="432" y="8"/>
      <point x="544" y="90"/>
      <point x="676" y="90" type="curve" smooth="yes"/>
      <point x="830" y="90"/>
      <point x="957" y="-24"/>
      <point x="957" y="-420" type="curve" smooth="yes"/>
      <point x="957" y="-809"/>
      <point x="679" y="-1106"/>
      <point x="387" y="-1106" type="curve" smooth="yes"/>
      <point x="364" y="-1106" type="line" smooth="yes"/>
      <point x="336" y="-1106"/>
      <point x="285" y="-1103"/>
      <point x="249" y="-1091" type="curve"/>
      <point x="300" y="-1155"/>
      <point x="437" y="-1200"/>
      <point x="541" y="-1200" type="curve"/>
      <point x="845" y="-1200"/>
      <point x="1257" y="-904"/>
      <point x="1257" y="-439" type="curve" smooth="yes"/>
      <point x="1257" y="49"/>
      <point x="1009" y="240"/>
      <point x="676" y="240" type="curve" smooth="yes"/>
      <point x="339" y="240"/>
      <point x="132" y="45"/>
      <point x="132" y="-176" type="curve" smooth="yes"/>
      <point x="132" y="-405"/>
      <point x="291" y="-559"/>
    </contour>
    <contour>
      <point x="1822" y="-559" type="curve" smooth="yes"/>
      <point x="2002" y="-559"/>
      <point x="2140" y="-420"/>
      <point x="2140" y="-308" type="curve"/>
      <point x="2140" y="-173"/>
      <point x="2047" y="-116"/>
      <point x="1946" y="-116" type="curve" smooth="yes"/>
      <point x="1826" y="-116"/>
      <point x="1790" y="-195"/>
      <point x="1790" y="-248" type="curve" smooth="yes"/>
      <point x="1790" y="-315"/>
      <point x="1819" y="-341"/>
      <point x="1875" y="-360" type="curve"/>
      <point x="1875" y="-391"/>
      <point x="1849" y="-409"/>
      <point x="1826" y="-409" type="curve"/>
      <point x="1759" y="-409"/>
      <point x="1702" y="-315"/>
      <point x="1702" y="-195" type="curve" smooth="yes"/>
      <point x="1702" y="8"/>
      <point x="1814" y="90"/>
      <point x="1946" y="90" type="curve" smooth="yes"/>
      <point x="2100" y="90"/>
      <point x="2227" y="-24"/>
      <point x="2227" y="-420" type="curve" smooth="yes"/>
      <point x="2227" y="-809"/>
      <point x="1949" y="-1106"/>
      <point x="1657" y="-1106" type="curve" smooth="yes"/>
      <point x="1634" y="-1106" type="line" smooth="yes"/>
      <point x="1606" y="-1106"/>
      <point x="1555" y="-1103"/>
      <point x="1519" y="-1091" type="curve"/>
      <point x="1570" y="-1155"/>
      <point x="1707" y="-1200"/>
      <point x="1811" y="-1200" type="curve"/>
      <point x="2115" y="-1200"/>
      <point x="2527" y="-904"/>
      <point x="2527" y="-439" type="curve" smooth="yes"/>
      <point x="2527" y="49"/>
      <point x="2279" y="240"/>
      <point x="1946" y="240" type="curve" smooth="yes"/>
      <point x="1609" y="240"/>
      <point x="1402" y="45"/>
      <point x="1402" y="-176" type="curve" smooth="yes"/>
      <point x="1402" y="-405"/>
      <point x="1561" y="-559"/>
    </contour>
    <contour>
      <point x="1286" y="637" type="line"/>
      <point x="1661" y="637" type="line"/>
      <point x="1661" y="2077" type="line" name="hr01"/>
      <point x="1286" y="2077" type="line"/>
      <point x="1286" y="1992"/>
      <point x="1200" y="1766"/>
      <point x="1099" y="1766" type="curve"/>
      <point x="1047" y="1766"/>
      <point x="1027" y="1811"/>
      <point x="1027" y="1837" type="curve"/>
      <point x="1102" y="1858"/>
      <point x="1170" y="1908"/>
      <point x="1170" y="1987" type="curve"/>
      <point x="1170" y="2062"/>
      <point x="1103" y="2133"/>
      <point x="967" y="2133" type="curve" smooth="yes"/>
      <point x="836" y="2133"/>
      <point x="705" y="2051"/>
      <point x="705" y="1874" type="curve" smooth="yes"/>
      <point x="705" y="1742"/>
      <point x="839" y="1608"/>
      <point x="1039" y="1608" type="curve" smooth="yes"/>
      <point x="1126" y="1608"/>
      <point x="1218" y="1646"/>
      <point x="1286" y="1706" type="curve"/>
    </contour>
  </outline>
</glyph>
<glyph name="uni19FF" format="2">
  <advance width="2660"/>
  <unicode hex="19FF"/>
  <outline>
    <contour>
      <point x="1460" y="-664" type="curve" smooth="yes"/>
      <point x="1460" y="-1061"/>
      <point x="1625" y="-1200"/>
      <point x="1775" y="-1200" type="curve"/>
      <point x="1817" y="-1200"/>
      <point x="1894" y="-1193"/>
      <point x="1937" y="-1185" type="curve"/>
      <point x="1974" y="-1177"/>
      <point x="2015" y="-1170" name="hr01"/>
      <point x="2038" y="-1170" type="curve"/>
      <point x="2079" y="-1170"/>
      <point x="2128" y="-1177"/>
      <point x="2180" y="-1185" type="curve" smooth="yes"/>
      <point x="2229" y="-1192"/>
      <point x="2278" y="-1200" name="hr02"/>
      <point x="2330" y="-1200" type="curve" smooth="yes"/>
      <point x="2434" y="-1200"/>
      <point x="2462" y="-1160"/>
      <point x="2462" y="-1140" type="curve" smooth="yes"/>
      <point x="2462" y="-1088"/>
      <point x="2402" y="-1024"/>
      <point x="2329" y="-957" type="curve" smooth="yes"/>
      <point x="2282" y="-915"/>
      <point x="2233" y="-870"/>
      <point x="2222" y="-799" type="curve"/>
      <point x="2255" y="-818"/>
      <point x="2300" y="-829"/>
      <point x="2353" y="-829" type="curve"/>
      <point x="2449" y="-829"/>
      <point x="2529" y="-788"/>
      <point x="2529" y="-679" type="curve" smooth="yes"/>
      <point x="2529" y="-574"/>
      <point x="2429" y="-473"/>
      <point x="2274" y="-473" type="curve" smooth="yes"/>
      <point x="2064" y="-473"/>
      <point x="1948" y="-601"/>
      <point x="1948" y="-758" type="curve" smooth="yes"/>
      <point x="1948" y="-845"/>
      <point x="2007" y="-933"/>
      <point x="2102" y="-1024" type="curve"/>
      <point x="2071" y="-1024"/>
      <point x="2042" y="-1020"/>
      <point x="2023" y="-1020" type="curve"/>
      <point x="1974" y="-1020"/>
      <point x="1892" y="-1039"/>
      <point x="1858" y="-1039" type="curve" smooth="yes"/>
      <point x="1789" y="-1039"/>
      <point x="1760" y="-864"/>
      <point x="1760" y="-701" type="curve" smooth="yes"/>
      <point x="1760" y="-454"/>
      <point x="1893" y="-290"/>
      <point x="1970" y="-199" type="curve"/>
      <point x="2312" y="-199"/>
      <point x="2480" y="-165"/>
      <point x="2480" y="41" type="curve"/>
      <point x="2480" y="72"/>
      <point x="2465" y="127"/>
      <point x="2450" y="180" type="curve" smooth="yes"/>
      <point x="2435" y="232"/>
      <point x="2420" y="284"/>
      <point x="2420" y="311" type="curve" smooth="yes"/>
      <point x="2420" y="394"/>
      <point x="2457" y="476"/>
      <point x="2537" y="476" type="curve"/>
      <point x="2489" y="532"/>
      <point x="2453" y="570"/>
      <point x="2338" y="570" type="curve"/>
      <point x="2210" y="570"/>
      <point x="2135" y="394"/>
      <point x="2135" y="292" type="curve" smooth="yes"/>
      <point x="2135" y="255"/>
      <point x="2145" y="210"/>
      <point x="2158" y="165" type="curve" smooth="yes"/>
      <point x="2171" y="120"/>
      <point x="2180" y="80"/>
      <point x="2180" y="45" type="curve" smooth="yes"/>
      <point x="2180" y="-12"/>
      <point x="2123" y="-33"/>
      <point x="2060" y="-41" type="curve"/>
      <point x="2075" y="-14"/>
      <point x="2079" y="7"/>
      <point x="2079" y="34" type="curve"/>
      <point x="2079" y="194"/>
      <point x="1939" y="277"/>
      <point x="1798" y="277" type="curve" smooth="yes"/>
      <point x="1655" y="277"/>
      <point x="1516" y="194"/>
      <point x="1516" y="34" type="curve" smooth="yes"/>
      <point x="1516" y="-69"/>
      <point x="1573" y="-129"/>
      <point x="1667" y="-180" type="curve"/>
      <point x="1626" y="-229"/>
      <point x="1460" y="-451"/>
    </contour>
    <contour>
      <point x="552" y="-559" type="curve" smooth="yes"/>
      <point x="732" y="-559" name="hr03"/>
      <point x="870" y="-420"/>
      <point x="870" y="-308" type="curve"/>
      <point x="870" y="-173"/>
      <point x="777" y="-116"/>
      <point x="676" y="-116" type="curve" smooth="yes"/>
      <point x="556" y="-116"/>
      <point x="520" y="-195"/>
      <point x="520" y="-248" type="curve" smooth="yes"/>
      <point x="520" y="-315"/>
      <point x="549" y="-341"/>
      <point x="605" y="-360" type="curve"/>
      <point x="605" y="-391"/>
      <point x="579" y="-409"/>
      <point x="556" y="-409" type="curve"/>
      <point x="489" y="-409"/>
      <point x="432" y="-315"/>
      <point x="432" y="-195" type="curve" smooth="yes"/>
      <point x="432" y="8"/>
      <point x="544" y="90"/>
      <point x="676" y="90" type="curve" smooth="yes"/>
      <point x="830" y="90"/>
      <point x="957" y="-24"/>
      <point x="957" y="-420" type="curve" smooth="yes"/>
      <point x="957" y="-809"/>
      <point x="679" y="-1106"/>
      <point x="387" y="-1106" type="curve" smooth="yes"/>
      <point x="364" y="-1106" type="line" smooth="yes"/>
      <point x="336" y="-1106"/>
      <point x="285" y="-1103"/>
      <point x="249" y="-1091" type="curve"/>
      <point x="300" y="-1155"/>
      <point x="437" y="-1200"/>
      <point x="541" y="-1200" type="curve"/>
      <point x="845" y="-1200"/>
      <point x="1257" y="-904"/>
      <point x="1257" y="-439" type="curve" smooth="yes"/>
      <point x="1257" y="49"/>
      <point x="1009" y="240"/>
      <point x="676" y="240" type="curve" smooth="yes"/>
      <point x="339" y="240"/>
      <point x="132" y="45"/>
      <point x="132" y="-176" type="curve" smooth="yes"/>
      <point x="132" y="-405"/>
      <point x="291" y="-559"/>
    </contour>
    <contour>
      <point x="1286" y="637" type="line"/>
      <point x="1661" y="637" type="line"/>
      <point x="1661" y="2077" type="line"/>
      <point x="1286" y="2077" type="line"/>
      <point x="1286" y="1992"/>
      <point x="1200" y="1766"/>
      <point x="1099" y="1766" type="curve"/>
      <point x="1047" y="1766"/>
      <point x="1027" y="1811"/>
      <point x="1027" y="1837" type="curve"/>
      <point x="1102" y="1858"/>
      <point x="1170" y="1908"/>
      <point x="1170" y="1987" type="curve"/>
      <point x="1170" y="2062"/>
      <point x="1103" y="2133"/>
      <point x="967" y="2133" type="curve" smooth="yes"/>
      <point x="836" y="2133"/>
      <point x="705" y="2051"/>
      <point x="705" y="1874" type="curve" smooth="yes"/>
      <point x="705" y="1742"/>
      <point x="839" y="1608"/>
      <point x="1039" y="1608" type="curve" smooth="yes"/>
      <point x="1126" y="1608"/>
      <point x="1218" y="1646"/>
      <point x="1286" y="1706" type="curve"/>
    </contour>
    <contour>
      <point x="1740" y="38" type="curve" smooth="yes"/>
      <point x="1740" y="78"/>
      <point x="1763" y="108"/>
      <point x="1798" y="108" type="curve"/>
      <point x="1833" y="108"/>
      <point x="1856" y="78"/>
      <point x="1856" y="38" type="curve" smooth="yes"/>
      <point x="1856" y="2"/>
      <point x="1825" y="-30"/>
      <point x="1798" y="-38" type="curve"/>
      <point x="1772" y="-30"/>
      <point x="1740" y="3"/>
    </contour>
  </outline>
</glyph>
<glyph name="_L.ear" format="2">
  <advance width="838"/>
  <outline>
    <contour>
      <point x="569" y="910" type="line" smooth="yes"/>
      <point x="569" y="985"/>
      <point x="429" y="1057"/>
      <point x="228" y="1124" type="curve" smooth="yes"/>
      <point x="226" y="1125"/>
      <point x="225" y="1126"/>
      <point x="225" y="1128" type="curve" smooth="yes"/>
      <point x="225" y="1164"/>
      <point x="253" y="1186"/>
      <point x="281" y="1186" type="curve" smooth="yes"/>
      <point x="340" y="1186"/>
      <point x="414" y="1093"/>
      <point x="509" y="1093" type="curve" smooth="yes"/>
      <point x="590" y="1093"/>
      <point x="669" y="1189"/>
      <point x="690" y="1305" type="curve"/>
      <point x="667" y="1295"/>
      <point x="653" y="1293"/>
      <point x="638" y="1293" type="curve" smooth="yes"/>
      <point x="565" y="1293"/>
      <point x="369" y="1440"/>
      <point x="297" y="1440" type="curve" smooth="yes"/>
      <point x="213" y="1440"/>
      <point x="85" y="1168"/>
      <point x="85" y="1061" type="curve" smooth="yes"/>
      <point x="85" y="1055"/>
      <point x="87" y="1050"/>
      <point x="92" y="1049" type="curve" smooth="yes"/>
      <point x="197" y="1037"/>
      <point x="269" y="963"/>
      <point x="269" y="919" type="curve" smooth="yes"/>
      <point x="269" y="856" type="line"/>
      <point x="569" y="856" type="line"/>
    </contour>
  </outline>
</glyph>
<glyph name="_R.ear" format="2">
  <advance width="620"/>
  <anchor x="226" y="1236" name="_zxc1"/>
  <outline>
    <contour>
      <point x="221" y="1762" type="curve"/>
      <point x="221" y="1410" type="line" smooth="yes"/>
      <point x="221" y="1342"/>
      <point x="197" y="1297"/>
      <point x="164" y="1261" type="curve"/>
      <point x="387" y="1170" type="line"/>
      <point x="450" y="1247"/>
      <point x="491" y="1313"/>
      <point x="491" y="1410" type="curve" smooth="yes"/>
      <point x="491" y="1758" type="line" smooth="yes"/>
      <point x="491" y="1872"/>
      <point x="362" y="1927"/>
      <point x="246" y="1927" type="curve" smooth="yes"/>
      <point x="194" y="1927"/>
      <point x="144" y="1916"/>
      <point x="110" y="1893" type="curve"/>
      <point x="185" y="1893"/>
      <point x="221" y="1825"/>
    </contour>
  </outline>
</glyph>
<glyph name="_R.earLarge" format="2">
  <advance width="838"/>
  <outline>
    <contour>
      <point x="269" y="715" type="line"/>
      <point x="569" y="715" type="line"/>
      <point x="569" y="920" type="line" smooth="yes"/>
      <point x="569" y="1041"/>
      <point x="341" y="1108"/>
      <point x="243" y="1156" type="curve" smooth="yes"/>
      <point x="241" y="1157"/>
      <point x="240" y="1158"/>
      <point x="240" y="1161" type="curve" smooth="yes"/>
      <point x="240" y="1197"/>
      <point x="258" y="1223"/>
      <point x="276" y="1223" type="curve" smooth="yes"/>
      <point x="324" y="1223"/>
      <point x="411" y="1127"/>
      <point x="544" y="1127" type="curve" smooth="yes"/>
      <point x="671" y="1127"/>
      <point x="741" y="1255"/>
      <point x="741" y="1420" type="curve" smooth="yes"/>
      <point x="741" y="1696"/>
      <point x="519" y="1809"/>
      <point x="360" y="1809" type="curve" smooth="yes"/>
      <point x="271" y="1809"/>
      <point x="201" y="1774"/>
      <point x="201" y="1711" type="curve" smooth="yes"/>
      <point x="201" y="1623"/>
      <point x="299" y="1594"/>
      <point x="398" y="1565" type="curve" smooth="yes"/>
      <point x="502" y="1535"/>
      <point x="608" y="1503"/>
      <point x="608" y="1407" type="curve" smooth="yes"/>
      <point x="608" y="1390"/>
      <point x="607" y="1355"/>
      <point x="580" y="1355" type="curve" smooth="yes"/>
      <point x="541" y="1355"/>
      <point x="444" y="1440"/>
      <point x="317" y="1440" type="curve" smooth="yes"/>
      <point x="196" y="1440"/>
      <point x="95" y="1197"/>
      <point x="95" y="1080" type="curve" smooth="yes"/>
      <point x="95" y="1074"/>
      <point x="97" y="1070"/>
      <point x="102" y="1069" type="curve" smooth="yes"/>
      <point x="213" y="1053"/>
      <point x="269" y="996"/>
      <point x="269" y="938" type="curve" smooth="yes"/>
    </contour>
  </outline>
</glyph>
<glyph name="_bulgeArch" format="2">
  <advance width="1419"/>
  <outline>
    <contour>
      <point x="569" y="800" type="line"/>
      <point x="569" y="910" type="line" smooth="yes"/>
      <point x="569" y="975"/>
      <point x="348" y="1084"/>
      <point x="228" y="1124" type="curve" smooth="yes"/>
      <point x="226" y="1125"/>
      <point x="225" y="1126"/>
      <point x="225" y="1128" type="curve" smooth="yes"/>
      <point x="225" y="1139"/>
      <point x="509" y="1197"/>
      <point x="635" y="1197" type="curve" smooth="yes"/>
      <point x="704" y="1197"/>
      <point x="909" y="1090"/>
      <point x="980" y="1044" type="curve" smooth="yes"/>
      <point x="997" y="1033"/>
      <point x="1019" y="1009"/>
      <point x="1019" y="984" type="curve" smooth="yes"/>
      <point x="1019" y="919" type="line"/>
      <point x="1319" y="919" type="line"/>
      <point x="1319" y="1043" type="line" smooth="yes"/>
      <point x="1319" y="1104"/>
      <point x="1287" y="1149"/>
      <point x="1222" y="1192" type="curve" smooth="yes"/>
      <point x="1164" y="1230"/>
      <point x="763" y="1440"/>
      <point x="691" y="1440" type="curve" smooth="yes"/>
      <point x="444" y="1440"/>
      <point x="85" y="1270"/>
      <point x="85" y="1061" type="curve" smooth="yes"/>
      <point x="85" y="1055"/>
      <point x="87" y="1050"/>
      <point x="92" y="1049" type="curve" smooth="yes"/>
      <point x="197" y="1037"/>
      <point x="269" y="963"/>
      <point x="269" y="919" type="curve" smooth="yes"/>
      <point x="269" y="800" type="line"/>
    </contour>
  </outline>
</glyph>
<glyph name="_deepArch" format="2">
  <advance width="1038"/>
  <outline>
    <contour>
      <point x="93" y="946" type="curve"/>
      <point x="173" y="872" type="line"/>
      <point x="254" y="1003"/>
      <point x="382" y="1194"/>
      <point x="419" y="1194" type="curve" smooth="yes"/>
      <point x="468" y="1194"/>
      <point x="530" y="1142"/>
      <point x="605" y="1074" type="curve" smooth="yes"/>
      <point x="626" y="1055"/>
      <point x="638" y="1038"/>
      <point x="638" y="1004" type="curve" smooth="yes"/>
      <point x="638" y="0" type="line"/>
      <point x="938" y="0" type="line"/>
      <point x="938" y="1043" type="line" smooth="yes"/>
      <point x="938" y="1104"/>
      <point x="907" y="1139"/>
      <point x="851" y="1192" type="curve" smooth="yes"/>
      <point x="793" y="1247"/>
      <point x="562" y="1440"/>
      <point x="490" y="1440" type="curve" smooth="yes"/>
      <point x="383" y="1440"/>
      <point x="153" y="1094"/>
    </contour>
  </outline>
</glyph>
<glyph name="_deepArch2" format="2">
  <advance width="1288"/>
  <outline>
    <contour>
      <point x="271" y="978"/>
      <point x="594" y="1231"/>
      <point x="660" y="1231" type="curve" smooth="yes"/>
      <point x="699" y="1231"/>
      <point x="814" y="1134"/>
      <point x="856" y="1086" type="curve" smooth="yes"/>
      <point x="869" y="1071"/>
      <point x="888" y="1047"/>
      <point x="888" y="1011" type="curve" smooth="yes"/>
      <point x="888" y="0" type="line"/>
      <point x="1188" y="0" type="line"/>
      <point x="1188" y="1054" type="line" smooth="yes"/>
      <point x="1188" y="1105"/>
      <point x="1178" y="1138"/>
      <point x="1104" y="1212" type="curve" smooth="yes"/>
      <point x="978" y="1338"/>
      <point x="850" y="1440"/>
      <point x="788" y="1440" type="curve" smooth="yes"/>
      <point x="585" y="1440"/>
      <point x="44" y="982"/>
      <point x="44" y="814" type="curve" smooth="yes"/>
      <point x="44" y="810"/>
      <point x="46" y="806"/>
      <point x="51" y="804" type="curve"/>
      <point x="96" y="792"/>
      <point x="138" y="758"/>
      <point x="138" y="714" type="curve" smooth="yes"/>
      <point x="138" y="411" type="line"/>
      <point x="438" y="411" type="line"/>
      <point x="438" y="725" type="line" smooth="yes"/>
      <point x="438" y="790"/>
      <point x="344" y="839"/>
      <point x="274" y="879" type="curve" smooth="yes"/>
      <point x="272" y="880"/>
      <point x="271" y="881"/>
      <point x="271" y="883" type="curve" smooth="yes"/>
    </contour>
  </outline>
</glyph>
<glyph name="_mArch" format="2">
  <advance width="2250"/>
  <outline>
    <contour>
      <point x="2062" y="1166" type="line" smooth="yes"/>
      <point x="2062" y="1320"/>
      <point x="1303" y="1518"/>
      <point x="1251" y="1518" type="curve" smooth="yes"/>
      <point x="1176" y="1518"/>
      <point x="1085" y="1376"/>
      <point x="1061" y="1376" type="curve" smooth="yes"/>
      <point x="1003" y="1376"/>
      <point x="547" y="1518"/>
      <point x="493" y="1518" type="curve" smooth="yes"/>
      <point x="400" y="1518"/>
      <point x="88" y="1232"/>
      <point x="88" y="1141" type="curve" smooth="yes"/>
      <point x="88" y="1066"/>
      <point x="168" y="1002"/>
      <point x="241" y="983" type="curve"/>
      <point x="290" y="1041"/>
      <point x="385" y="1098"/>
      <point x="473" y="1113" type="curve"/>
      <point x="373" y="1140"/>
      <point x="307" y="1170"/>
      <point x="307" y="1206" type="curve" smooth="yes"/>
      <point x="307" y="1229"/>
      <point x="394" y="1284"/>
      <point x="437" y="1284" type="curve" smooth="yes"/>
      <point x="474" y="1284"/>
      <point x="929" y="1142"/>
      <point x="1014" y="1142" type="curve" smooth="yes"/>
      <point x="1067" y="1142"/>
      <point x="1154" y="1284"/>
      <point x="1185" y="1284" type="curve" smooth="yes"/>
      <point x="1231" y="1284"/>
      <point x="1762" y="1140"/>
      <point x="1762" y="1091" type="curve" smooth="yes"/>
      <point x="1762" y="750" type="line"/>
      <point x="2062" y="750" type="line"/>
    </contour>
  </outline>
</glyph>
<glyph name="_mArch2" format="2">
  <advance width="2207"/>
  <outline>
    <contour>
      <point x="346" y="1169" type="curve" smooth="yes"/>
      <point x="346" y="1192"/>
      <point x="429" y="1286"/>
      <point x="472" y="1286" type="curve" smooth="yes"/>
      <point x="509" y="1286"/>
      <point x="974" y="1142"/>
      <point x="1059" y="1142" type="curve" smooth="yes"/>
      <point x="1112" y="1142"/>
      <point x="1199" y="1284"/>
      <point x="1230" y="1284" type="curve" smooth="yes"/>
      <point x="1276" y="1284"/>
      <point x="1807" y="1140"/>
      <point x="1807" y="1091" type="curve" smooth="yes"/>
      <point x="1807" y="750" type="line"/>
      <point x="2107" y="750" type="line"/>
      <point x="2107" y="1166" type="line" smooth="yes"/>
      <point x="2107" y="1320"/>
      <point x="1348" y="1518"/>
      <point x="1296" y="1518" type="curve" smooth="yes"/>
      <point x="1221" y="1518"/>
      <point x="1130" y="1376"/>
      <point x="1106" y="1376" type="curve" smooth="yes"/>
      <point x="1048" y="1376"/>
      <point x="592" y="1518"/>
      <point x="538" y="1518" type="curve" smooth="yes"/>
      <point x="445" y="1518"/>
      <point x="100" y="1232"/>
      <point x="100" y="1125" type="curve" smooth="yes"/>
      <point x="100" y="1048"/>
      <point x="181" y="994"/>
      <point x="307" y="957" type="curve"/>
      <point x="307" y="935" type="line"/>
      <point x="607" y="935" type="line"/>
      <point x="607" y="1051" type="line"/>
      <point x="420" y="1097"/>
      <point x="346" y="1134"/>
    </contour>
  </outline>
</glyph>
<glyph name="_smoke" format="2">
  <advance width="1500"/>
  <outline>
    <contour>
      <point x="754" y="1154" type="curve" smooth="yes"/>
      <point x="807" y="1154"/>
      <point x="894" y="1296"/>
      <point x="925" y="1296" type="curve" smooth="yes"/>
      <point x="971" y="1296"/>
      <point x="1167" y="1154"/>
      <point x="1252" y="1154" type="curve" smooth="yes"/>
      <point x="1363" y="1154"/>
      <point x="1424" y="1289"/>
      <point x="1433" y="1375" type="curve"/>
      <point x="1414" y="1365"/>
      <point x="1400" y="1363"/>
      <point x="1383" y="1363" type="curve" smooth="yes"/>
      <point x="1304" y="1363"/>
      <point x="1043" y="1530"/>
      <point x="991" y="1530" type="curve" smooth="yes"/>
      <point x="916" y="1530"/>
      <point x="825" y="1388"/>
      <point x="801" y="1388" type="curve" smooth="yes"/>
      <point x="743" y="1388"/>
      <point x="487" y="1530"/>
      <point x="433" y="1530" type="curve" smooth="yes"/>
      <point x="340" y="1530"/>
      <point x="78" y="1244"/>
      <point x="78" y="1153" type="curve" smooth="yes"/>
      <point x="78" y="1078"/>
      <point x="158" y="1014"/>
      <point x="231" y="995" type="curve"/>
      <point x="320" y="1063"/>
      <point x="398" y="1104"/>
      <point x="467" y="1112" type="curve"/>
      <point x="366" y="1146"/>
      <point x="297" y="1182"/>
      <point x="297" y="1218" type="curve" smooth="yes"/>
      <point x="297" y="1241"/>
      <point x="354" y="1296"/>
      <point x="397" y="1296" type="curve" smooth="yes"/>
      <point x="434" y="1296"/>
      <point x="669" y="1154"/>
    </contour>
  </outline>
</glyph>
<glyph name="_smoke2" format="2">
  <advance width="1500"/>
  <outline>
    <contour>
      <point x="562" y="911" type="line"/>
      <point x="562" y="1037" type="line"/>
      <point x="438" y="1088"/>
      <point x="297" y="1129"/>
      <point x="297" y="1185" type="curve" smooth="yes"/>
      <point x="297" y="1218"/>
      <point x="354" y="1296"/>
      <point x="397" y="1296" type="curve" smooth="yes"/>
      <point x="434" y="1296"/>
      <point x="669" y="1154"/>
      <point x="754" y="1154" type="curve" smooth="yes"/>
      <point x="807" y="1154"/>
      <point x="894" y="1296"/>
      <point x="925" y="1296" type="curve" smooth="yes"/>
      <point x="971" y="1296"/>
      <point x="1167" y="1154"/>
      <point x="1252" y="1154" type="curve" smooth="yes"/>
      <point x="1363" y="1154"/>
      <point x="1424" y="1289"/>
      <point x="1433" y="1375" type="curve"/>
      <point x="1414" y="1365"/>
      <point x="1400" y="1363"/>
      <point x="1383" y="1363" type="curve" smooth="yes"/>
      <point x="1304" y="1363"/>
      <point x="1043" y="1530"/>
      <point x="991" y="1530" type="curve" smooth="yes"/>
      <point x="916" y="1530"/>
      <point x="825" y="1388"/>
      <point x="801" y="1388" type="curve" smooth="yes"/>
      <point x="743" y="1388"/>
      <point x="487" y="1530"/>
      <point x="433" y="1530" type="curve" smooth="yes"/>
      <point x="340" y="1530"/>
      <point x="78" y="1194"/>
      <point x="78" y="1103" type="curve" smooth="yes"/>
      <point x="78" y="1028"/>
      <point x="164" y="971"/>
      <point x="262" y="935" type="curve"/>
      <point x="262" y="911" type="line"/>
    </contour>
  </outline>
</glyph>
<glyph name="_squirreltail" format="2">
  <advance width="1381"/>
  <outline>
    <contour>
      <point x="231" y="685" type="line"/>
      <point x="531" y="685" type="line"/>
      <point x="531" y="1045" type="line"/>
      <point x="373" y="1068"/>
      <point x="313" y="1109"/>
      <point x="313" y="1147" type="curve" smooth="yes"/>
      <point x="313" y="1209"/>
      <point x="381" y="1256"/>
      <point x="406" y="1256" type="curve" smooth="yes"/>
      <point x="474" y="1256"/>
      <point x="778" y="1080"/>
      <point x="929" y="1080" type="curve" smooth="yes"/>
      <point x="1134" y="1080"/>
      <point x="1219" y="1229"/>
      <point x="1219" y="1385" type="curve" smooth="yes"/>
      <point x="1219" y="1558"/>
      <point x="1093" y="1740"/>
      <point x="879" y="1740" type="curve" smooth="yes"/>
      <point x="781" y="1740"/>
      <point x="727" y="1684"/>
      <point x="727" y="1627" type="curve" smooth="yes"/>
      <point x="727" y="1449"/>
      <point x="1025" y="1534"/>
      <point x="1025" y="1372" type="curve" smooth="yes"/>
      <point x="1025" y="1333"/>
      <point x="997" y="1306"/>
      <point x="947" y="1306" type="curve" smooth="yes"/>
      <point x="840" y="1306"/>
      <point x="590" y="1489"/>
      <point x="436" y="1489" type="curve" smooth="yes"/>
      <point x="323" y="1489"/>
      <point x="95" y="1201"/>
      <point x="95" y="1095" type="curve" smooth="yes"/>
      <point x="95" y="1028"/>
      <point x="147" y="1002"/>
      <point x="231" y="978" type="curve"/>
    </contour>
  </outline>
</glyph>
<glyph name="_subL.ear" format="2">
  <advance width="538"/>
  <outline>
    <contour>
      <point x="439" y="-487" type="line" smooth="yes"/>
      <point x="439" y="-429"/>
      <point x="237" y="-413"/>
      <point x="148" y="-401" type="curve" smooth="yes"/>
      <point x="142" y="-400"/>
      <point x="141" y="-398"/>
      <point x="141" y="-394" type="curve" smooth="yes"/>
      <point x="141" y="-374"/>
      <point x="159" y="-369"/>
      <point x="177" y="-369" type="curve" smooth="yes"/>
      <point x="216" y="-369"/>
      <point x="328" y="-423"/>
      <point x="400" y="-423" type="curve" smooth="yes"/>
      <point x="463" y="-423"/>
      <point x="504" y="-325"/>
      <point x="518" y="-250" type="curve"/>
      <point x="503" y="-256"/>
      <point x="494" y="-258"/>
      <point x="484" y="-258" type="curve" smooth="yes"/>
      <point x="437" y="-258"/>
      <point x="254" y="-192"/>
      <point x="208" y="-192" type="curve" smooth="yes"/>
      <point x="163" y="-192"/>
      <point x="20" y="-369"/>
      <point x="20" y="-439" type="curve" smooth="yes"/>
      <point x="20" y="-442"/>
      <point x="21" y="-446"/>
      <point x="24" y="-446" type="curve" smooth="yes"/>
      <point x="93" y="-454"/>
      <point x="139" y="-464"/>
      <point x="139" y="-481" type="curve" smooth="yes"/>
      <point x="139" y="-572" type="line"/>
      <point x="439" y="-572" type="line"/>
    </contour>
  </outline>
</glyph>
<glyph name="_topArch" format="2">
  <advance width="1127"/>
  <outline>
    <contour>
      <point x="135" y="1143" type="curve"/>
      <point x="155" y="1124"/>
      <point x="212" y="1058"/>
      <point x="238" y="1042" type="curve"/>
      <point x="343" y="1149"/>
      <point x="434" y="1195"/>
      <point x="470" y="1195" type="curve" smooth="yes"/>
      <point x="516" y="1195"/>
      <point x="616" y="1141"/>
      <point x="689" y="1092" type="curve" smooth="yes"/>
      <point x="729" y="1065"/>
      <point x="727" y="1050"/>
      <point x="727" y="1003" type="curve" smooth="yes"/>
      <point x="727" y="780" type="line"/>
      <point x="1027" y="780" type="line"/>
      <point x="1027" y="1081" type="line" smooth="yes"/>
      <point x="1027" y="1154"/>
      <point x="1012" y="1177"/>
      <point x="970" y="1205" type="curve" smooth="yes"/>
      <point x="836" y="1295"/>
      <point x="590" y="1440"/>
      <point x="521" y="1440" type="curve" smooth="yes"/>
      <point x="411" y="1440"/>
      <point x="233" y="1264"/>
    </contour>
  </outline>
</glyph>
<glyph name="_topArchshort" format="2">
  <advance width="1127"/>
  <outline>
    <contour>
      <point x="255" y="1255" type="curve"/>
      <point x="332" y="1157" type="line"/>
      <point x="396" y="1201"/>
      <point x="432" y="1226"/>
      <point x="469" y="1226" type="curve" smooth="yes"/>
      <point x="519" y="1226"/>
      <point x="570" y="1181"/>
      <point x="689" y="1076" type="curve" smooth="yes"/>
      <point x="723" y="1046"/>
      <point x="727" y="1034"/>
      <point x="727" y="997" type="curve" smooth="yes"/>
      <point x="727" y="780" type="line"/>
      <point x="1027" y="780" type="line"/>
      <point x="1027" y="1071" type="line" smooth="yes"/>
      <point x="1027" y="1144"/>
      <point x="1009" y="1163"/>
      <point x="970" y="1195" type="curve" smooth="yes"/>
      <point x="836" y="1304"/>
      <point x="644" y="1440"/>
      <point x="572" y="1440" type="curve" smooth="yes"/>
      <point x="462" y="1440"/>
      <point x="360" y="1373"/>
    </contour>
  </outline>
</glyph>
<glyph name="uni1780.alt" format="2">
  <advance width="1950"/>
  <anchor x="1312" y="0" name="L"/>
  <anchor x="862" y="1440" name="MA"/>
  <anchor x="1312" y="1440" name="U"/>
  <outline>
    <contour>
      <point x="562" y="467" type="line"/>
      <point x="562" y="804" type="line" smooth="yes"/>
      <point x="562" y="849"/>
      <point x="652" y="879"/>
      <point x="712" y="879" type="curve" smooth="yes"/>
      <point x="772" y="879"/>
      <point x="862" y="849"/>
      <point x="862" y="804" type="curve" smooth="yes"/>
      <point x="862" y="0" type="line"/>
      <point x="1162" y="0" type="line"/>
      <point x="1162" y="804" type="line" smooth="yes"/>
      <point x="1162" y="849"/>
      <point x="1252" y="879"/>
      <point x="1312" y="879" type="curve" smooth="yes"/>
      <point x="1372" y="879"/>
      <point x="1462" y="849"/>
      <point x="1462" y="804" type="curve" smooth="yes"/>
      <point x="1462" y="0" type="line"/>
      <point x="1762" y="0" type="line"/>
      <point x="1762" y="822" type="line" smooth="yes"/>
      <point x="1762" y="916"/>
      <point x="1518" y="1010"/>
      <point x="1312" y="1010" type="curve" smooth="yes"/>
      <point x="1199" y="1010"/>
      <point x="1091" y="991"/>
      <point x="1012" y="957" type="curve"/>
      <point x="933" y="991"/>
      <point x="824" y="1010"/>
      <point x="712" y="1010" type="curve" smooth="yes"/>
      <point x="506" y="1010"/>
      <point x="262" y="916"/>
      <point x="262" y="822" type="curve"/>
      <point x="262" y="425" type="line"/>
    </contour>
    <contour>
      <point x="262" y="621" type="line"/>
      <point x="262" y="108" type="line"/>
      <point x="292" y="32"/>
      <point x="400" y="0"/>
      <point x="515" y="0" type="curve"/>
      <point x="681" y="31"/>
      <point x="789" y="161"/>
      <point x="789" y="290" type="curve" smooth="yes"/>
      <point x="789" y="414"/>
      <point x="692" y="532"/>
      <point x="562" y="555" type="curve"/>
      <point x="562" y="627" type="line"/>
    </contour>
    <contour>
      <point x="667" y="290" type="curve" smooth="yes"/>
      <point x="667" y="219"/>
      <point x="613" y="179"/>
      <point x="562" y="157" type="curve"/>
      <point x="562" y="458" type="line"/>
      <point x="628" y="439"/>
      <point x="667" y="363"/>
    </contour>
    <contour>
      <point x="969" y="1047" type="curve" smooth="yes"/>
      <point x="989" y="1047"/>
      <point x="1016" y="1087"/>
      <point x="1066" y="1142" type="curve" smooth="yes"/>
      <point x="1094" y="1173"/>
      <point x="1129" y="1195"/>
      <point x="1170" y="1195" type="curve" smooth="yes"/>
      <point x="1239" y="1195"/>
      <point x="1617" y="1047"/>
      <point x="1702" y="1047" type="curve" smooth="yes"/>
      <point x="1783" y="1047"/>
      <point x="1852" y="1199"/>
      <point x="1883" y="1285" type="curve"/>
      <point x="1860" y="1275"/>
      <point x="1836" y="1273"/>
      <point x="1813" y="1273" type="curve" smooth="yes"/>
      <point x="1748" y="1273"/>
      <point x="1288" y="1440"/>
      <point x="1216" y="1440" type="curve" smooth="yes"/>
      <point x="1182" y="1440"/>
      <point x="1142" y="1417"/>
      <point x="1106" y="1387" type="curve" smooth="yes"/>
      <point x="1074" y="1361"/>
      <point x="1044" y="1317"/>
      <point x="1016" y="1284" type="curve"/>
      <point x="937" y="1309"/>
      <point x="537" y="1440"/>
      <point x="473" y="1440" type="curve" smooth="yes"/>
      <point x="314" y="1440"/>
      <point x="177" y="1235"/>
      <point x="104" y="1064" type="curve" smooth="yes"/>
      <point x="101" y="1057"/>
      <point x="100" y="1035"/>
      <point x="100" y="1029" type="curve" smooth="yes"/>
      <point x="100" y="958"/>
      <point x="178" y="902"/>
      <point x="251" y="890" type="curve"/>
      <point x="432" y="994" type="line"/>
      <point x="349" y="1010"/>
      <point x="285" y="1027"/>
      <point x="285" y="1084" type="curve" smooth="yes"/>
      <point x="285" y="1105"/>
      <point x="299" y="1129"/>
      <point x="318" y="1153" type="curve" smooth="yes"/>
      <point x="343" y="1185"/>
      <point x="372" y="1200"/>
      <point x="407" y="1200" type="curve" smooth="yes"/>
      <point x="476" y="1200"/>
      <point x="884" y="1047"/>
    </contour>
  </outline>
</glyph>
<glyph name="uni178017B6.alt" format="2">
  <advance width="2700"/>
  <anchor x="1725" y="0" name="C6_1"/>
  <anchor x="2638" y="20" name="C6_2"/>
  <anchor x="1930" y="0" name="L_1"/>
  <anchor x="2680" y="20" name="L_2"/>
  <anchor x="1750" y="1000" name="UR_1"/>
  <anchor x="20" y="1000" name="UR_2"/>
  <anchor x="1725" y="1000" name="U_1"/>
  <anchor x="2720" y="1000" name="U_2"/>
  <anchor x="2232" y="1236" name="zxc1"/>
  <outline>
    <component base="_stemloop" xOffset="200"/>
    <component base="_stemMd" xOffset="762"/>
    <component base="_stemMd" xOffset="1362"/>
    <component base="_stemSm" xOffset="162" yOffset="413"/>
    <component base="_curveShort" yScale="-1" xOffset="162" yOffset="1123"/>
    <component base="_curveShort" yScale="-1" xOffset="762" yOffset="1119"/>
    <component base="_stemLg" xOffset="2112"/>
    <contour>
      <point x="2512" y="1066" type="line" smooth="yes"/>
      <point x="2512" y="1178"/>
      <point x="2487" y="1221"/>
      <point x="2422" y="1256" type="curve" smooth="yes"/>
      <point x="2190" y="1382"/>
      <point x="1286" y="1528"/>
      <point x="1241" y="1528" type="curve" smooth="yes"/>
      <point x="1166" y="1528"/>
      <point x="1075" y="1386"/>
      <point x="1051" y="1386" type="curve" smooth="yes"/>
      <point x="993" y="1386"/>
      <point x="537" y="1528"/>
      <point x="483" y="1528" type="curve" smooth="yes"/>
      <point x="390" y="1528"/>
      <point x="78" y="1242"/>
      <point x="78" y="1151" type="curve" smooth="yes"/>
      <point x="78" y="1076"/>
      <point x="158" y="1012"/>
      <point x="231" y="993" type="curve"/>
      <point x="280" y="1051"/>
      <point x="375" y="1108"/>
      <point x="463" y="1123" type="curve"/>
      <point x="363" y="1150"/>
      <point x="297" y="1180"/>
      <point x="297" y="1216" type="curve" smooth="yes"/>
      <point x="297" y="1239"/>
      <point x="384" y="1294"/>
      <point x="427" y="1294" type="curve" smooth="yes"/>
      <point x="464" y="1294"/>
      <point x="919" y="1152"/>
      <point x="1004" y="1152" type="curve" smooth="yes"/>
      <point x="1057" y="1152"/>
      <point x="1144" y="1294"/>
      <point x="1175" y="1294" type="curve" smooth="yes"/>
      <point x="1214" y="1294"/>
      <point x="1931" y="1167"/>
      <point x="2150" y="1105" type="curve" smooth="yes"/>
      <point x="2189" y="1094"/>
      <point x="2212" y="1074"/>
      <point x="2212" y="1021" type="curve" smooth="yes"/>
      <point x="2212" y="760" type="line"/>
      <point x="2512" y="760" type="line"/>
    </contour>
  </outline>
</glyph>
<glyph name="uni1794.lig.left" format="2">
  <advance width="1500"/>
  <outline>
    <component base="_curve" xOffset="162"/>
    <component base="_stemSm" xOffset="912" yOffset="-152"/>
    <component base="_stemMd" xOffset="162" yOffset="294"/>
    <component base="_stemMd" xOffset="912" yOffset="202"/>
    <contour>
      <point x="1500" y="1203" type="curve"/>
      <point x="1500" y="1457" type="line"/>
      <point x="1372" y="1494"/>
      <point x="1269" y="1518"/>
      <point x="1251" y="1518" type="curve" smooth="yes"/>
      <point x="1176" y="1518"/>
      <point x="1085" y="1376"/>
      <point x="1061" y="1376" type="curve" smooth="yes"/>
      <point x="1003" y="1376"/>
      <point x="547" y="1518"/>
      <point x="493" y="1518" type="curve" smooth="yes"/>
      <point x="400" y="1518"/>
      <point x="55" y="1232"/>
      <point x="55" y="1125" type="curve" smooth="yes"/>
      <point x="55" y="1048"/>
      <point x="136" y="994"/>
      <point x="262" y="957" type="curve"/>
      <point x="262" y="935" type="line"/>
      <point x="562" y="935" type="line"/>
      <point x="562" y="1051" type="line"/>
      <point x="375" y="1097"/>
      <point x="301" y="1134"/>
      <point x="301" y="1169" type="curve" smooth="yes"/>
      <point x="301" y="1192"/>
      <point x="384" y="1286"/>
      <point x="427" y="1286" type="curve" smooth="yes"/>
      <point x="464" y="1286"/>
      <point x="929" y="1142"/>
      <point x="1014" y="1142" type="curve" smooth="yes"/>
      <point x="1067" y="1142"/>
      <point x="1154" y="1284"/>
      <point x="1185" y="1284" type="curve" smooth="yes"/>
      <point x="1208" y="1284"/>
      <point x="1358" y="1246"/>
    </contour>
  </outline>
</glyph>
<glyph name="uni179717B6" format="2">
  <advance width="2288"/>
  <anchor x="1350" y="0" name="L"/>
  <anchor x="1350" y="1440" name="U"/>
  <outline>
    <contour>
      <point x="600" y="410" type="line"/>
      <point x="600" y="800" type="line" smooth="yes"/>
      <point x="600" y="856"/>
      <point x="732" y="884"/>
      <point x="825" y="884" type="curve" smooth="yes"/>
      <point x="919" y="884"/>
      <point x="1050" y="856"/>
      <point x="1050" y="800" type="curve" smooth="yes"/>
      <point x="1050" y="0" type="line"/>
      <point x="1350" y="0" type="line"/>
      <point x="1350" y="819" type="line" smooth="yes"/>
      <point x="1350" y="931"/>
      <point x="1050" y="1025"/>
      <point x="825" y="1025" type="curve" smooth="yes"/>
      <point x="600" y="1025"/>
      <point x="300" y="941"/>
      <point x="300" y="819" type="curve"/>
      <point x="300" y="410" type="line"/>
    </contour>
    <contour>
      <point x="300" y="742" type="line"/>
      <point x="300" y="555" type="line"/>
      <point x="170" y="532"/>
      <point x="73" y="414"/>
      <point x="73" y="290" type="curve"/>
      <point x="73" y="161"/>
      <point x="181" y="31"/>
      <point x="347" y="0" type="curve"/>
      <point x="462" y="0"/>
      <point x="570" y="32"/>
      <point x="600" y="108" type="curve"/>
      <point x="600" y="736" type="line"/>
    </contour>
    <contour>
      <point x="195" y="290" type="curve" smooth="yes"/>
      <point x="195" y="363"/>
      <point x="234" y="439"/>
      <point x="300" y="458" type="curve"/>
      <point x="300" y="157" type="line"/>
      <point x="249" y="179"/>
      <point x="195" y="219"/>
    </contour>
    <contour>
      <point x="1369" y="1440" type="curve" smooth="yes"/>
      <point x="1320" y="1440"/>
      <point x="1282" y="1419"/>
      <point x="1239" y="1387" type="curve" smooth="yes"/>
      <point x="1209" y="1364"/>
      <point x="1137" y="1301"/>
      <point x="1109" y="1268" type="curve"/>
      <point x="1030" y="1298"/>
      <point x="615" y="1440"/>
      <point x="551" y="1440" type="curve" smooth="yes"/>
      <point x="467" y="1440"/>
      <point x="167" y="1168"/>
      <point x="142" y="1064" type="curve" smooth="yes"/>
      <point x="140" y="1057"/>
      <point x="138" y="1035"/>
      <point x="138" y="1029" type="curve" smooth="yes"/>
      <point x="138" y="958"/>
      <point x="216" y="902"/>
      <point x="289" y="890" type="curve"/>
      <point x="470" y="994" type="line"/>
      <point x="387" y="1010"/>
      <point x="333" y="1027"/>
      <point x="333" y="1084" type="curve" smooth="yes"/>
      <point x="333" y="1117"/>
      <point x="359" y="1145"/>
      <point x="403" y="1182" type="curve" smooth="yes"/>
      <point x="417" y="1194"/>
      <point x="439" y="1206"/>
      <point x="465" y="1206" type="curve" smooth="yes"/>
      <point x="534" y="1206"/>
      <point x="977" y="1033"/>
      <point x="1062" y="1033" type="curve"/>
      <point x="1087" y="1033"/>
      <point x="1165" y="1102"/>
      <point x="1209" y="1142" type="curve" smooth="yes"/>
      <point x="1250" y="1180"/>
      <point x="1276" y="1193"/>
      <point x="1313" y="1193" type="curve"/>
      <point x="1382" y="1193"/>
      <point x="1690" y="1065"/>
      <point x="1761" y="1025" type="curve" smooth="yes"/>
      <point x="1778" y="1015"/>
      <point x="1800" y="995"/>
      <point x="1800" y="970" type="curve" smooth="yes"/>
      <point x="1800" y="0" type="line"/>
      <point x="2100" y="0" type="line"/>
      <point x="2100" y="1043" type="line" smooth="yes"/>
      <point x="2100" y="1104"/>
      <point x="2068" y="1149"/>
      <point x="2003" y="1192" type="curve" smooth="yes"/>
      <point x="1945" y="1230"/>
      <point x="1441" y="1440"/>
    </contour>
  </outline>
</glyph>
<glyph name="uni179917B6" format="2">
  <advance width="2925"/>
  <anchor x="1987" y="0" name="L"/>
  <anchor x="1987" y="1440" name="U"/>
  <outline>
    <contour>
      <point x="262" y="910" type="line"/>
      <point x="262" y="187" type="line" smooth="yes"/>
      <point x="262" y="94"/>
      <point x="581" y="0"/>
      <point x="787" y="0" type="curve" smooth="yes"/>
      <point x="930" y="0"/>
      <point x="1076" y="37"/>
      <point x="1162" y="71" type="curve"/>
      <point x="1237" y="37"/>
      <point x="1369" y="0"/>
      <point x="1500" y="0" type="curve" smooth="yes"/>
      <point x="1706" y="0"/>
      <point x="1987" y="94"/>
      <point x="1987" y="187" type="curve" smooth="yes"/>
      <point x="1987" y="835" type="line"/>
      <point x="1687" y="870" type="line"/>
      <point x="1687" y="206" type="line" smooth="yes"/>
      <point x="1687" y="161"/>
      <point x="1560" y="131"/>
      <point x="1500" y="131" type="curve" smooth="yes"/>
      <point x="1440" y="131"/>
      <point x="1312" y="161"/>
      <point x="1312" y="206" type="curve" smooth="yes"/>
      <point x="1312" y="832" type="line"/>
      <point x="1012" y="865" type="line"/>
      <point x="1012" y="206" type="line" smooth="yes"/>
      <point x="1012" y="161"/>
      <point x="847" y="131"/>
      <point x="787" y="131" type="curve" smooth="yes"/>
      <point x="727" y="131"/>
      <point x="562" y="161"/>
      <point x="562" y="206" type="curve" smooth="yes"/>
      <point x="562" y="934" type="line"/>
    </contour>
    <contour>
      <point x="1312" y="745" type="line"/>
      <point x="1312" y="930" type="line" smooth="yes"/>
      <point x="1312" y="995"/>
      <point x="1091" y="1094"/>
      <point x="971" y="1134" type="curve" smooth="yes"/>
      <point x="969" y="1135"/>
      <point x="968" y="1136"/>
      <point x="968" y="1138" type="curve"/>
      <point x="971" y="1153"/>
      <point x="978" y="1165"/>
      <point x="996" y="1177" type="curve" smooth="yes"/>
      <point x="1004" y="1183"/>
      <point x="1014" y="1186"/>
      <point x="1024" y="1186" type="curve" smooth="yes"/>
      <point x="1113" y="1186"/>
      <point x="1177" y="1105"/>
      <point x="1282" y="1105" type="curve" smooth="yes"/>
      <point x="1358" y="1105"/>
      <point x="1410" y="1260"/>
      <point x="1433" y="1346" type="curve"/>
      <point x="1410" y="1336"/>
      <point x="1386" y="1334"/>
      <point x="1363" y="1334" type="curve" smooth="yes"/>
      <point x="1308" y="1334"/>
      <point x="1112" y="1440"/>
      <point x="1040" y="1440" type="curve" smooth="yes"/>
      <point x="956" y="1440"/>
      <point x="853" y="1165"/>
      <point x="828" y="1061" type="curve"/>
      <point x="828" y="1055"/>
      <point x="830" y="1050"/>
      <point x="835" y="1049" type="curve" smooth="yes"/>
      <point x="940" y="1037"/>
      <point x="1012" y="963"/>
      <point x="1012" y="919" type="curve" smooth="yes"/>
      <point x="1012" y="745" type="line"/>
    </contour>
    <contour>
      <point x="562" y="708" type="line"/>
      <point x="562" y="895" type="line"/>
      <point x="692" y="918"/>
      <point x="789" y="1036"/>
      <point x="789" y="1160" type="curve"/>
      <point x="789" y="1289"/>
      <point x="681" y="1419"/>
      <point x="515" y="1450" type="curve"/>
      <point x="400" y="1450"/>
      <point x="292" y="1418"/>
      <point x="262" y="1342" type="curve"/>
      <point x="262" y="714" type="line"/>
    </contour>
    <contour>
      <point x="667" y="1160" type="curve" smooth="yes"/>
      <point x="667" y="1087"/>
      <point x="628" y="1011"/>
      <point x="562" y="992" type="curve"/>
      <point x="562" y="1293" type="line"/>
      <point x="613" y="1271"/>
      <point x="667" y="1231"/>
    </contour>
    <contour>
      <point x="1987" y="681" type="line"/>
      <point x="1987" y="910" type="line" smooth="yes"/>
      <point x="1987" y="975"/>
      <point x="1766" y="1084"/>
      <point x="1646" y="1124" type="curve" smooth="yes"/>
      <point x="1644" y="1125"/>
      <point x="1641" y="1127"/>
      <point x="1643" y="1128" type="curve" smooth="yes"/>
      <point x="1702" y="1167"/>
      <point x="1927" y="1192"/>
      <point x="2053" y="1192" type="curve" smooth="yes"/>
      <point x="2122" y="1192"/>
      <point x="2327" y="1085"/>
      <point x="2398" y="1039" type="curve" smooth="yes"/>
      <point x="2415" y="1028"/>
      <point x="2437" y="1009"/>
      <point x="2437" y="984" type="curve" smooth="yes"/>
      <point x="2437" y="0" type="line"/>
      <point x="2737" y="0" type="line"/>
      <point x="2737" y="1043" type="line" smooth="yes"/>
      <point x="2737" y="1104"/>
      <point x="2705" y="1149"/>
      <point x="2640" y="1192" type="curve" smooth="yes"/>
      <point x="2582" y="1230"/>
      <point x="2181" y="1440"/>
      <point x="2109" y="1440" type="curve" smooth="yes"/>
      <point x="1900" y="1440"/>
      <point x="1753" y="1377"/>
      <point x="1641" y="1282" type="curve" smooth="yes"/>
      <point x="1566" y="1218"/>
      <point x="1523" y="1145"/>
      <point x="1503" y="1061" type="curve"/>
      <point x="1503" y="1055"/>
      <point x="1505" y="1050"/>
      <point x="1510" y="1049" type="curve" smooth="yes"/>
      <point x="1615" y="1037"/>
      <point x="1687" y="963"/>
      <point x="1687" y="919" type="curve" smooth="yes"/>
      <point x="1687" y="681" type="line"/>
    </contour>
  </outline>
</glyph>
<glyph name="uni179B17C5.right" format="2">
  <advance width="2700"/>
  <anchor x="1762" y="0" name="L"/>
  <anchor x="1762" y="1440" name="U"/>
  <outline>
    <contour>
      <point x="562" y="479" type="line"/>
      <point x="562" y="1234" type="line" smooth="yes"/>
      <point x="562" y="1279"/>
      <point x="652" y="1309"/>
      <point x="712" y="1309" type="curve" smooth="yes"/>
      <point x="772" y="1309"/>
      <point x="862" y="1279"/>
      <point x="862" y="1234" type="curve" smooth="yes"/>
      <point x="862" y="187" type="line" smooth="yes"/>
      <point x="862" y="94"/>
      <point x="1106" y="0"/>
      <point x="1312" y="0" type="curve" smooth="yes"/>
      <point x="1519" y="0"/>
      <point x="1762" y="94"/>
      <point x="1762" y="187" type="curve" smooth="yes"/>
      <point x="1762" y="834" type="line"/>
      <point x="1462" y="876" type="line"/>
      <point x="1462" y="206" type="line" smooth="yes"/>
      <point x="1462" y="161"/>
      <point x="1372" y="131"/>
      <point x="1312" y="131" type="curve" smooth="yes"/>
      <point x="1252" y="131"/>
      <point x="1162" y="161"/>
      <point x="1162" y="206" type="curve" smooth="yes"/>
      <point x="1162" y="1252" type="line" smooth="yes"/>
      <point x="1162" y="1346"/>
      <point x="919" y="1440"/>
      <point x="712" y="1440" type="curve" smooth="yes"/>
      <point x="506" y="1440"/>
      <point x="262" y="1346"/>
      <point x="262" y="1252" type="curve" smooth="yes"/>
      <point x="262" y="465" type="line"/>
    </contour>
    <contour>
      <point x="262" y="736" type="line"/>
      <point x="262" y="108" type="line"/>
      <point x="292" y="32"/>
      <point x="400" y="0"/>
      <point x="515" y="0" type="curve"/>
      <point x="681" y="31"/>
      <point x="789" y="161"/>
      <point x="789" y="290" type="curve" smooth="yes"/>
      <point x="789" y="414"/>
      <point x="692" y="532"/>
      <point x="562" y="555" type="curve"/>
      <point x="562" y="742" type="line"/>
    </contour>
    <contour>
      <point x="667" y="290" type="curve" smooth="yes"/>
      <point x="667" y="219"/>
      <point x="613" y="179"/>
      <point x="562" y="157" type="curve"/>
      <point x="562" y="458" type="line"/>
      <point x="628" y="439"/>
      <point x="667" y="363"/>
    </contour>
    <contour>
      <point x="1762" y="681" type="line"/>
      <point x="1762" y="910" type="line" smooth="yes"/>
      <point x="1762" y="975"/>
      <point x="1541" y="1084"/>
      <point x="1421" y="1124" type="curve" smooth="yes"/>
      <point x="1419" y="1125"/>
      <point x="1416" y="1127"/>
      <point x="1418" y="1128" type="curve" smooth="yes"/>
      <point x="1477" y="1167"/>
      <point x="1702" y="1192"/>
      <point x="1828" y="1192" type="curve" smooth="yes"/>
      <point x="1897" y="1192"/>
      <point x="2102" y="1085"/>
      <point x="2173" y="1039" type="curve" smooth="yes"/>
      <point x="2190" y="1028"/>
      <point x="2212" y="1009"/>
      <point x="2212" y="984" type="curve" smooth="yes"/>
      <point x="2212" y="0" type="line"/>
      <point x="2512" y="0" type="line"/>
      <point x="2512" y="1043" type="line" smooth="yes"/>
      <point x="2512" y="1104"/>
      <point x="2480" y="1149"/>
      <point x="2415" y="1192" type="curve" smooth="yes"/>
      <point x="2357" y="1230"/>
      <point x="1956" y="1440"/>
      <point x="1884" y="1440" type="curve" smooth="yes"/>
      <point x="1675" y="1440"/>
      <point x="1528" y="1377"/>
      <point x="1416" y="1282" type="curve" smooth="yes"/>
      <point x="1341" y="1218"/>
      <point x="1298" y="1145"/>
      <point x="1278" y="1061" type="curve"/>
      <point x="1278" y="1055"/>
      <point x="1280" y="1050"/>
      <point x="1285" y="1049" type="curve" smooth="yes"/>
      <point x="1390" y="1037"/>
      <point x="1462" y="963"/>
      <point x="1462" y="919" type="curve" smooth="yes"/>
      <point x="1462" y="681" type="line"/>
    </contour>
    <contour>
      <point x="2242" y="1792" type="curve"/>
      <point x="2242" y="1410" type="line" smooth="yes"/>
      <point x="2242" y="1352"/>
      <point x="2218" y="1307"/>
      <point x="2185" y="1261" type="curve"/>
      <point x="2408" y="1170" type="line"/>
      <point x="2471" y="1257"/>
      <point x="2512" y="1323"/>
      <point x="2512" y="1410" type="curve" smooth="yes"/>
      <point x="2512" y="1788" type="line" smooth="yes"/>
      <point x="2512" y="1858"/>
      <point x="2342" y="1922"/>
      <point x="2259" y="1922" type="curve" smooth="yes"/>
      <point x="2188" y="1922"/>
      <point x="2158" y="1908"/>
      <point x="2131" y="1893" type="curve"/>
      <point x="2206" y="1893"/>
      <point x="2242" y="1825"/>
    </contour>
  </outline>
</glyph>
<glyph name="uni179E17B6" format="2">
  <advance width="2250"/>
  <anchor x="1312" y="0" name="L"/>
  <anchor x="1312" y="1440" name="U"/>
  <outline>
    <contour>
      <point x="1011" y="682" type="curve"/>
      <point x="993" y="694"/>
      <point x="964" y="701"/>
      <point x="926" y="701" type="curve" smooth="yes"/>
      <point x="851" y="701"/>
      <point x="776" y="649"/>
      <point x="776" y="577" type="curve" smooth="yes"/>
      <point x="776" y="472"/>
      <point x="859" y="401"/>
      <point x="1012" y="401" type="curve"/>
      <point x="1312" y="477" type="line"/>
      <point x="1419" y="527"/>
      <point x="1500" y="678"/>
      <point x="1500" y="709" type="curve" smooth="yes"/>
      <point x="1500" y="712"/>
      <point x="1496" y="716"/>
      <point x="1492" y="716" type="curve" smooth="yes"/>
      <point x="1475" y="716"/>
      <point x="1373" y="667"/>
      <point x="1312" y="639" type="curve"/>
      <point x="1012" y="586" type="line"/>
      <point x="983" y="590"/>
      <point x="967" y="604"/>
      <point x="967" y="626" type="curve" smooth="yes"/>
      <point x="967" y="645"/>
      <point x="993" y="671"/>
    </contour>
    <contour>
      <point x="262" y="867" type="line"/>
      <point x="262" y="206" type="line" smooth="yes"/>
      <point x="262" y="94"/>
      <point x="562" y="0"/>
      <point x="787" y="0" type="curve" smooth="yes"/>
      <point x="1012" y="0"/>
      <point x="1312" y="94"/>
      <point x="1312" y="206" type="curve" smooth="yes"/>
      <point x="1312" y="802" type="line"/>
      <point x="1012" y="782" type="line"/>
      <point x="1012" y="225" type="line" smooth="yes"/>
      <point x="1012" y="169"/>
      <point x="881" y="131"/>
      <point x="787" y="131" type="curve" smooth="yes"/>
      <point x="694" y="131"/>
      <point x="562" y="169"/>
      <point x="562" y="225" type="curve" smooth="yes"/>
      <point x="562" y="855" type="line"/>
    </contour>
    <contour>
      <point x="562" y="745" type="line"/>
      <point x="562" y="930" type="line" smooth="yes"/>
      <point x="562" y="995"/>
      <point x="341" y="1094"/>
      <point x="221" y="1134" type="curve" smooth="yes"/>
      <point x="219" y="1135"/>
      <point x="218" y="1136"/>
      <point x="218" y="1138" type="curve"/>
      <point x="221" y="1153"/>
      <point x="228" y="1165"/>
      <point x="246" y="1177" type="curve" smooth="yes"/>
      <point x="254" y="1183"/>
      <point x="264" y="1186"/>
      <point x="274" y="1186" type="curve" smooth="yes"/>
      <point x="363" y="1186"/>
      <point x="427" y="1105"/>
      <point x="532" y="1105" type="curve" smooth="yes"/>
      <point x="608" y="1105"/>
      <point x="660" y="1260"/>
      <point x="683" y="1346" type="curve"/>
      <point x="660" y="1336"/>
      <point x="636" y="1334"/>
      <point x="613" y="1334" type="curve" smooth="yes"/>
      <point x="558" y="1334"/>
      <point x="362" y="1440"/>
      <point x="290" y="1440" type="curve" smooth="yes"/>
      <point x="206" y="1440"/>
      <point x="103" y="1165"/>
      <point x="78" y="1061" type="curve"/>
      <point x="78" y="1055"/>
      <point x="80" y="1050"/>
      <point x="85" y="1049" type="curve" smooth="yes"/>
      <point x="190" y="1037"/>
      <point x="262" y="963"/>
      <point x="262" y="919" type="curve" smooth="yes"/>
      <point x="262" y="745" type="line"/>
    </contour>
    <contour>
      <point x="1312" y="681" type="line"/>
      <point x="1312" y="910" type="line" smooth="yes"/>
      <point x="1312" y="975"/>
      <point x="1091" y="1084"/>
      <point x="971" y="1124" type="curve" smooth="yes"/>
      <point x="969" y="1125"/>
      <point x="966" y="1127"/>
      <point x="968" y="1128" type="curve" smooth="yes"/>
      <point x="1027" y="1167"/>
      <point x="1252" y="1192"/>
      <point x="1378" y="1192" type="curve" smooth="yes"/>
      <point x="1447" y="1192"/>
      <point x="1652" y="1085"/>
      <point x="1723" y="1039" type="curve" smooth="yes"/>
      <point x="1740" y="1028"/>
      <point x="1762" y="1009"/>
      <point x="1762" y="984" type="curve" smooth="yes"/>
      <point x="1762" y="0" type="line"/>
      <point x="2062" y="0" type="line"/>
      <point x="2062" y="1043" type="line" smooth="yes"/>
      <point x="2062" y="1104"/>
      <point x="2030" y="1149"/>
      <point x="1965" y="1192" type="curve" smooth="yes"/>
      <point x="1907" y="1230"/>
      <point x="1506" y="1440"/>
      <point x="1434" y="1440" type="curve" smooth="yes"/>
      <point x="1225" y="1440"/>
      <point x="1078" y="1377"/>
      <point x="966" y="1282" type="curve" smooth="yes"/>
      <point x="891" y="1218"/>
      <point x="848" y="1145"/>
      <point x="828" y="1061" type="curve"/>
      <point x="828" y="1055"/>
      <point x="830" y="1050"/>
      <point x="835" y="1049" type="curve" smooth="yes"/>
      <point x="940" y="1037"/>
      <point x="1012" y="963"/>
      <point x="1012" y="919" type="curve" smooth="yes"/>
      <point x="1012" y="681" type="line"/>
    </contour>
  </outline>
</glyph>
<glyph name="uni17B1.alt2" format="2">
  <advance width="1425"/>
  <anchor x="1437" y="0" name="NG"/>
  <outline>
    <component base="_2"/>
    <contour>
      <point x="976" y="544" type="line"/>
      <point x="976" y="65" type="line" smooth="yes"/>
      <point x="976" y="21"/>
      <point x="979" y="0"/>
      <point x="1035" y="0" type="curve" smooth="yes"/>
      <point x="1308" y="0" type="line"/>
      <point x="1283" y="15"/>
      <point x="1276" y="26"/>
      <point x="1276" y="80" type="curve" smooth="yes"/>
      <point x="1276" y="544" type="line"/>
    </contour>
    <contour>
      <point x="493" y="1860" type="curve" smooth="yes"/>
      <point x="400" y="1860"/>
      <point x="138" y="1574"/>
      <point x="138" y="1483" type="curve" smooth="yes"/>
      <point x="138" y="1408"/>
      <point x="218" y="1344"/>
      <point x="291" y="1325" type="curve"/>
      <point x="380" y="1393"/>
      <point x="458" y="1434"/>
      <point x="527" y="1442" type="curve"/>
      <point x="426" y="1476"/>
      <point x="357" y="1512"/>
      <point x="357" y="1548" type="curve" smooth="yes"/>
      <point x="357" y="1571"/>
      <point x="414" y="1626"/>
      <point x="457" y="1626" type="curve" smooth="yes"/>
      <point x="593" y="1626"/>
      <point x="829" y="1454"/>
      <point x="1084" y="1454" type="curve" smooth="yes"/>
      <point x="1195" y="1454"/>
      <point x="1256" y="1589"/>
      <point x="1265" y="1675" type="curve"/>
      <point x="1246" y="1665"/>
      <point x="1232" y="1663"/>
      <point x="1195" y="1663" type="curve" smooth="yes"/>
      <point x="966" y="1663"/>
      <point x="665" y="1860"/>
    </contour>
  </outline>
</glyph>
<glyph name="uni17B6.lig.right" format="2">
  <advance width="750"/>
  <anchor x="323" y="1236" name="zxc1"/>
  <outline>
    <component base="_stemLg" xOffset="162"/>
    <contour>
      <point x="0" y="1428" type="curve"/>
      <point x="0" y="1195" type="line"/>
      <point x="61" y="1195"/>
      <point x="173" y="1126"/>
      <point x="224" y="1092" type="curve" smooth="yes"/>
      <point x="264" y="1065"/>
      <point x="262" y="1050"/>
      <point x="262" y="1003" type="curve" smooth="yes"/>
      <point x="262" y="780" type="line"/>
      <point x="562" y="780" type="line"/>
      <point x="562" y="1081" type="line" smooth="yes"/>
      <point x="562" y="1154"/>
      <point x="547" y="1177"/>
      <point x="505" y="1205" type="curve" smooth="yes"/>
      <point x="371" y="1295"/>
      <point x="125" y="1440"/>
      <point x="56" y="1440" type="curve" smooth="yes"/>
      <point x="39" y="1440"/>
      <point x="20" y="1436"/>
    </contour>
  </outline>
</glyph>
<glyph name="uni17CA.narrow" format="2">
  <guideline x="-863"/>
  <anchor x="-225" y="1815" name="U"/>
  <anchor x="-225" y="1440" name="_U"/>
  <outline>
    <contour>
      <point x="-499" y="1494" type="curve" smooth="yes"/>
      <point x="-462" y="1494"/>
      <point x="-431" y="1548"/>
      <point x="-412" y="1572" type="curve" smooth="yes"/>
      <point x="-388" y="1601"/>
      <point x="-359" y="1636"/>
      <point x="-328" y="1636" type="curve" smooth="yes"/>
      <point x="-259" y="1636"/>
      <point x="-186" y="1494"/>
      <point x="-101" y="1494" type="curve" smooth="yes"/>
      <point x="-20" y="1494"/>
      <point x="49" y="1629"/>
      <point x="80" y="1715" type="curve"/>
      <point x="57" y="1705"/>
      <point x="33" y="1703"/>
      <point x="10" y="1703" type="curve" smooth="yes"/>
      <point x="-55" y="1703"/>
      <point x="-200" y="1870"/>
      <point x="-272" y="1870" type="curve" smooth="yes"/>
      <point x="-296" y="1870"/>
      <point x="-333" y="1849"/>
      <point x="-367" y="1817" type="curve" smooth="yes"/>
      <point x="-394" y="1791"/>
      <point x="-424" y="1761"/>
      <point x="-452" y="1728" type="curve"/>
      <point x="-521" y="1783"/>
      <point x="-626" y="1870"/>
      <point x="-690" y="1870" type="curve" smooth="yes"/>
      <point x="-794" y="1870"/>
      <point x="-903" y="1725"/>
      <point x="-959" y="1594" type="curve" smooth="yes"/>
      <point x="-962" y="1587"/>
      <point x="-963" y="1565"/>
      <point x="-963" y="1559" type="curve" smooth="yes"/>
      <point x="-963" y="1518"/>
      <point x="-915" y="1482"/>
      <point x="-852" y="1470" type="curve"/>
      <point x="-731" y="1524" type="line"/>
      <point x="-794" y="1540"/>
      <point x="-828" y="1567"/>
      <point x="-828" y="1604" type="curve" smooth="yes"/>
      <point x="-828" y="1619"/>
      <point x="-807" y="1636"/>
      <point x="-756" y="1636" type="curve" smooth="yes"/>
      <point x="-687" y="1636"/>
      <point x="-584" y="1494"/>
    </contour>
  </outline>
</glyph>
<glyph name="uni17D2178317B6.low.alt" format="2">
  <advance width="1500"/>
  <anchor x="562" y="-1238" name="L"/>
  <anchor x="562" y="1440" name="U"/>
  <outline>
    <contour>
      <point x="262" y="859" type="line"/>
      <point x="262" y="-1031" type="line" smooth="yes"/>
      <point x="262" y="-1076"/>
      <point x="191" y="-1107"/>
      <point x="131" y="-1107" type="curve" smooth="yes"/>
      <point x="71" y="-1107"/>
      <point x="0" y="-1076"/>
      <point x="0" y="-1031" type="curve" smooth="yes"/>
      <point x="0" y="-788" type="line"/>
      <point x="-262" y="-788" type="line"/>
      <point x="-262" y="-1031" type="line" smooth="yes"/>
      <point x="-262" y="-1076"/>
      <point x="-353" y="-1107"/>
      <point x="-413" y="-1107" type="curve" smooth="yes"/>
      <point x="-473" y="-1107"/>
      <point x="-544" y="-1076"/>
      <point x="-544" y="-1031" type="curve" smooth="yes"/>
      <point x="-544" y="-870" type="line"/>
      <point x="-555" y="-806"/>
      <point x="-675" y="-788"/>
      <point x="-765" y="-788" type="curve"/>
      <point x="-878" y="-810"/>
      <point x="-954" y="-840"/>
      <point x="-954" y="-911" type="curve" smooth="yes"/>
      <point x="-954" y="-953"/>
      <point x="-909" y="-1009"/>
      <point x="-826" y="-1028" type="curve"/>
      <point x="-826" y="-1058" type="line" smooth="yes"/>
      <point x="-826" y="-1163"/>
      <point x="-623" y="-1238"/>
      <point x="-413" y="-1238" type="curve" smooth="yes"/>
      <point x="-304" y="-1238"/>
      <point x="-214" y="-1211"/>
      <point x="-150" y="-1178" type="curve"/>
      <point x="-60" y="-1211"/>
      <point x="22" y="-1238"/>
      <point x="131" y="-1238" type="curve" smooth="yes"/>
      <point x="337" y="-1238"/>
      <point x="562" y="-1151"/>
      <point x="562" y="-1058" type="curve" smooth="yes"/>
      <point x="562" y="827" type="line"/>
    </contour>
    <contour>
      <point x="562" y="681" type="line"/>
      <point x="562" y="910" type="line" smooth="yes"/>
      <point x="562" y="975"/>
      <point x="341" y="1084"/>
      <point x="221" y="1124" type="curve" smooth="yes"/>
      <point x="219" y="1125"/>
      <point x="216" y="1127"/>
      <point x="218" y="1128" type="curve" smooth="yes"/>
      <point x="277" y="1167"/>
      <point x="502" y="1192"/>
      <point x="628" y="1192" type="curve" smooth="yes"/>
      <point x="697" y="1192"/>
      <point x="902" y="1085"/>
      <point x="973" y="1039" type="curve" smooth="yes"/>
      <point x="990" y="1028"/>
      <point x="1012" y="1009"/>
      <point x="1012" y="984" type="curve" smooth="yes"/>
      <point x="1012" y="0" type="line"/>
      <point x="1312" y="0" type="line"/>
      <point x="1312" y="1043" type="line" smooth="yes"/>
      <point x="1312" y="1104"/>
      <point x="1280" y="1149"/>
      <point x="1215" y="1192" type="curve" smooth="yes"/>
      <point x="1157" y="1230"/>
      <point x="756" y="1440"/>
      <point x="684" y="1440" type="curve" smooth="yes"/>
      <point x="475" y="1440"/>
      <point x="328" y="1377"/>
      <point x="216" y="1282" type="curve" smooth="yes"/>
      <point x="141" y="1218"/>
      <point x="98" y="1145"/>
      <point x="78" y="1061" type="curve"/>
      <point x="78" y="1055"/>
      <point x="80" y="1050"/>
      <point x="85" y="1049" type="curve" smooth="yes"/>
      <point x="190" y="1037"/>
      <point x="262" y="963"/>
      <point x="262" y="919" type="curve" smooth="yes"/>
      <point x="262" y="681" type="line"/>
    </contour>
  </outline>
</glyph>
<glyph name="uni17D2178D.low" format="2">
  <advance width="750"/>
  <anchor x="562" y="-1238" name="L"/>
  <anchor x="562" y="1440" name="U"/>
  <outline>
    <contour>
      <point x="262" y="858" type="line"/>
      <point x="262" y="-1016" type="line" smooth="yes"/>
      <point x="262" y="-1065"/>
      <point x="236" y="-1107"/>
      <point x="187" y="-1107" type="curve" smooth="yes"/>
      <point x="94" y="-1107"/>
      <point x="49" y="-1020"/>
      <point x="-38" y="-998" type="curve"/>
      <point x="-38" y="-893"/>
      <point x="-174" y="-788"/>
      <point x="-305" y="-788" type="curve" smooth="yes"/>
      <point x="-357" y="-788"/>
      <point x="-444" y="-832"/>
      <point x="-489" y="-870" type="curve"/>
      <point x="-534" y="-832"/>
      <point x="-624" y="-788"/>
      <point x="-676" y="-788" type="curve" smooth="yes"/>
      <point x="-807" y="-788"/>
      <point x="-939" y="-874"/>
      <point x="-939" y="-979" type="curve" smooth="yes"/>
      <point x="-939" y="-1155" type="line"/>
      <point x="-927" y="-1219"/>
      <point x="-807" y="-1238"/>
      <point x="-717" y="-1238" type="curve"/>
      <point x="-605" y="-1230"/>
      <point x="-530" y="-1194"/>
      <point x="-530" y="-1123" type="curve" smooth="yes"/>
      <point x="-530" y="-1082"/>
      <point x="-575" y="-1035"/>
      <point x="-657" y="-1016" type="curve"/>
      <point x="-657" y="-960" type="line"/>
      <point x="-620" y="-986"/>
      <point x="-519" y="-1043"/>
      <point x="-489" y="-1043" type="curve" smooth="yes"/>
      <point x="-459" y="-1043"/>
      <point x="-357" y="-987"/>
      <point x="-320" y="-961" type="curve"/>
      <point x="-320" y="-1016" type="line"/>
      <point x="-402" y="-1035"/>
      <point x="-451" y="-1082"/>
      <point x="-451" y="-1123" type="curve" smooth="yes"/>
      <point x="-451" y="-1194"/>
      <point x="-372" y="-1230"/>
      <point x="-260" y="-1238" type="curve"/>
      <point x="-170" y="-1238"/>
      <point x="-49" y="-1211"/>
      <point x="-38" y="-1148" type="curve"/>
      <point x="-38" y="-1110" type="line"/>
      <point x="26" y="-1125"/>
      <point x="75" y="-1238"/>
      <point x="217" y="-1238" type="curve" smooth="yes"/>
      <point x="424" y="-1238"/>
      <point x="562" y="-1140"/>
      <point x="562" y="-1035" type="curve" smooth="yes"/>
      <point x="562" y="842" type="line"/>
    </contour>
    <contour>
      <point x="562" y="665" type="line"/>
      <point x="562" y="930" type="line" smooth="yes"/>
      <point x="562" y="995"/>
      <point x="341" y="1094"/>
      <point x="221" y="1134" type="curve" smooth="yes"/>
      <point x="219" y="1135"/>
      <point x="218" y="1136"/>
      <point x="218" y="1138" type="curve"/>
      <point x="221" y="1153"/>
      <point x="228" y="1165"/>
      <point x="246" y="1177" type="curve" smooth="yes"/>
      <point x="254" y="1183"/>
      <point x="264" y="1186"/>
      <point x="274" y="1186" type="curve" smooth="yes"/>
      <point x="363" y="1186"/>
      <point x="427" y="1105"/>
      <point x="532" y="1105" type="curve" smooth="yes"/>
      <point x="608" y="1105"/>
      <point x="660" y="1260"/>
      <point x="683" y="1346" type="curve"/>
      <point x="660" y="1336"/>
      <point x="636" y="1334"/>
      <point x="613" y="1334" type="curve" smooth="yes"/>
      <point x="558" y="1334"/>
      <point x="362" y="1440"/>
      <point x="290" y="1440" type="curve" smooth="yes"/>
      <point x="206" y="1440"/>
      <point x="103" y="1165"/>
      <point x="78" y="1061" type="curve"/>
      <point x="78" y="1055"/>
      <point x="80" y="1050"/>
      <point x="85" y="1049" type="curve" smooth="yes"/>
      <point x="190" y="1037"/>
      <point x="262" y="963"/>
      <point x="262" y="919" type="curve" smooth="yes"/>
      <point x="262" y="665" type="line"/>
    </contour>
  </outline>
</glyph>
<glyph name="uni17D2179A.lowwide" format="2">
  <advance width="750"/>
  <outline>
    <contour>
      <point x="262" y="807" type="line"/>
      <point x="262" y="-945" type="line" smooth="yes"/>
      <point x="262" y="-1039"/>
      <point x="581" y="-1125"/>
      <point x="862" y="-1125" type="curve" smooth="yes"/>
      <point x="1144" y="-1125"/>
      <point x="1462" y="-1039"/>
      <point x="1462" y="-945" type="curve" smooth="yes"/>
      <point x="1462" y="-848" type="line"/>
      <point x="1162" y="-848" type="line"/>
      <point x="1162" y="-919" type="line" smooth="yes"/>
      <point x="1162" y="-964"/>
      <point x="997" y="-994"/>
      <point x="862" y="-994" type="curve" smooth="yes"/>
      <point x="727" y="-994"/>
      <point x="562" y="-964"/>
      <point x="562" y="-919" type="curve" smooth="yes"/>
      <point x="562" y="812" type="line"/>
    </contour>
    <contour>
      <point x="562" y="665" type="line"/>
      <point x="562" y="930" type="line" smooth="yes"/>
      <point x="562" y="995"/>
      <point x="341" y="1094"/>
      <point x="221" y="1134" type="curve"/>
      <point x="219" y="1135"/>
      <point x="218" y="1136"/>
      <point x="218" y="1138" type="curve"/>
      <point x="221" y="1153"/>
      <point x="228" y="1165"/>
      <point x="246" y="1177" type="curve"/>
      <point x="254" y="1183"/>
      <point x="264" y="1186"/>
      <point x="274" y="1186" type="curve" smooth="yes"/>
      <point x="363" y="1186"/>
      <point x="427" y="1105"/>
      <point x="532" y="1105" type="curve" smooth="yes"/>
      <point x="608" y="1105"/>
      <point x="660" y="1260"/>
      <point x="683" y="1346" type="curve"/>
      <point x="660" y="1336"/>
      <point x="636" y="1334"/>
      <point x="613" y="1334" type="curve" smooth="yes"/>
      <point x="558" y="1334"/>
      <point x="362" y="1440"/>
      <point x="290" y="1440" type="curve" smooth="yes"/>
      <point x="206" y="1440"/>
      <point x="103" y="1165"/>
      <point x="78" y="1061" type="curve"/>
      <point x="78" y="1055"/>
      <point x="80" y="1050"/>
      <point x="85" y="1049" type="curve"/>
      <point x="190" y="1037"/>
      <point x="262" y="963"/>
      <point x="262" y="919" type="curve" smooth="yes"/>
      <point x="262" y="665" type="line"/>
    </contour>
  </outline>
</glyph>
<glyph name="uni17D217A5" format="2">
  <anchor x="0" y="-350" name="B2"/>
  <anchor x="0" y="680" name="_B1"/>
  <anchor x="0" y="690" name="_B2"/>
  <anchor x="0" y="0" name="_D2"/>
  <anchor x="-20" y="0" name="_L"/>
  <anchor x="-639" y="0" name="_N"/>
  <anchor x="-639" y="0" name="_NC"/>
  <anchor x="0" y="0" name="_NG"/>
  <outline>
    <component base="uni17D2178F.low" yOffset="200"/>
    <contour>
      <point x="-1020" y="-661" type="curve"/>
      <point x="-970" y="-620"/>
      <point x="-906" y="-594"/>
      <point x="-828" y="-583" type="curve"/>
      <point x="-914" y="-583"/>
      <point x="-967" y="-547"/>
      <point x="-967" y="-519" type="curve" smooth="yes"/>
      <point x="-967" y="-473"/>
      <point x="-917" y="-438"/>
      <point x="-897" y="-438" type="curve" smooth="yes"/>
      <point x="-847" y="-438"/>
      <point x="-534" y="-569"/>
      <point x="-422" y="-569" type="curve" smooth="yes"/>
      <point x="-277" y="-569"/>
      <point x="-209" y="-466"/>
      <point x="-209" y="-360" type="curve" smooth="yes"/>
      <point x="-209" y="-239"/>
      <point x="-296" y="-110"/>
      <point x="-459" y="-110" type="curve" smooth="yes"/>
      <point x="-532" y="-110"/>
      <point x="-572" y="-151"/>
      <point x="-572" y="-194" type="curve" smooth="yes"/>
      <point x="-572" y="-325"/>
      <point x="-351" y="-262"/>
      <point x="-351" y="-353" type="curve" smooth="yes"/>
      <point x="-351" y="-381"/>
      <point x="-372" y="-402"/>
      <point x="-409" y="-402" type="curve" smooth="yes"/>
      <point x="-488" y="-402"/>
      <point x="-762" y="-266"/>
      <point x="-876" y="-266" type="curve" smooth="yes"/>
      <point x="-959" y="-266"/>
      <point x="-1127" y="-479"/>
      <point x="-1127" y="-557" type="curve" smooth="yes"/>
      <point x="-1127" y="-606"/>
      <point x="-1082" y="-644"/>
    </contour>
  </outline>
</glyph>
<glyph name="uni17D217A6" format="2">
  <anchor x="0" y="-500" name="B2"/>
  <anchor x="0" y="680" name="_B1"/>
  <anchor x="0" y="690" name="_B2"/>
  <anchor x="0" y="0" name="_D2"/>
  <anchor x="-20" y="0" name="_L"/>
  <anchor x="-940" y="0" name="_N"/>
  <anchor x="-1030" y="0" name="_NC"/>
  <anchor x="-240" y="0" name="_NG"/>
  <outline>
    <component base="uni17D2178A" xOffset="-503" yOffset="-100"/>
    <component base="_substemMed" xOffset="-616" yOffset="-533"/>
    <contour>
      <point x="-1166" y="-1166" type="line"/>
      <point x="-1166" y="-1044" type="line"/>
      <point x="-1466" y="-1074" type="line"/>
      <point x="-1466" y="-1147" type="line" smooth="yes"/>
      <point x="-1466" y="-1208"/>
      <point x="-1378" y="-1240"/>
      <point x="-1283" y="-1240" type="curve" smooth="yes"/>
      <point x="-1173" y="-1240"/>
      <point x="-1054" y="-1196"/>
      <point x="-1054" y="-1102" type="curve" smooth="yes"/>
      <point x="-1054" y="-1035"/>
      <point x="-1102" y="-994"/>
      <point x="-1187" y="-994" type="curve"/>
      <point x="-1192" y="-1066" type="line"/>
      <point x="-1152" y="-1066"/>
      <point x="-1130" y="-1076"/>
      <point x="-1130" y="-1102" type="curve" smooth="yes"/>
      <point x="-1130" y="-1124"/>
      <point x="-1151" y="-1145"/>
      <point x="-1188" y="-1145" type="curve"/>
    </contour>
    <contour>
      <point x="-691" y="-1057" type="curve" smooth="yes"/>
      <point x="-691" y="-1049"/>
      <point x="-691" y="-1042"/>
      <point x="-691" y="-1034" type="curve" smooth="yes"/>
      <point x="-691" y="-921"/>
      <point x="-880" y="-866"/>
      <point x="-1071" y="-866" type="curve" smooth="yes"/>
      <point x="-1267" y="-866"/>
      <point x="-1466" y="-924"/>
      <point x="-1466" y="-1034" type="curve" smooth="yes"/>
      <point x="-1466" y="-1094" type="line"/>
      <point x="-1166" y="-1094" type="line"/>
      <point x="-1166" y="-1020" type="line" smooth="yes"/>
      <point x="-1166" y="-999"/>
      <point x="-1122" y="-989"/>
      <point x="-1078" y="-989" type="curve" smooth="yes"/>
      <point x="-1035" y="-989"/>
      <point x="-991" y="-999"/>
      <point x="-991" y="-1020" type="curve" smooth="yes"/>
      <point x="-991" y="-1034"/>
      <point x="-991" y="-1039"/>
      <point x="-991" y="-1053" type="curve" smooth="yes"/>
      <point x="-991" y="-1165"/>
      <point x="-799" y="-1225"/>
      <point x="-606" y="-1225" type="curve" smooth="yes"/>
      <point x="-411" y="-1225"/>
      <point x="-216" y="-1164"/>
      <point x="-216" y="-1033" type="curve" smooth="yes"/>
      <point x="-216" y="-995" type="line"/>
      <point x="-516" y="-995" type="line"/>
      <point x="-516" y="-1057" type="line" smooth="yes"/>
      <point x="-516" y="-1083"/>
      <point x="-561" y="-1097"/>
      <point x="-605" y="-1097" type="curve" smooth="yes"/>
      <point x="-648" y="-1097"/>
      <point x="-691" y="-1084"/>
    </contour>
    <contour>
      <point x="-516" y="-795" type="line"/>
      <point x="-216" y="-795" type="line"/>
      <point x="-216" y="-651" type="line" smooth="yes"/>
      <point x="-216" y="-566"/>
      <point x="-404" y="-517"/>
      <point x="-502" y="-484" type="curve" smooth="yes"/>
      <point x="-504" y="-483"/>
      <point x="-505" y="-482"/>
      <point x="-505" y="-480" type="curve" smooth="yes"/>
      <point x="-505" y="-455"/>
      <point x="-487" y="-436"/>
      <point x="-469" y="-436" type="curve" smooth="yes"/>
      <point x="-421" y="-436"/>
      <point x="-334" y="-525"/>
      <point x="-241" y="-525" type="curve" smooth="yes"/>
      <point x="-114" y="-525"/>
      <point x="-44" y="-415"/>
      <point x="-44" y="-299" type="curve" smooth="yes"/>
      <point x="-44" y="-104"/>
      <point x="-266" y="-25"/>
      <point x="-425" y="-25" type="curve" smooth="yes"/>
      <point x="-514" y="-25"/>
      <point x="-584" y="-49"/>
      <point x="-584" y="-94" type="curve" smooth="yes"/>
      <point x="-584" y="-156"/>
      <point x="-486" y="-176"/>
      <point x="-387" y="-197" type="curve" smooth="yes"/>
      <point x="-283" y="-218"/>
      <point x="-177" y="-230"/>
      <point x="-177" y="-268" type="curve" smooth="yes"/>
      <point x="-177" y="-280"/>
      <point x="-178" y="-298"/>
      <point x="-204" y="-298" type="curve" smooth="yes"/>
      <point x="-247" y="-298"/>
      <point x="-341" y="-225"/>
      <point x="-418" y="-225" type="curve" smooth="yes"/>
      <point x="-549" y="-225"/>
      <point x="-650" y="-456"/>
      <point x="-650" y="-538" type="curve" smooth="yes"/>
      <point x="-650" y="-542"/>
      <point x="-648" y="-545"/>
      <point x="-643" y="-546" type="curve" smooth="yes"/>
      <point x="-532" y="-557"/>
      <point x="-516" y="-597"/>
      <point x="-516" y="-638" type="curve" smooth="yes"/>
    </contour>
  </outline>
</glyph>
<glyph name="uni17D217AA" format="2">
  <anchor x="0" y="-440" name="B2"/>
  <anchor x="0" y="680" name="_B1"/>
  <anchor x="0" y="690" name="_B2"/>
  <anchor x="0" y="0" name="_D2"/>
  <anchor x="-20" y="0" name="_L"/>
  <anchor x="-639" y="0" name="_N"/>
  <anchor x="-639" y="0" name="_NC"/>
  <anchor x="0" y="0" name="_NG"/>
  <outline>
    <component base="uni17D217A7" yOffset="-405"/>
    <contour>
      <point x="-1030" y="-611" type="curve"/>
      <point x="-980" y="-570"/>
      <point x="-916" y="-544"/>
      <point x="-838" y="-533" type="curve"/>
      <point x="-924" y="-533"/>
      <point x="-977" y="-497"/>
      <point x="-977" y="-469" type="curve" smooth="yes"/>
      <point x="-977" y="-423"/>
      <point x="-927" y="-388"/>
      <point x="-907" y="-388" type="curve" smooth="yes"/>
      <point x="-857" y="-388"/>
      <point x="-544" y="-519"/>
      <point x="-432" y="-519" type="curve" smooth="yes"/>
      <point x="-287" y="-519"/>
      <point x="-219" y="-416"/>
      <point x="-219" y="-310" type="curve" smooth="yes"/>
      <point x="-219" y="-189"/>
      <point x="-306" y="-60"/>
      <point x="-469" y="-60" type="curve" smooth="yes"/>
      <point x="-542" y="-60"/>
      <point x="-582" y="-101"/>
      <point x="-582" y="-144" type="curve" smooth="yes"/>
      <point x="-582" y="-275"/>
      <point x="-361" y="-212"/>
      <point x="-361" y="-303" type="curve" smooth="yes"/>
      <point x="-361" y="-331"/>
      <point x="-382" y="-352"/>
      <point x="-419" y="-352" type="curve" smooth="yes"/>
      <point x="-498" y="-352"/>
      <point x="-772" y="-216"/>
      <point x="-886" y="-216" type="curve" smooth="yes"/>
      <point x="-969" y="-216"/>
      <point x="-1137" y="-429"/>
      <point x="-1137" y="-507" type="curve" smooth="yes"/>
      <point x="-1137" y="-556"/>
      <point x="-1092" y="-594"/>
    </contour>
  </outline>
</glyph>
<glyph name="uni17D217B1" format="2">
  <guideline y="-75"/>
  <guideline x="-1118"/>
  <guideline x="-225"/>
  <anchor x="0" y="-240" name="B2"/>
  <anchor x="0" y="680" name="_B1"/>
  <anchor x="0" y="690" name="_B2"/>
  <anchor x="0" y="0" name="_D2"/>
  <anchor x="-20" y="0" name="_L"/>
  <anchor x="-639" y="0" name="_N"/>
  <anchor x="-639" y="0" name="_NC"/>
  <anchor x="0" y="0" name="_NG"/>
  <outline>
    <component base="uni17D217A7" yOffset="-210"/>
    <contour>
      <point x="-954" y="-437" type="curve"/>
      <point x="-807" y="-393" type="line"/>
      <point x="-876" y="-365"/>
      <point x="-914" y="-332"/>
      <point x="-914" y="-295" type="curve" smooth="yes"/>
      <point x="-914" y="-262"/>
      <point x="-890" y="-235"/>
      <point x="-840" y="-235" type="curve" smooth="yes"/>
      <point x="-797" y="-235"/>
      <point x="-739" y="-255"/>
      <point x="-680" y="-279" type="curve" smooth="yes"/>
      <point x="-605" y="-310"/>
      <point x="-509" y="-345"/>
      <point x="-382" y="-345" type="curve" smooth="yes"/>
      <point x="-241" y="-345"/>
      <point x="-192" y="-241"/>
      <point x="-167" y="-197" type="curve"/>
      <point x="-195" y="-207"/>
      <point x="-227" y="-212"/>
      <point x="-266" y="-212" type="curve" smooth="yes"/>
      <point x="-345" y="-212"/>
      <point x="-449" y="-197"/>
      <point x="-543" y="-158" type="curve" smooth="yes"/>
      <point x="-640" y="-118"/>
      <point x="-746" y="-76"/>
      <point x="-842" y="-76" type="curve" smooth="yes"/>
      <point x="-986" y="-76"/>
      <point x="-1078" y="-169"/>
      <point x="-1078" y="-267" type="curve" smooth="yes"/>
      <point x="-1078" y="-330"/>
      <point x="-1040" y="-394"/>
    </contour>
  </outline>
</glyph>
<glyph name="uni17DD.narrow" format="2">
  <guideline x="-788"/>
  <anchor x="-188" y="1875" name="U"/>
  <anchor x="-188" y="1440" name="_U"/>
  <outline>
    <contour>
      <point x="-384" y="2040" type="curve" smooth="yes"/>
      <point x="-624" y="2040"/>
      <point x="-760" y="1843"/>
      <point x="-827" y="1701" type="curve" smooth="yes"/>
      <point x="-877" y="1598"/>
      <point x="-724" y="1521"/>
      <point x="-668" y="1623" type="curve" smooth="yes"/>
      <point x="-605" y="1737"/>
      <point x="-514" y="1830"/>
      <point x="-384" y="1830" type="curve" smooth="yes"/>
      <point x="-254" y="1830"/>
      <point x="-162" y="1737"/>
      <point x="-100" y="1623" type="curve" smooth="yes"/>
      <point x="-44" y="1521"/>
      <point x="109" y="1598"/>
      <point x="59" y="1701" type="curve" smooth="yes"/>
      <point x="-7" y="1842"/>
      <point x="-144" y="2040"/>
    </contour>
  </outline>
</glyph>
